<svg width="24" height="24" viewBox="0 0 24 24" fill="none" xmlns="http://www.w3.org/2000/svg">
<ellipse cx="3.99992" cy="3.99995" rx="3.99992" ry="3.99995" transform="matrix(1 -2.01953e-08 -2.01951e-08 -1 8 24)" fill="#59C59E"/>
<ellipse cx="3.99992" cy="3.99995" rx="3.99992" ry="3.99995" transform="matrix(1 -2.01953e-08 -2.01951e-08 -1 8 24)" fill="#E54D57"/>
<ellipse cx="3.99992" cy="3.99995" rx="3.99992" ry="3.99995" transform="matrix(1 -2.01953e-08 -2.01951e-08 -1 7.6582 16)" fill="#A4FCDE"/>
<ellipse cx="3.99992" cy="3.99995" rx="3.99992" ry="3.99995" transform="matrix(1 -2.01953e-08 -2.01951e-08 -1 7.6582 16)" fill="#E54D57"/>
<ellipse cx="3.99992" cy="3.99995" rx="3.99992" ry="3.99995" transform="matrix(1 -2.01953e-08 -2.01951e-08 -1 16 8)" fill="#07D6A5"/>
<ellipse cx="3.99992" cy="3.99995" rx="3.99992" ry="3.99995" transform="matrix(1 -2.01953e-08 -2.01951e-08 -1 0 24)" fill="#07D6A5"/>
<ellipse cx="3.99992" cy="3.99995" rx="3.99992" ry="3.99995" transform="matrix(1 -2.01953e-08 -2.01951e-08 -1 16 16)" fill="#07D6A5"/>
<ellipse cx="3.99992" cy="3.99995" rx="3.99992" ry="3.99995" transform="matrix(1 -2.01953e-08 -2.01951e-08 -1 15.6582 23.998)" fill="#07D6A5"/>
</svg>
