<svg width="14" height="15" viewBox="0 0 14 15" fill="none" xmlns="http://www.w3.org/2000/svg">
<g clip-path="url(#clip0_2908_42251)">
<path d="M7.6363 6.82801C7.14003 6.33195 6.46708 6.05328 5.7654 6.05328C5.06373 6.05328 4.39078 6.33195 3.89451 6.82801L2.02301 8.6989C1.52674 9.19517 1.24794 9.86826 1.24794 10.5701C1.24794 11.2719 1.52674 11.945 2.02301 12.4413C2.51929 12.9376 3.19238 13.2164 3.89421 13.2164C4.59604 13.2164 5.26913 12.9376 5.7654 12.4413L6.70085 11.5058" stroke="#999999" stroke-width="2.17417" stroke-linecap="round" stroke-linejoin="round"/>
<path d="M5.7654 8.6989C6.26166 9.19496 6.93461 9.47362 7.63629 9.47362C8.33796 9.47362 9.01092 9.19496 9.50718 8.6989L11.3787 6.82801C11.875 6.33174 12.1538 5.65865 12.1538 4.95682C12.1538 4.25498 11.875 3.58189 11.3787 3.08562C10.8824 2.58935 10.2093 2.31055 9.50748 2.31055C8.80565 2.31055 8.13256 2.58935 7.63629 3.08562L6.70084 4.02107" stroke="#999999" stroke-width="2.17417" stroke-linecap="round" stroke-linejoin="round"/>
</g>
<defs>
<clipPath id="clip0_2908_42251">
<rect width="13.7667" height="13.7667" fill="white" transform="translate(0 0.589844)"/>
</clipPath>
</defs>
</svg>
