<svg width="40" height="40" viewBox="0 0 40 40" fill="none" xmlns="http://www.w3.org/2000/svg">
<rect x="0.5" y="0.5" width="39" height="39" rx="7.5" fill="#1F2228"/>
<rect x="0.5" y="0.5" width="39" height="39" rx="7.5" stroke="#1F2228"/>
<g clip-path="url(#clip0_5626_69996)">
<path d="M13.375 22.4311C13.375 23.0716 12.8406 23.5956 12.1875 23.5956C11.5344 23.5956 11 23.0716 11 22.4311V17.1911C11 16.5507 11.5344 16.0267 12.1875 16.0267C12.8406 16.0267 13.375 16.5507 13.375 17.1911V22.4311ZM30 22.4311C30 23.0716 29.4656 23.5956 28.8125 23.5956C28.1594 23.5956 27.625 23.0716 27.625 22.4311V17.1911C27.625 16.5507 28.1594 16.0267 28.8125 16.0267C29.4656 16.0267 30 16.5507 30 17.1911V22.4311ZM19.3125 28.8356C19.3125 29.476 18.7781 30 18.125 30C17.4719 30 16.9375 29.476 16.9375 28.8356V23.5956C16.9375 22.9551 17.4719 22.4311 18.125 22.4311C18.7781 22.4311 19.3125 22.9551 19.3125 23.5956V28.8356ZM24.0625 28.8356C24.0625 29.476 23.5281 30 22.875 30C22.2219 30 21.6875 29.476 21.6875 28.8356V23.5956C21.6875 22.9551 22.2219 22.4311 22.875 22.4311C23.5281 22.4311 24.0625 22.9551 24.0625 23.5956V28.8356Z" fill="white"/>
<path d="M14.5625 16.0267V24.76C14.5625 25.4005 15.0969 25.9245 15.75 25.9245H25.25C25.9031 25.9245 26.4375 25.4005 26.4375 24.76V16.0267H14.5625ZM20.5 10.2045C16.9375 10.2045 14.7406 12.3005 14.5625 14.8622H26.4375C26.2594 12.3005 24.0625 10.2045 20.5 10.2045ZM18.125 13.4649C17.7688 13.4649 17.5312 13.232 17.5312 12.8827C17.5312 12.5334 17.7688 12.3005 18.125 12.3005C18.4812 12.3005 18.7188 12.5334 18.7188 12.8827C18.7188 13.1738 18.4812 13.4649 18.125 13.4649ZM22.875 13.4649C22.5188 13.4649 22.2812 13.232 22.2812 12.8827C22.2812 12.5334 22.5188 12.3005 22.875 12.3005C23.2312 12.3005 23.4688 12.5334 23.4688 12.8827C23.4688 13.1738 23.2312 13.4649 22.875 13.4649Z" fill="white"/>
<path d="M23.0531 11.66C22.9344 11.66 22.8156 11.6018 22.6969 11.5436C22.4 11.3689 22.3406 11.0196 22.5187 10.7285L23.5281 9.27292C23.7062 8.98181 24.0625 8.92358 24.3594 9.09825C24.6562 9.27292 24.7156 9.62225 24.5375 9.91336L23.5281 11.3689C23.4687 11.5436 23.2906 11.66 23.0531 11.66ZM17.7094 11.4271C17.5312 11.4271 17.2937 11.3107 17.2344 11.136L16.4625 9.91336C16.2844 9.62225 16.3437 9.27292 16.6406 9.09825C16.9375 8.92358 17.2937 8.98181 17.4719 9.27292L18.2438 10.4956C18.4219 10.7867 18.3625 11.136 18.0656 11.3107C17.9469 11.3689 17.8281 11.4271 17.7094 11.4271Z" fill="white"/>
</g>
<defs>
<clipPath id="clip0_5626_69996">
<rect width="24" height="24" fill="white" transform="translate(8 8)"/>
</clipPath>
</defs>
</svg>
