<svg width="40" height="40" viewBox="0 0 40 40" fill="none" xmlns="http://www.w3.org/2000/svg">
<rect width="40" height="40" rx="8" fill="#F6F6F9"/>
<g clip-path="url(#clip0_5626_69997)">
<line x1="10.25" y1="1.09278e-08" x2="10.25" y2="40" stroke="#E5E5E8" stroke-width="0.5"/>
<line x1="30.25" y1="1.31134e-08" x2="30.25" y2="40" stroke="#E5E5E8" stroke-width="0.5"/>
<line x1="20.25" y1="1.31134e-08" x2="20.25" y2="40" stroke="#E5E5E8" stroke-width="0.5"/>
<line x1="40" y1="10.25" x2="-2.18557e-08" y2="10.25" stroke="#E5E5E8" stroke-width="0.5"/>
<line x1="40" y1="30.25" x2="-2.40413e-08" y2="30.25" stroke="#E5E5E8" stroke-width="0.5"/>
<line x1="40" y1="20.25" x2="-2.40413e-08" y2="20.25" stroke="#E5E5E8" stroke-width="0.5"/>
<g clip-path="url(#clip1_5626_69997)">
<path d="M10.0864 25H8.39305L11.4751 16.2695H13.4204L16.4966 25H14.8091L12.477 18.0625H12.4067L10.0864 25ZM10.145 21.5781H14.7446V22.8438H10.145V21.5781ZM17.4397 25V16.2695H20.7151C21.387 16.2695 21.9495 16.3945 22.4026 16.6445C22.8596 16.8945 23.2053 17.2383 23.4397 17.6758C23.6741 18.1133 23.7913 18.6094 23.7913 19.1641C23.7913 19.7227 23.6721 20.2207 23.4338 20.6582C23.1995 21.0918 22.8518 21.4336 22.3909 21.6836C21.9299 21.9297 21.3635 22.0527 20.6916 22.0527H18.5237V20.752H20.4748C20.8694 20.752 21.1916 20.6855 21.4416 20.5527C21.6955 20.416 21.8811 20.2285 21.9983 19.9902C22.1194 19.748 22.1799 19.4727 22.1799 19.1641C22.1799 18.8516 22.1194 18.5781 21.9983 18.3438C21.8811 18.1055 21.6955 17.9219 21.4416 17.793C21.1916 17.6602 20.8674 17.5938 20.469 17.5938H19.0217V25H17.4397ZM24.957 25V16.2695H26.5391V20.2832H26.6445L30.0547 16.2695H31.9824L28.6074 20.1895L32.0117 25H30.1074L27.5059 21.2617L26.5391 22.4043V25H24.957Z" fill="#1F2228"/>
</g>
</g>
<defs>
<clipPath id="clip0_5626_69997">
<rect width="40" height="40" fill="white"/>
</clipPath>
<clipPath id="clip1_5626_69997">
<rect width="24" height="24" fill="white" transform="translate(8 8)"/>
</clipPath>
</defs>
</svg>
