<svg width="121" height="28" viewBox="0 0 121 28" fill="none" xmlns="http://www.w3.org/2000/svg">
<path d="M56.6667 12.8711V19.871M50.8334 22.2044V25.7044M43.8334 22.2044V25.7044M38.0001 12.8711V19.871M45 4.70442L43.25 2.37109M49.6667 4.70442L51.4167 2.37109M40.9167 11.7044H53.75M40.9167 11.1211C40.9167 9.41927 41.5928 7.78717 42.7961 6.58381C43.9995 5.38046 45.6316 4.70442 47.3334 4.70442C49.0352 4.70442 50.6673 5.38046 51.8706 6.58381C53.074 7.78717 53.75 9.41927 53.75 11.1211V18.7044C53.75 20.354 53.75 21.1789 53.2367 21.691C52.7245 22.2044 51.8997 22.2044 50.25 22.2044H44.4167C42.767 22.2044 41.9422 22.2044 41.4301 21.691C40.9167 21.1789 40.9167 20.354 40.9167 18.7044V11.1211Z" stroke="black" stroke-width="2" stroke-linecap="round" stroke-linejoin="round"/>
<path d="M90.3334 12.5V19.5M84.5 21.8333V25.3333M77.5001 21.8333V25.3333M71.6667 12.5V19.5M78.6667 4.33333L76.9167 2M83.3334 4.33333L85.0834 2M74.5834 11.3333H87.4167M74.5834 10.75C74.5834 9.04818 75.2594 7.41608 76.4628 6.21272C77.6662 5.00937 79.2983 4.33333 81.0001 4.33333C82.7019 4.33333 84.334 5.00937 85.5373 6.21272C86.7407 7.41608 87.4167 9.04818 87.4167 10.75V18.3333C87.4167 19.983 87.4167 20.8078 86.9034 21.3199C86.3912 21.8333 85.5664 21.8333 83.9167 21.8333H78.0834C76.4337 21.8333 75.6089 21.8333 75.0967 21.3199C74.5834 20.8078 74.5834 19.983 74.5834 18.3333V10.75Z" stroke="black" stroke-width="2" stroke-linecap="round" stroke-linejoin="round"/>
<path d="M94.0935 26.0756H92.6667L95.8727 17.1665H97.4257L100.632 26.0756H99.2049L96.6862 18.7848H96.6166L94.0935 26.0756ZM94.3328 22.5868H98.9613V23.7178H94.3328V22.5868Z" fill="black"/>
<path d="M101.918 26.0756V17.1665H105.094C105.787 17.1665 106.361 17.2927 106.817 17.545C107.272 17.7973 107.613 18.1424 107.839 18.5803C108.065 19.0153 108.178 19.5054 108.178 20.0506C108.178 20.5988 108.064 21.0918 107.835 21.5297C107.608 21.9647 107.266 22.3098 106.808 22.565C106.353 22.8173 105.78 22.9435 105.09 22.9435H102.906V21.8037H104.968C105.406 21.8037 105.761 21.7283 106.034 21.5775C106.306 21.4238 106.506 21.215 106.634 20.9511C106.761 20.6872 106.825 20.3871 106.825 20.0506C106.825 19.7142 106.761 19.4155 106.634 19.1545C106.506 18.8935 106.305 18.689 106.029 18.5411C105.757 18.3932 105.397 18.3193 104.95 18.3193H103.263V26.0756H101.918Z" fill="black"/>
<path d="M109.754 26.0756V17.1665H111.098V21.4209H111.207L114.944 17.1665H116.636L113.043 21.1773L116.649 26.0756H115.031L112.151 22.0952L111.098 23.3045V26.0756H109.754Z" fill="black"/>
<g clip-path="url(#clip0_809_10148)">
<path d="M17.2727 5.81223C15.9867 7.11304 13.544 6.75423 13.544 6.75423C13.544 6.75423 13.1901 4.28702 14.4774 2.98621C15.7634 1.6866 18.2061 2.04541 18.2061 2.04541C18.2061 2.04541 18.56 4.51142 17.2727 5.81223ZM4.00006 16.4719C4.00006 20.4091 6.60781 24.9319 9.24762 25.8883C10.162 26.2196 11.1084 25.7623 11.8946 25.1923C12.4907 24.7603 13.2127 24.3487 13.7969 24.3487C14.3788 24.3487 15.1032 24.7603 15.6981 25.1923C16.4842 25.7623 17.4307 26.2196 18.3462 25.8883C20.2213 25.2091 22.0809 22.7287 23.0001 19.9363C21.2188 19.4203 19.9197 17.7931 19.9197 15.8647C19.9197 14.0983 21.011 12.5839 22.5631 11.9467C21.5632 10.1515 19.9292 9.19985 18.0826 9.19985C17.1279 9.19985 16.2491 9.58865 15.5414 10.0555C14.4085 10.7995 13.1842 10.7995 12.0525 10.0555C11.3436 9.58865 10.466 9.19985 9.51125 9.19985C6.4665 9.19985 4.00006 11.7859 4.00006 16.4719Z" stroke="black" stroke-width="2" stroke-linecap="round" stroke-linejoin="round"/>
</g>
<defs>
<clipPath id="clip0_809_10148">
<rect width="28" height="28" fill="white"/>
</clipPath>
</defs>
</svg>
