<svg width="32" height="32" viewBox="0 0 32 32" fill="none" xmlns="http://www.w3.org/2000/svg">
<path d="M10.6666 11.9998C10.6666 11.2635 11.2636 10.6665 12 10.6665L20 10.6665C20.7364 10.6665 21.3333 11.2635 21.3333 11.9998C21.3333 12.7362 20.7364 13.3332 20 13.3332L12 13.3332C11.2636 13.3332 10.6666 12.7362 10.6666 11.9998Z" fill="#009345"/>
<path d="M12 17.3332C11.2636 17.3332 10.6666 17.9301 10.6666 18.6665C10.6666 19.4029 11.2636 19.9998 12 19.9998L17.3333 19.9998C18.0697 19.9998 18.6666 19.4029 18.6666 18.6665C18.6666 17.9301 18.0697 17.3332 17.3333 17.3332L12 17.3332Z" fill="#009345"/>
<path fill-rule="evenodd" clip-rule="evenodd" d="M7.99998 2.6665C6.52722 2.6665 5.33331 3.86041 5.33331 5.33317L5.33331 26.6665C5.33331 28.1393 6.52722 29.3332 7.99998 29.3332L24 29.3332C25.4727 29.3332 26.6666 28.1393 26.6666 26.6665L26.6666 5.33317C26.6666 3.86041 25.4727 2.6665 24 2.6665L7.99998 2.6665ZM24 26.6665L24 5.33317L7.99998 5.33317L7.99998 26.6665L24 26.6665Z" fill="#009345"/>
</svg>
