<svg width="32" height="32" viewBox="0 0 32 32" fill="none" xmlns="http://www.w3.org/2000/svg">
<path d="M22.2329 9.68264C22.7764 10.1795 22.8141 11.0229 22.3172 11.5664L16.222 18.233C15.7328 18.7681 14.9056 18.8142 14.3599 18.3368L9.78852 14.3368C9.23433 13.8519 9.17818 13.0095 9.66309 12.4553C10.148 11.9012 10.9903 11.845 11.5445 12.3299L15.1342 15.4709L20.3492 9.76698C20.846 9.22351 21.6894 9.18575 22.2329 9.68264Z" fill="#121212"/>
<path fill-rule="evenodd" clip-rule="evenodd" d="M16.4182 0.0695055C16.1425 -0.0231999 15.8439 -0.0231677 15.5682 0.0695973L3.67829 4.0696C3.17309 4.23956 2.81765 4.69408 2.77449 5.22535C2.10364 13.4817 4.35219 24.8311 15.3823 30.5184C15.7641 30.7152 16.2172 30.7161 16.5997 30.5208C27.742 24.832 29.8906 13.473 29.2207 5.22539C29.1775 4.694 28.822 4.2394 28.3166 4.06951L16.4182 0.0695055ZM5.37403 6.31265L15.9935 2.74005L26.6215 6.31297C27.0203 13.7594 24.8728 22.9388 15.9965 27.8228C7.20376 22.9365 4.98164 13.7508 5.37403 6.31265Z" fill="#121212"/>
</svg>
