<svg width="111" height="24" viewBox="0 0 111 24" fill="none" xmlns="http://www.w3.org/2000/svg">
<circle cx="4" cy="4" r="4" fill="#0ABE98"/>
<circle cx="12" cy="4" r="4" fill="#28F3C8"/>
<circle cx="20" cy="4" r="4" fill="#7DFFE0"/>
<circle cx="4" cy="12" r="4" fill="#079270"/>
<circle cx="12" cy="12" r="4" fill="#0ABE98"/>
<circle cx="20" cy="12" r="4" fill="#28F3C8"/>
<circle cx="4" cy="20" r="4" fill="#046A51"/>
<circle cx="12" cy="20" r="4" fill="#079270"/>
<circle cx="20" cy="20" r="4" fill="#0ABE98"/>
<path d="M32.791 17.5V6.58691H36.9805C37.7666 6.58691 38.4209 6.71143 38.9434 6.96045C39.4658 7.20459 39.8564 7.5415 40.1152 7.97119C40.374 8.396 40.5034 8.87695 40.5034 9.41406C40.5034 9.8584 40.418 10.2393 40.2471 10.5566C40.0811 10.8691 39.854 11.123 39.5659 11.3184C39.2778 11.5137 38.9556 11.6553 38.5991 11.7432V11.853C38.9897 11.8677 39.3608 11.9849 39.7124 12.2046C40.0688 12.4194 40.3594 12.7222 40.584 13.1128C40.8135 13.5034 40.9282 13.9746 40.9282 14.5264C40.9282 15.0928 40.7915 15.6006 40.5181 16.0498C40.2495 16.4941 39.8394 16.8481 39.2876 17.1118C38.7407 17.3706 38.0498 17.5 37.2148 17.5H32.791ZM34.7686 15.8521H36.8926C37.6104 15.8521 38.1279 15.7129 38.4453 15.4346C38.7676 15.1562 38.9287 14.8022 38.9287 14.3726C38.9287 14.0454 38.8481 13.7524 38.687 13.4937C38.5259 13.2349 38.2964 13.0298 37.9985 12.8784C37.7056 12.7271 37.3589 12.6514 36.9585 12.6514H34.7686V15.8521ZM34.7686 11.2305H36.7314C37.0684 11.2305 37.3735 11.167 37.647 11.04C37.9204 10.9131 38.1353 10.7349 38.2915 10.5054C38.4526 10.271 38.5332 9.99512 38.5332 9.67773C38.5332 9.25781 38.3843 8.91113 38.0864 8.6377C37.7886 8.35938 37.3516 8.22021 36.7754 8.22021H34.7686V11.2305ZM42.4329 17.5V16.0791L46.2269 12.3584C46.5833 11.9922 46.8812 11.6675 47.1204 11.3843C47.3646 11.1011 47.5477 10.8276 47.6697 10.564C47.7918 10.2954 47.8528 10.0098 47.8528 9.70703C47.8528 9.36523 47.7747 9.06982 47.6185 8.8208C47.4622 8.57178 47.2474 8.38135 46.9739 8.24951C46.7054 8.11768 46.3978 8.05176 46.0511 8.05176C45.6897 8.05176 45.3748 8.125 45.1062 8.27148C44.8377 8.41797 44.6277 8.62549 44.4764 8.89404C44.3299 9.1626 44.2566 9.48242 44.2566 9.85352H42.3816C42.3816 9.16504 42.5379 8.56689 42.8504 8.05908C43.1678 7.54639 43.6048 7.14844 44.1614 6.86523C44.7181 6.58203 45.3553 6.44043 46.073 6.44043C46.8104 6.44043 47.4549 6.57715 48.0066 6.85059C48.5584 7.12402 48.9881 7.5 49.2957 7.97852C49.6033 8.45215 49.7571 8.99414 49.7571 9.60449C49.7571 10.0146 49.679 10.4175 49.5228 10.813C49.3665 11.2036 49.0906 11.6406 48.6951 12.124C48.3045 12.6025 47.7552 13.1812 47.0472 13.8599L45.1722 15.7715V15.8521H49.9183V17.5H42.4329ZM51.7672 17.5V6.58691H55.9566C56.7428 6.58691 57.3971 6.71143 57.9195 6.96045C58.442 7.20459 58.8326 7.5415 59.0914 7.97119C59.3502 8.396 59.4796 8.87695 59.4796 9.41406C59.4796 9.8584 59.3941 10.2393 59.2232 10.5566C59.0572 10.8691 58.8302 11.123 58.5421 11.3184C58.254 11.5137 57.9317 11.6553 57.5753 11.7432V11.853C57.9659 11.8677 58.337 11.9849 58.6886 12.2046C59.045 12.4194 59.3355 12.7222 59.5602 13.1128C59.7896 13.5034 59.9044 13.9746 59.9044 14.5264C59.9044 15.0928 59.7677 15.6006 59.4942 16.0498C59.2257 16.4941 58.8155 16.8481 58.2638 17.1118C57.7169 17.3706 57.026 17.5 56.191 17.5H51.7672ZM53.7447 15.8521H55.8687C56.5865 15.8521 57.1041 15.7129 57.4215 15.4346C57.7437 15.1562 57.9049 14.8022 57.9049 14.3726C57.9049 14.0454 57.8243 13.7524 57.6632 13.4937C57.5021 13.2349 57.2726 13.0298 56.9747 12.8784C56.6817 12.7271 56.3351 12.6514 55.9347 12.6514H53.7447V15.8521ZM53.7447 11.2305H55.7076C56.0445 11.2305 56.3497 11.167 56.6231 11.04C56.8966 10.9131 57.1114 10.7349 57.2677 10.5054C57.4288 10.271 57.5094 9.99512 57.5094 9.67773C57.5094 9.25781 57.3604 8.91113 57.0626 8.6377C56.7647 8.35938 56.3277 8.22021 55.7516 8.22021H53.7447V11.2305ZM61.5189 17.5V6.58691H65.6132C66.453 6.58691 67.1562 6.7334 67.7226 7.02637C68.2938 7.31934 68.726 7.72949 69.0189 8.25684C69.3119 8.7793 69.4584 9.38721 69.4584 10.0806C69.4584 10.7788 69.3095 11.3843 69.0116 11.897C68.7187 12.4097 68.2841 12.8052 67.7079 13.0835C67.1317 13.3618 66.4237 13.501 65.5839 13.501H62.6762V11.8677H65.3129C65.8061 11.8677 66.2089 11.7993 66.5214 11.6626C66.8388 11.5259 67.0707 11.3257 67.2172 11.062C67.3686 10.7935 67.4442 10.4663 67.4442 10.0806C67.4442 9.69482 67.3686 9.36523 67.2172 9.0918C67.0658 8.81348 66.8339 8.60352 66.5214 8.46191C66.2089 8.31543 65.8036 8.24219 65.3056 8.24219H63.4965V17.5H61.5189ZM67.6493 17.5L65.0053 12.5488H67.1586L69.8612 17.5H67.6493ZM75.9143 17.6465C74.9621 17.6465 74.1052 17.4243 73.3435 16.98C72.5866 16.5356 71.9885 15.896 71.549 15.061C71.1145 14.2261 70.8972 13.2227 70.8972 12.0508C70.8972 10.874 71.1145 9.86816 71.549 9.0332C71.9885 8.19336 72.5866 7.55127 73.3435 7.10693C74.1052 6.6626 74.9621 6.44043 75.9143 6.44043C76.8713 6.44043 77.7258 6.6626 78.4777 7.10693C79.2297 7.55127 79.8254 8.19336 80.2648 9.0332C80.7043 9.86816 80.924 10.874 80.924 12.0508C80.924 13.2227 80.7043 14.2261 80.2648 15.061C79.8254 15.896 79.2297 16.5356 78.4777 16.98C77.7258 17.4243 76.8713 17.6465 75.9143 17.6465ZM75.9143 15.874C76.5051 15.874 77.0275 15.7275 77.4816 15.4346C77.9357 15.1416 78.2922 14.7119 78.551 14.1455C78.8098 13.5742 78.9392 12.876 78.9392 12.0508C78.9392 11.2207 78.8098 10.52 78.551 9.94873C78.2922 9.37744 77.9357 8.94531 77.4816 8.65234C77.0275 8.35938 76.5051 8.21289 75.9143 8.21289C75.3234 8.21289 74.7985 8.35938 74.3396 8.65234C73.8854 8.94531 73.529 9.37744 73.2702 9.94873C73.0114 10.52 72.882 11.2207 72.882 12.0508C72.882 12.876 73.0114 13.5742 73.2702 14.1455C73.529 14.7119 73.8854 15.1416 74.3396 15.4346C74.7985 15.7275 75.3234 15.874 75.9143 15.874ZM82.6777 17.5V6.58691H84.6553V11.604H84.7871L89.0498 6.58691H91.4595L87.2407 11.4868L91.4961 17.5H89.1157L85.8638 12.8271L84.6553 14.2554V17.5H82.6777ZM92.7225 17.5V6.58691H99.827V8.24219H94.7V11.1719H99.4461V12.8052H94.7V15.8447H99.8563V17.5H92.7225ZM101.727 17.5V6.58691H105.821C106.661 6.58691 107.364 6.7334 107.931 7.02637C108.502 7.31934 108.934 7.72949 109.227 8.25684C109.52 8.7793 109.667 9.38721 109.667 10.0806C109.667 10.7788 109.518 11.3843 109.22 11.897C108.927 12.4097 108.492 12.8052 107.916 13.0835C107.34 13.3618 106.632 13.501 105.792 13.501H102.884V11.8677H105.521C106.014 11.8677 106.417 11.7993 106.73 11.6626C107.047 11.5259 107.279 11.3257 107.425 11.062C107.577 10.7935 107.652 10.4663 107.652 10.0806C107.652 9.69482 107.577 9.36523 107.425 9.0918C107.274 8.81348 107.042 8.60352 106.73 8.46191C106.417 8.31543 106.012 8.24219 105.514 8.24219H103.705V17.5H101.727ZM107.858 17.5L105.213 12.5488H107.367L110.069 17.5H107.858Z" fill="#2A2A2A"/>
</svg>
