<svg width="129" height="40" viewBox="0 0 129 40" fill="none" xmlns="http://www.w3.org/2000/svg">
<g clip-path="url(#clip0_6066_34895)">
<circle cx="3.79674" cy="13.6741" r="3.16295" fill="#1F2228"/>
<circle cx="10.1229" cy="13.6741" r="3.16295" fill="#1F2228"/>
<circle cx="16.4484" cy="13.6741" r="3.16295" fill="#1F2228"/>
<circle cx="3.79674" cy="20" r="3.16295" fill="#1F2228"/>
<circle cx="3.79674" cy="26.3259" r="3.16295" fill="#1F2228"/>
<circle cx="10.1229" cy="26.3259" r="3.16295" fill="#1F2228"/>
<circle cx="16.4484" cy="26.3259" r="3.16295" fill="#1F2228"/>
</g>
<path d="M28.79 26V13.9188H33.4279C34.2981 13.9188 35.0225 14.0567 35.6008 14.3324C36.1792 14.6026 36.6117 14.9756 36.8981 15.4513C37.1846 15.9216 37.3279 16.454 37.3279 17.0486C37.3279 17.5405 37.2333 17.9621 37.0441 18.3135C36.8603 18.6594 36.609 18.9405 36.29 19.1567C35.9711 19.3729 35.6144 19.5297 35.2198 19.627V19.7486C35.6522 19.7648 36.063 19.8946 36.4522 20.1378C36.8468 20.3756 37.1684 20.7108 37.4171 21.1432C37.6711 21.5756 37.7982 22.0973 37.7982 22.7081C37.7982 23.3351 37.6468 23.8973 37.3441 24.3946C37.0468 24.8865 36.5927 25.2784 35.9819 25.5703C35.3765 25.8568 34.6116 26 33.6873 26H28.79ZM30.9792 24.1757H33.3306C34.1252 24.1757 34.6981 24.0216 35.0495 23.7135C35.4062 23.4054 35.5846 23.0135 35.5846 22.5378C35.5846 22.1757 35.4954 21.8513 35.3171 21.5648C35.1387 21.2783 34.8846 21.0513 34.5549 20.8838C34.2306 20.7162 33.8468 20.6324 33.4035 20.6324H30.9792V24.1757ZM30.9792 19.0594H33.1522C33.5252 19.0594 33.863 18.9891 34.1657 18.8486C34.4684 18.7081 34.7062 18.5108 34.8792 18.2567C35.0576 17.9972 35.1468 17.6918 35.1468 17.3405C35.1468 16.8756 34.9819 16.4918 34.6522 16.1891C34.3225 15.881 33.8387 15.727 33.2008 15.727H30.9792V19.0594ZM38.9657 26V24.427L43.1658 20.3081C43.5604 19.9027 43.8901 19.5432 44.1549 19.2297C44.4252 18.9162 44.6279 18.6135 44.7631 18.3216C44.8982 18.0243 44.9658 17.7081 44.9658 17.3729C44.9658 16.9945 44.8793 16.6675 44.7063 16.3918C44.5333 16.1162 44.2955 15.9053 43.9928 15.7594C43.6955 15.6134 43.3549 15.5405 42.9712 15.5405C42.5712 15.5405 42.2225 15.6216 41.9252 15.7837C41.6279 15.9459 41.3955 16.1756 41.2279 16.4729C41.0657 16.7702 40.9847 17.1243 40.9847 17.5351H38.909C38.909 16.7729 39.0819 16.1107 39.4279 15.5486C39.7792 14.981 40.263 14.5405 40.8793 14.227C41.4955 13.9134 42.2009 13.7567 42.9955 13.7567C43.8117 13.7567 44.5252 13.908 45.136 14.2107C45.7469 14.5134 46.2225 14.9297 46.5631 15.4594C46.9036 15.9837 47.0739 16.5837 47.0739 17.2594C47.0739 17.7135 46.9874 18.1594 46.8144 18.5973C46.6415 19.0297 46.336 19.5135 45.8982 20.0486C45.4658 20.5783 44.8577 21.2189 44.0739 21.9702L41.9982 24.0865V24.1757H47.2523V26H38.9657ZM54.0307 26.1622C52.9712 26.1622 52.0226 25.9162 51.1847 25.4243C50.3523 24.9324 49.6955 24.2243 49.2144 23.3C48.7388 22.3757 48.5009 21.2648 48.5009 19.9675C48.5009 18.6648 48.7415 17.5513 49.2225 16.627C49.709 15.6972 50.3685 14.9864 51.2009 14.4945C52.0388 14.0026 52.982 13.7567 54.0307 13.7567C54.6956 13.7567 55.3172 13.8513 55.8956 14.0405C56.4794 14.2297 56.9983 14.508 57.4523 14.8756C57.9064 15.2378 58.2767 15.6837 58.5631 16.2135C58.855 16.7378 59.0469 17.3351 59.1388 18.0054H56.9334C56.8739 17.6378 56.7577 17.3135 56.5848 17.0324C56.4172 16.7513 56.2064 16.5135 55.9523 16.3189C55.7037 16.1189 55.4199 15.9702 55.101 15.8729C54.782 15.7702 54.4388 15.7189 54.0712 15.7189C53.4118 15.7189 52.828 15.8837 52.3199 16.2135C51.8118 16.5378 51.4145 17.0189 51.128 17.6567C50.8415 18.2891 50.6982 19.0594 50.6982 19.9675C50.6982 20.8865 50.8415 21.6621 51.128 22.2946C51.4199 22.9216 51.8172 23.3973 52.3199 23.7216C52.828 24.0405 53.4091 24.2 54.0631 24.2C54.4253 24.2 54.7631 24.154 55.0766 24.0621C55.3902 23.9649 55.6739 23.8216 55.928 23.6324C56.1875 23.4378 56.401 23.2054 56.5685 22.9351C56.7415 22.6594 56.8631 22.3432 56.9334 21.9865H59.1388C59.0577 22.5648 58.8794 23.1081 58.6037 23.6162C58.3334 24.1189 57.9767 24.5622 57.5334 24.9459C57.0956 25.3243 56.5821 25.6216 55.9929 25.8378C55.4037 26.0541 54.7496 26.1622 54.0307 26.1622ZM65.7956 26.1622C64.7416 26.1622 63.7929 25.9162 62.9497 25.4243C62.1118 24.9324 61.4497 24.2243 60.9632 23.3C60.4821 22.3757 60.2415 21.2648 60.2415 19.9675C60.2415 18.6648 60.4821 17.5513 60.9632 16.627C61.4497 15.6972 62.1118 14.9864 62.9497 14.4945C63.7929 14.0026 64.7416 13.7567 65.7956 13.7567C66.8551 13.7567 67.801 14.0026 68.6335 14.4945C69.4659 14.9864 70.1254 15.6972 70.6119 16.627C71.0984 17.5513 71.3416 18.6648 71.3416 19.9675C71.3416 21.2648 71.0984 22.3757 70.6119 23.3C70.1254 24.2243 69.4659 24.9324 68.6335 25.4243C67.801 25.9162 66.8551 26.1622 65.7956 26.1622ZM65.7956 24.2C66.4497 24.2 67.0281 24.0378 67.5308 23.7135C68.0335 23.3892 68.4281 22.9135 68.7146 22.2865C69.0011 21.654 69.1443 20.881 69.1443 19.9675C69.1443 19.0486 69.0011 18.2729 68.7146 17.6405C68.4281 17.0081 68.0335 16.5297 67.5308 16.2053C67.0281 15.881 66.4497 15.7189 65.7956 15.7189C65.1416 15.7189 64.5605 15.881 64.0524 16.2053C63.5497 16.5297 63.1551 17.0081 62.8686 17.6405C62.5821 18.2729 62.4388 19.0486 62.4388 19.9675C62.4388 20.881 62.5821 21.654 62.8686 22.2865C63.1551 22.9135 63.5497 23.3892 64.0524 23.7135C64.5605 24.0378 65.1416 24.2 65.7956 24.2ZM82.7255 13.9188V26H80.7633L75.0795 17.7702H74.9741V26H72.7849V13.9188H74.747L80.4309 22.1486H80.5363V13.9188H82.7255ZM94.4174 13.9188V26H92.4553L86.7714 17.7702H86.666V26H84.4768V13.9188H86.439L92.1228 22.1486H92.2282V13.9188H94.4174ZM96.1688 26V13.9188H104.034V15.7513H98.358V18.9946H103.612V20.8027H98.358V24.1676H104.066V26H96.1688ZM110.869 26.1622C109.809 26.1622 108.861 25.9162 108.023 25.4243C107.19 24.9324 106.534 24.2243 106.053 23.3C105.577 22.3757 105.339 21.2648 105.339 19.9675C105.339 18.6648 105.58 17.5513 106.061 16.627C106.547 15.6972 107.207 14.9864 108.039 14.4945C108.877 14.0026 109.82 13.7567 110.869 13.7567C111.534 13.7567 112.155 13.8513 112.734 14.0405C113.318 14.2297 113.836 14.508 114.291 14.8756C114.745 15.2378 115.115 15.6837 115.401 16.2135C115.693 16.7378 115.885 17.3351 115.977 18.0054H113.772C113.712 17.6378 113.596 17.3135 113.423 17.0324C113.255 16.7513 113.045 16.5135 112.791 16.3189C112.542 16.1189 112.258 15.9702 111.939 15.8729C111.62 15.7702 111.277 15.7189 110.909 15.7189C110.25 15.7189 109.666 15.8837 109.158 16.2135C108.65 16.5378 108.253 17.0189 107.966 17.6567C107.68 18.2891 107.536 19.0594 107.536 19.9675C107.536 20.8865 107.68 21.6621 107.966 22.2946C108.258 22.9216 108.655 23.3973 109.158 23.7216C109.666 24.0405 110.247 24.2 110.901 24.2C111.263 24.2 111.601 24.154 111.915 24.0621C112.228 23.9649 112.512 23.8216 112.766 23.6324C113.026 23.4378 113.239 23.2054 113.407 22.9351C113.58 22.6594 113.701 22.3432 113.772 21.9865H115.977C115.896 22.5648 115.718 23.1081 115.442 23.6162C115.172 24.1189 114.815 24.5622 114.372 24.9459C113.934 25.3243 113.42 25.6216 112.831 25.8378C112.242 26.0541 111.588 26.1622 110.869 26.1622ZM116.853 15.7513V13.9188H126.485V15.7513H122.755V26H120.591V15.7513H116.853Z" fill="#1F2228"/>
<defs>
<clipPath id="clip0_6066_34895">
<rect width="18.9777" height="18.9777" fill="white" transform="translate(0.633789 10.5111)"/>
</clipPath>
</defs>
</svg>
