<svg width="25" height="25" viewBox="0 0 25 25" fill="none" xmlns="http://www.w3.org/2000/svg">
<g clip-path="url(#clip0_6066_35089)">
<path fill-rule="evenodd" clip-rule="evenodd" d="M4.1849 9.50064C3.12067 8.78546 2.5 7.92535 2.5 7C2.5 4.51472 6.97715 2.5 12.5 2.5C18.0228 2.5 22.5 4.51472 22.5 7C22.5 7.92535 21.8793 8.78546 20.8151 9.50064C20.4034 9.77734 19.9252 10.0323 19.3909 10.261C19.0638 10.4011 18.7156 10.5313 18.3486 10.6505C17.6156 10.8887 16.808 11.0833 15.9446 11.2259C15.0744 11.3696 14.1476 11.4604 13.1833 11.4897C12.9575 11.4965 12.7296 11.5 12.5 11.5C12.2703 11.5 12.0424 11.4965 11.8165 11.4897C10.8524 11.4604 9.92566 11.3696 9.05563 11.2259C8.19211 11.0834 7.38443 10.8887 6.65137 10.6505C6.28446 10.5313 5.93624 10.4011 5.60908 10.261C5.0748 10.0324 4.59665 9.77734 4.1849 9.50064ZM12.5 9.5C18 9.5 20.5 7.5 20.5 7C20.5 6.5 18 4.5 12.5 4.5C7 4.5 4.5 6.5 4.5 7C4.5 7.5 7 9.5 12.5 9.5Z" fill="white"/>
<path d="M4.3828 11.6034C4.34328 11.5673 4.29702 11.5386 4.24685 11.5207L4.23798 11.5176C4.21088 11.5087 4.18271 11.503 4.15391 11.5009C4.14587 11.5003 4.13778 11.5 4.12966 11.5H3.61286C2.803 11.5 2.16736 12.1855 2.69047 12.7827C2.91082 13.0343 3.19417 13.2746 3.53327 13.5009C3.55947 13.5184 3.586 13.5358 3.61286 13.5532C3.77357 13.6568 3.94608 13.7573 4.12966 13.8546C4.52269 14.0628 4.96649 14.2557 5.45402 14.4308C5.8128 14.5596 6.19528 14.6787 6.59863 14.787C8.27283 15.2365 10.3068 15.5 12.5 15.5C14.6932 15.5 16.7272 15.2365 18.4014 14.787C18.8047 14.6787 19.1872 14.5596 19.546 14.4308C20.0335 14.2557 20.4773 14.0628 20.8703 13.8546C21.0539 13.7573 21.2264 13.6568 21.3871 13.5532C21.414 13.5358 21.4405 13.5184 21.4667 13.5009C21.8058 13.2746 22.0892 13.0343 22.3095 12.7827C22.8326 12.1855 22.197 11.5 21.3871 11.5H20.8703C20.8622 11.5 20.8541 11.5003 20.8461 11.5009C20.8173 11.503 20.7891 11.5087 20.762 11.5176L20.7531 11.5207C20.703 11.5386 20.6567 11.5673 20.6172 11.6034C20.3469 11.8504 19.8445 12.1649 19.0521 12.4711C18.2877 12.7665 17.3481 13.0176 16.2786 13.1978C15.354 13.3536 14.3322 13.4564 13.2426 13.4888C12.9984 13.496 12.7507 13.4998 12.5 13.4998C12.2492 13.4998 12.0015 13.496 11.7572 13.4888C10.6677 13.4564 9.64616 13.3536 8.72164 13.1979C7.65204 13.0177 6.71237 12.7665 5.94791 12.4711C5.15547 12.1649 4.65315 11.8504 4.3828 11.6034Z" fill="white"/>
<path d="M21.3871 15.5C21.5602 15.5 21.7254 15.5313 21.8729 15.5864C22.4158 15.789 22.7208 16.3132 22.3095 16.7827C22.0892 17.0343 21.8058 17.2746 21.4667 17.5009C21.4405 17.5184 21.414 17.5358 21.3871 17.5532C21.2264 17.6568 21.0539 17.7573 20.8703 17.8546C20.4773 18.0628 20.0335 18.2557 19.546 18.4308C19.1872 18.5596 18.8047 18.6787 18.4014 18.787C16.7272 19.2365 14.6932 19.5 12.5 19.5C10.3068 19.5 8.27283 19.2365 6.59863 18.787C6.19528 18.6787 5.8128 18.5596 5.45402 18.4308C4.96649 18.2557 4.52269 18.0628 4.12966 17.8546C3.94608 17.7573 3.77357 17.6568 3.61286 17.5532C3.586 17.5358 3.55947 17.5184 3.53327 17.5009C3.19417 17.2746 2.91082 17.0343 2.69047 16.7827C2.27917 16.3132 2.58422 15.789 3.12706 15.5864C3.27463 15.5313 3.43976 15.5 3.61286 15.5H4.12966C4.13778 15.5 4.14587 15.5003 4.15391 15.5009C4.18271 15.503 4.21088 15.5087 4.23798 15.5176L4.24685 15.5207C4.29702 15.5386 4.34328 15.5673 4.3828 15.6034C4.65315 15.8504 5.15547 16.1649 5.94791 16.4711C7.5213 17.079 9.83692 17.4998 12.5 17.4998C15.1631 17.4998 17.4787 17.079 19.0521 16.4711C19.8445 16.1649 20.3469 15.8504 20.6172 15.6034C20.6567 15.5673 20.703 15.5386 20.7531 15.5207L20.762 15.5176C20.7891 15.5087 20.8173 15.503 20.8461 15.5009C20.8541 15.5003 20.8622 15.5 20.8703 15.5H21.3871Z" fill="white"/>
<path d="M22.3095 20.7827C22.7208 20.3132 22.4158 19.789 21.8729 19.5864C21.7254 19.5313 21.5602 19.5 21.3871 19.5H20.8703C20.8622 19.5 20.8541 19.5003 20.8461 19.5009C20.8173 19.503 20.7891 19.5087 20.762 19.5176L20.7531 19.5207C20.703 19.5386 20.6567 19.5673 20.6172 19.6034C20.6172 19.6034 19.8445 20.1649 19.0521 20.4711C17.5463 21.0529 15.3607 21.4633 12.8413 21.4974C12.7282 21.499 12.6144 21.4998 12.5 21.4998C9.83692 21.4998 7.5213 21.079 5.94791 20.4711C5.15547 20.1649 4.65315 19.8504 4.3828 19.6034C4.34329 19.5673 4.29702 19.5386 4.24686 19.5207L4.23798 19.5176C4.21088 19.5087 4.18271 19.503 4.15391 19.5009C4.14587 19.5003 4.13778 19.5 4.12966 19.5H3.61286C3.43976 19.5 3.27463 19.5313 3.12706 19.5864C2.58422 19.789 2.27917 20.3132 2.69047 20.7827C4.07442 22.3627 7.94348 23.5 12.5 23.5C17.0565 23.5 20.9256 22.3627 22.3095 20.7827Z" fill="white"/>
</g>
<defs>
<clipPath id="clip0_6066_35089">
<rect width="24" height="24" fill="white" transform="translate(0.5 0.5)"/>
</clipPath>
</defs>
</svg>
