<svg width="32" height="32" viewBox="0 0 32 32" fill="none" xmlns="http://www.w3.org/2000/svg">
<path d="M10.6665 4C9.93012 4 9.33317 4.59695 9.33317 5.33333C9.33317 6.06971 9.93012 6.66667 10.6665 6.66667L27.9998 6.66667C28.7362 6.66667 29.3332 6.06971 29.3332 5.33333C29.3332 4.59695 28.7362 4 27.9998 4L10.6665 4Z" fill="#121212"/>
<path d="M10.6665 14.6667C9.93012 14.6667 9.33317 15.2636 9.33317 16C9.33317 16.7364 9.93012 17.3333 10.6665 17.3333L27.9998 17.3333C28.7362 17.3333 29.3332 16.7364 29.3332 16C29.3332 15.2636 28.7362 14.6667 27.9998 14.6667L10.6665 14.6667Z" fill="#121212"/>
<path d="M9.33317 26.6667C9.33317 25.9303 9.93012 25.3333 10.6665 25.3333H27.9998C28.7362 25.3333 29.3332 25.9303 29.3332 26.6667C29.3332 27.403 28.7362 28 27.9998 28H10.6665C9.93012 28 9.33317 27.403 9.33317 26.6667Z" fill="#121212"/>
<path d="M3.33317 4C2.96498 4 2.6665 4.29848 2.6665 4.66667V6C2.6665 6.36819 2.96498 6.66667 3.33317 6.66667H4.6665C5.03469 6.66667 5.33317 6.36819 5.33317 6V4.66667C5.33317 4.29848 5.03469 4 4.6665 4H3.33317Z" fill="#121212"/>
<path d="M2.6665 15.3333C2.6665 14.9651 2.96498 14.6667 3.33317 14.6667H4.6665C5.03469 14.6667 5.33317 14.9651 5.33317 15.3333V16.6667C5.33317 17.0349 5.03469 17.3333 4.6665 17.3333H3.33317C2.96498 17.3333 2.6665 17.0349 2.6665 16.6667V15.3333Z" fill="#121212"/>
<path d="M3.33317 25.3333C2.96498 25.3333 2.6665 25.6318 2.6665 26V27.3333C2.6665 27.7015 2.96498 28 3.33317 28H4.6665C5.03469 28 5.33317 27.7015 5.33317 27.3333V26C5.33317 25.6318 5.03469 25.3333 4.6665 25.3333H3.33317Z" fill="#121212"/>
</svg>
