<svg width="24" height="25" viewBox="0 0 24 25" fill="none" xmlns="http://www.w3.org/2000/svg">
<g clip-path="url(#clip0_6066_35033)">
<path fill-rule="evenodd" clip-rule="evenodd" d="M10 4.5H14V8.5H10V4.5ZM8 4.5C8 3.39543 8.89543 2.5 10 2.5H14C15.1046 2.5 16 3.39543 16 4.5V8.5C16 9.60457 15.1046 10.5 14 10.5H13V12.5H19C19.5523 12.5 20 12.9477 20 13.5V15.5H21C22.1046 15.5 23 16.3954 23 17.5V21.5C23 22.6046 22.1046 23.5 21 23.5H17C15.8954 23.5 15 22.6046 15 21.5V17.5C15 16.3954 15.8954 15.5 17 15.5H18V14.5H12H6V15.5H7C8.10457 15.5 9 16.3954 9 17.5V21.5C9 22.6046 8.10457 23.5 7 23.5H3C1.89543 23.5 1 22.6046 1 21.5V17.5C1 16.3954 1.89543 15.5 3 15.5H4V13.5C4 13.2348 4.10536 12.9804 4.29289 12.7929C4.48043 12.6054 5.73478 12.5 6 12.5H11V10.5H10C8.89543 10.5 8 9.60457 8 8.5V4.5ZM3 17.5V21.5H7V17.5H5H3ZM17 21.5V17.5H19H21V21.5H17Z" fill="white"/>
</g>
<defs>
<clipPath id="clip0_6066_35033">
<rect width="24" height="24" fill="white" transform="translate(0 0.5)"/>
</clipPath>
</defs>
</svg>
