<svg width="24" height="25" viewBox="0 0 24 25" fill="none" xmlns="http://www.w3.org/2000/svg">
<g clip-path="url(#clip0_6066_35061)">
<path fill-rule="evenodd" clip-rule="evenodd" d="M2 4.5C2 3.39543 2.89543 2.5 4 2.5L9 2.5C10.1046 2.5 11 3.39543 11 4.5V9.5C11 10.6046 10.1046 11.5 9 11.5H4C2.89543 11.5 2 10.6046 2 9.5L2 4.5ZM4 4.5L9 4.5V9.5H4L4 4.5Z" fill="white"/>
<path fill-rule="evenodd" clip-rule="evenodd" d="M2 15.5C2 14.3954 2.89543 13.5 4 13.5H9C10.1046 13.5 11 14.3954 11 15.5V20.5C11 21.6046 10.1046 22.5 9 22.5H4C2.89543 22.5 2 21.6046 2 20.5L2 15.5ZM4 15.5H9V20.5H4L4 15.5Z" fill="white"/>
<path fill-rule="evenodd" clip-rule="evenodd" d="M13 15.5C13 14.3954 13.8954 13.5 15 13.5H20C21.1046 13.5 22 14.3954 22 15.5L22 20.5C22 21.6046 21.1046 22.5 20 22.5L15 22.5C13.8954 22.5 13 21.6046 13 20.5V15.5ZM15 15.5H20L20 20.5L15 20.5V15.5Z" fill="white"/>
<path d="M18.5 3.5C18.5 2.94772 18.0523 2.5 17.5 2.5C16.9477 2.5 16.5 2.94772 16.5 3.5V6H14C13.4477 6 13 6.44772 13 7C13 7.55228 13.4477 8 14 8H16.5V10.5C16.5 11.0523 16.9477 11.5 17.5 11.5C18.0523 11.5 18.5 11.0523 18.5 10.5V8L21 8C21.5523 8 22 7.55228 22 7C22 6.44772 21.5523 6 21 6H18.5V3.5Z" fill="white"/>
</g>
<defs>
<clipPath id="clip0_6066_35061">
<rect width="24" height="24" fill="white" transform="translate(0 0.5)"/>
</clipPath>
</defs>
</svg>
