<svg width="32" height="32" viewBox="0 0 32 32" fill="none" xmlns="http://www.w3.org/2000/svg">
<path fill-rule="evenodd" clip-rule="evenodd" d="M9.33317 10.6666C9.33317 9.19383 10.5271 7.99992 11.9998 7.99992L26.6665 7.99992C28.1393 7.99992 29.3332 9.19383 29.3332 10.6666L29.3332 26.6666C29.3332 28.1393 28.1393 29.3333 26.6665 29.3333L11.9998 29.3333C10.5271 29.3333 9.33317 28.1393 9.33317 26.6666L9.33317 10.6666ZM11.9998 10.6666L26.6665 10.6666L26.6665 26.6666L11.9998 26.6666L11.9998 10.6666Z" fill="#121212"/>
<path d="M5.33317 1.33325C3.99984 1.33325 2.6665 2.66659 2.6665 3.99992L2.66651 19.9999C2.6665 20.7363 3.26346 21.3333 3.99984 21.3333C4.73622 21.3333 5.33317 20.7363 5.33317 19.9999L5.33317 5.99992C5.33317 3.99992 5.33317 3.99992 7.33317 3.99992L19.9998 3.99992C20.7362 3.99992 21.3332 3.40297 21.3332 2.66659C21.3332 1.93021 20.7362 1.33325 19.9998 1.33325L5.33317 1.33325Z" fill="#121212"/>
</svg>
