<svg width="56" height="57" viewBox="0 0 56 57" fill="none" xmlns="http://www.w3.org/2000/svg">
<rect x="19" y="21.8027" width="27.5205" height="27.5205" rx="2" fill="white" stroke="#C8CAD9" stroke-width="2" stroke-linecap="square"/>
<rect x="12" y="16.8027" width="27.5205" height="27.5205" rx="2" fill="white" stroke="#C8CAD9" stroke-width="2" stroke-linecap="square"/>
<rect x="6" y="11.8027" width="27.5205" height="27.5205" rx="1" fill="white" stroke="#1F2228" stroke-width="2" stroke-linecap="square"/>
<path d="M20 25.3027C20.5325 25.3027 21.053 25.1414 21.4958 24.8393C21.9385 24.5371 22.2836 24.1076 22.4874 23.6051C22.6911 23.1026 22.7445 22.5497 22.6406 22.0162C22.5367 21.4828 22.2803 20.9928 21.9037 20.6082C21.5272 20.2236 21.0475 19.9617 20.5252 19.8556C20.003 19.7495 19.4617 19.8039 18.9697 20.0121C18.4777 20.2202 18.0573 20.5727 17.7614 21.0249C17.4656 21.4772 17.3077 22.0088 17.3077 22.5527C17.3077 23.2821 17.5913 23.9816 18.0963 24.4973C18.6012 25.013 19.286 25.3027 20 25.3027ZM20 26.0884C18.3313 26.0884 15 27.1413 15 29.2313C15 30.0992 15.7036 30.8027 16.5714 30.8027H23.4286C24.2964 30.8027 25 30.0992 25 29.2313C25 27.1413 21.6688 26.0884 20 26.0884Z" fill="#1F2228"/>
<circle cx="46" cy="17.8027" r="7" fill="#1F2228"/>
<rect x="45" y="14.8027" width="2" height="6" fill="white"/>
<rect x="49" y="16.8027" width="2" height="6" transform="rotate(90 49 16.8027)" fill="white"/>
</svg>
