<svg width="56" height="57" viewBox="0 0 56 57" fill="none" xmlns="http://www.w3.org/2000/svg">
<circle cx="30" cy="16.8027" r="10" fill="#1F2228" stroke="#1F2228" stroke-width="2" stroke-linecap="square"/>
<circle cx="17" cy="16.8027" r="10" fill="#1F2228" stroke="#1F2228" stroke-width="2" stroke-linecap="square"/>
<circle cx="19" cy="16.8027" r="10" fill="white" stroke="#1F2228" stroke-width="2" stroke-linecap="square"/>
<path fill-rule="evenodd" clip-rule="evenodd" d="M19.5503 11.1627C19.5503 10.9639 19.385 10.8027 19.181 10.8027H18.4425C18.2385 10.8027 18.0732 10.9639 18.0732 11.1627V11.9911L15.3693 12.0061C15.1653 12.0072 15.0009 12.1692 15.002 12.368L15.006 13.088C15.0071 13.2868 15.1733 13.4471 15.3772 13.4461L16.23 13.4416V20.1647H15.3693C15.1653 20.1647 15 20.3259 15 20.5247V21.2447C15 21.4435 15.1653 21.6047 15.3693 21.6047L18.0732 21.6045V22.4427C18.0732 22.6416 18.2385 22.8027 18.4425 22.8027H19.181C19.385 22.8027 19.5503 22.6416 19.5503 22.4427V21.6045H19.7996C20.4946 21.6046 21.2975 21.4715 21.941 20.9913C22.6208 20.4841 23 19.6834 23 18.6117C23 18.0156 22.7829 17.3604 22.2252 16.856C22.1051 16.7474 21.9731 16.6492 21.8293 16.5619C22.2677 16.064 22.5066 15.3842 22.5066 14.5336C22.5066 13.9375 22.2895 13.2822 21.7318 12.7779C21.2184 12.3136 20.4865 12.0398 19.5503 11.9918V11.1627ZM17.7071 16.0632V13.4338L19.3039 13.4245C20.0967 13.434 20.5142 13.6409 20.7272 13.8336C20.9388 14.0249 21.0295 14.2744 21.0295 14.5336C21.0295 15.2523 20.7932 15.5881 20.5498 15.7697C20.346 15.9217 20.0994 16.0627 19.7177 16.0627L17.7071 16.0632ZM17.7071 20.1647V17.5032L19.7996 17.5027C20.5909 17.5126 21.0078 17.7192 21.2206 17.9117C21.4322 18.1031 21.5229 18.3525 21.5229 18.6117C21.5229 19.3304 21.2867 19.6662 21.0433 19.8478C20.7636 20.0565 20.3355 20.1646 19.7996 20.1645L17.7071 20.1647Z" fill="#C8CAD9"/>
<circle cx="39" cy="41.8027" r="10" fill="white" stroke="#C8CAD9" stroke-width="2" stroke-linecap="square"/>
<path d="M39.3252 39.5073L41.8322 42.0143L39.3252 44.5214L36.8182 42.0143L39.3252 39.5073Z" fill="#1F2228"/>
</svg>
