<svg width="24" height="25" viewBox="0 0 24 25" fill="none" xmlns="http://www.w3.org/2000/svg">
<g clip-path="url(#clip0_6066_35040)">
<g clip-path="url(#clip1_6066_35040)">
<path fill-rule="evenodd" clip-rule="evenodd" d="M7.06005 4.01493C7.28264 3.12459 8.0826 2.5 9.00034 2.5H15.0003C15.9181 2.5 16.718 3.12459 16.9406 4.01493L18.9406 9.01493C19.2562 10.2772 18.3015 11.5 17.0003 11.5H7.00133C5.70018 11.5 4.74547 10.2772 5.06104 9.01493L7.06005 4.01493ZM15.0003 4.5L9.00034 4.5L7.00133 9.5H17.0003L15.0003 4.5Z" fill="white"/>
<path fill-rule="evenodd" clip-rule="evenodd" d="M1.45726 15.0532C1.67006 14.1444 2.49629 13.5 3.44892 13.5H9C9.9376 13.5 10.7549 14.1246 10.9823 15.0149L12 18.5L13.0177 15.0149C13.2451 14.1246 14.0624 13.5 15 13.5H20.5511C21.5037 13.5 22.3299 14.1444 22.5427 15.0532L23.9475 20.0532C24.2407 21.3057 23.2686 22.5 21.9558 22.5H2.04416C0.731432 22.5 -0.240731 21.3057 0.0525022 20.0532L1.45726 15.0532ZM11 20.5L9 15.5H3.44892L2 20.5H11ZM13 20.5L15 15.5H20.5511L22.0087 20.5H13Z" fill="white"/>
</g>
</g>
<defs>
<clipPath id="clip0_6066_35040">
<rect width="24" height="24" fill="white" transform="translate(0 0.5)"/>
</clipPath>
<clipPath id="clip1_6066_35040">
<rect width="24" height="24" fill="white" transform="translate(0 0.5)"/>
</clipPath>
</defs>
</svg>
