<svg width="25" height="25" viewBox="0 0 25 25" fill="none" xmlns="http://www.w3.org/2000/svg">
<g clip-path="url(#clip0_6066_35096)">
<path fill-rule="evenodd" clip-rule="evenodd" d="M13.5 6.5C13.5 5.94772 13.0523 5.5 12.5 5.5C11.9477 5.5 11.5 5.94833 11.5 6.50061L10.9332 6.50054C10.9222 6.50018 10.9111 6.5 10.9 6.5H9.5C8.94771 6.5 8.5 6.94772 8.5 7.5C8.5 8.05228 8.94771 8.5 9.5 8.5L9.5 16.5C8.94771 16.5 8.5 16.9477 8.5 17.5C8.5 18.0523 8.94771 18.5 9.5 18.5H10.9C10.9151 18.5 10.9302 18.4997 10.9451 18.499L11.3119 18.4992C11.3342 18.4992 11.3592 18.4994 11.3866 18.4996C11.4208 18.4998 11.4588 18.5 11.5 18.5C11.5 19.0523 11.9477 19.5 12.5 19.5C13.0523 19.5 13.5 19.052 13.5 18.4997C14.6557 18.4997 15.6702 18.2108 16.4085 17.5648C17.1643 16.9035 17.5 15.9822 17.5 14.9996C17.5 14.0171 17.1643 13.0957 16.4085 12.4344C16.244 12.2905 16.0658 12.1643 15.8753 12.0551C16.3043 11.4648 16.5 10.7503 16.5 10.0001C16.5 9.01761 16.1643 8.09621 15.4085 7.43491C14.8921 6.98312 14.2405 6.7061 13.5 6.58054V6.5ZM11.5 11.4997L12.5256 11.5002C13.3542 11.4959 13.8324 11.2868 14.0915 11.0602C14.3357 10.8465 14.5 10.5177 14.5 10.0001C14.5 9.48251 14.3357 9.15373 14.0915 8.94013C13.83 8.71129 13.3447 8.50033 12.5005 8.50073L11.5 8.50061V11.4997ZM11.5 16.4991L11.5 13.5001L12.5 13.5002L12.5298 13.5002L13.5005 13.5002C14.3447 13.4998 14.83 13.7108 15.0915 13.9396C15.3357 14.1532 15.5 14.482 15.5 14.9996C15.5 15.5172 15.3357 15.846 15.0915 16.0597C14.8298 16.2887 14.3443 16.4997 13.5 16.4997L11.5 16.4991Z" fill="white"/>
<path fill-rule="evenodd" clip-rule="evenodd" d="M24.5 12.5C24.5 19.1274 19.1274 24.5 12.5 24.5C5.87258 24.5 0.5 19.1274 0.5 12.5C0.5 5.87258 5.87258 0.5 12.5 0.5C19.1274 0.5 24.5 5.87258 24.5 12.5ZM22.5 12.5C22.5 18.0228 18.0228 22.5 12.5 22.5C6.97715 22.5 2.5 18.0228 2.5 12.5C2.5 6.97715 6.97715 2.5 12.5 2.5C18.0228 2.5 22.5 6.97715 22.5 12.5Z" fill="white"/>
</g>
<defs>
<clipPath id="clip0_6066_35096">
<rect width="24" height="24" fill="white" transform="translate(0.5 0.5)"/>
</clipPath>
</defs>
</svg>
