<svg width="92" height="20" viewBox="0 0 92 20" fill="none" xmlns="http://www.w3.org/2000/svg">
<path d="M10.9673 16.66C10.3229 16.66 9.03419 16.499 9.03419 14.7284C9.03419 13.8833 9.23556 12.837 9.4772 12.1529C10.1619 10.1409 11.5312 9.73844 12.3769 9.73844H16.3237L16.9278 6.59961H12.0144C10.8868 6.59961 8.51064 6.80082 6.57751 8.5312C4.92629 10.0201 4 12.6761 4 14.7284C4 16.9417 4.92629 20 9.35638 20H14.2295L14.9141 16.66H10.9673Z" fill="#E22526"/>
<path d="M13.7464 0L12.9409 4.06439H19.7471L16.6461 20H22.3649L25.4257 4.06439H32.0709L32.9166 0H13.7464Z" fill="black"/>
<path fill-rule="evenodd" clip-rule="evenodd" d="M90.4675 7.20323C89.6217 6.72033 88.9371 6.59961 87.2859 6.59961H67.5921L66.9074 10.0201C66.7866 9.53723 66.545 9.09458 66.2631 8.65192C65.9409 8.16903 65.5381 7.76661 64.9743 7.44468C64.5313 7.20323 64.0078 6.92154 63.4036 6.80082C62.9204 6.72033 62.3968 6.59961 61.7927 6.59961H54.4629L52.2881 17.7062L50.5967 6.59961H43.8307L37.3064 18.4708L37.2661 16.0161C37.2661 15.2515 36.9842 14.7284 36.6217 14.3662C36.1787 13.9236 35.6149 13.7223 35.1316 13.6419L35.1719 13.6016C35.9371 13.4809 36.662 13.2394 37.2258 12.837C38.2729 12.1529 38.9576 11.0262 38.9576 9.73844C38.9576 8.5312 38.3132 7.60564 37.3869 7.16299C36.7828 6.84106 36.0176 6.59961 35.2927 6.59961H26.6339L26.0298 9.73844H32.0305C32.3527 9.73844 33.722 9.73844 33.722 10.8652C33.722 11.1871 33.6415 11.7103 33.0777 12.0724C32.7152 12.3139 32.1111 12.3944 31.3056 12.3944H25.5062L24.0161 20H28.8489L29.7752 15.2918H30.9029C31.2251 15.2918 31.6681 15.332 31.95 15.6137C32.1111 15.8149 32.2319 16.1771 32.2319 16.6197L32.0708 19.9598H41.5754L42.7433 17.4246H47.0929L47.2942 19.9598H59.1346C60.2623 19.9598 62.6384 19.7183 64.5716 17.9879C64.934 17.666 65.2562 17.3038 65.5381 16.9014L64.934 19.9598H75.5663L76.2509 16.499H70.5723L70.9348 14.6881H75.6871L76.2912 11.6298H71.5389L71.9014 9.6982H84.9903C85.7957 9.6982 86.722 9.85917 86.722 10.7847C86.722 11.7908 85.9166 12.3541 84.95 12.3541H78.3049L76.8147 19.9598H81.8489L82.7752 15.2515H83.9029C84.2251 15.2515 84.6681 15.2918 84.95 15.5735C85.1111 15.7747 85.2319 16.1368 85.1916 16.5795L85.0305 19.9195H90.2661L90.2258 16.0161C90.2258 15.2113 89.9439 14.5674 89.5009 14.2052C89.0982 13.8028 88.5343 13.6016 88.0913 13.5614V13.5211C89.0176 13.4004 89.8634 13.0382 90.5077 12.4749C91.3535 11.7908 91.877 10.7445 91.877 9.61772C91.9173 8.5312 91.3132 7.68613 90.4675 7.20323ZM44.3945 14.0443L46.4485 9.6982H46.529L46.8512 14.0443H44.3945ZM61.39 14.326C60.7053 16.3783 59.3763 16.5795 58.5305 16.5795H57.6043L58.9333 9.73844H59.8998C60.5442 9.73844 61.833 9.85917 61.833 11.67C61.833 12.5151 61.6316 13.6419 61.39 14.326Z" fill="black"/>
</svg>
