<svg width="32" height="32" viewBox="0 0 32 32" fill="none" xmlns="http://www.w3.org/2000/svg">
<circle cx="15.9997" cy="15.8536" r="15.7061" fill="#E7E7E7"/>
<path fill-rule="evenodd" clip-rule="evenodd" d="M29.5459 12.342C28.1795 6.18977 22.5116 1.88086 15.7683 1.88086C8.0111 1.88086 1.72266 8.08305 1.72266 15.7338C1.72266 17.8653 2.21071 19.8843 3.08262 21.688L11.7518 21.2401C12.1992 24.1159 15.3198 25.9093 18.0767 25.9093C22.775 26.1061 26.7631 22.787 27.9671 20.8336C29.0911 19.1826 29.6305 17.3946 29.7989 15.8028C29.8268 15.6118 29.8471 15.422 29.8595 15.2337C29.8595 15.1308 29.8584 15.0282 29.8561 14.926C29.8804 13.914 29.7554 13.019 29.5459 12.342Z" fill="#FF7C7C"/>
<path fill-rule="evenodd" clip-rule="evenodd" d="M29.5459 12.342C28.1795 6.18977 22.5116 1.88086 15.7683 1.88086C8.0111 1.88086 1.72266 8.08305 1.72266 15.7338C1.72266 17.8653 2.21071 19.8843 3.08262 21.688L11.7518 21.2401C12.1992 24.1159 15.3198 25.9093 18.0767 25.9093C22.775 26.1061 26.7631 22.787 27.9671 20.8336C29.0911 19.1826 29.6305 17.3946 29.7989 15.8028C29.8268 15.6118 29.8471 15.422 29.8595 15.2337C29.8595 15.1308 29.8584 15.0282 29.8561 14.926C29.8804 13.914 29.7554 13.019 29.5459 12.342Z" fill="#FF0900"/>
<path d="M24.4684 9.1679C7.92021 5.54251 3.27936 16.4157 3.09125 22.0148L9.82391 26.0728L17.0037 27.1454L17.5259 26.0728C6.25539 24.0487 13.2132 10.5028 23.6722 13.0176L24.4684 9.1679Z" fill="#E7E7E7"/>
<path d="M24.4684 9.1679C7.92021 5.54251 3.27936 16.4157 3.09125 22.0148L9.82391 26.0728L17.0037 27.1454L17.5259 26.0728C6.25539 24.0487 13.2132 10.5028 23.6722 13.0176L24.4684 9.1679Z" fill="#E7E7E7"/>
</svg>
