<svg width="32" height="32" viewBox="0 0 32 32" fill="none" xmlns="http://www.w3.org/2000/svg">
<path d="M22.276 8.39099C22.7969 8.91188 22.7969 9.7564 22.276 10.2773L15.6087 16.9403C15.0878 17.4612 14.2432 17.4612 13.7223 16.9403L11.0573 14.2773C10.5364 13.7564 10.5364 12.9119 11.0573 12.391C11.5782 11.8702 12.4227 11.8702 12.9436 12.391L14.6655 14.1109L20.3896 8.39099C20.9105 7.8701 21.7551 7.8701 22.276 8.39099Z" fill="#121212"/>
<path fill-rule="evenodd" clip-rule="evenodd" d="M2.66663 5.33366C2.66663 3.8609 3.33329 2.66699 5.33329 2.66699H26.6666C28.1394 2.66699 29.3333 3.8609 29.3333 5.33366V20.0003C29.3333 21.4731 28.1394 22.667 26.6666 22.667H5.33329C3.86053 22.667 2.66663 21.4731 2.66663 20.0003V5.33366ZM5.33329 5.33366H26.6666V20.0003H5.33329L5.33329 5.33366Z" fill="#121212"/>
<path d="M2.66663 28.0003C2.66663 27.2639 3.26358 26.667 3.99996 26.667L28 26.667C28.7363 26.667 29.3333 27.2639 29.3333 28.0003C29.3333 28.7367 28.7363 29.3337 28 29.3337L3.99996 29.3337C3.26358 29.3337 2.66663 28.7367 2.66663 28.0003Z" fill="#121212"/>
</svg>
