<svg width="32" height="32" viewBox="0 0 32 32" fill="none" xmlns="http://www.w3.org/2000/svg">
<path fill-rule="evenodd" clip-rule="evenodd" d="M13.3333 5.33317H18.6666V10.6665H13.3333V5.33317ZM10.6666 5.33317C10.6666 3.86041 11.8606 2.6665 13.3333 2.6665H18.6666C20.1394 2.6665 21.3333 3.86041 21.3333 5.33317V10.6665C21.3333 12.1393 20.1394 13.3332 18.6666 13.3332H17.3333V15.9998H25.3333C26.0697 15.9998 26.6666 16.5968 26.6666 17.3332V19.9998H28C29.4727 19.9998 30.6666 21.1937 30.6666 22.6665V27.9998C30.6666 29.4726 29.4727 30.6665 28 30.6665H22.6666C21.1939 30.6665 20 29.4726 20 27.9998V22.6665C20 21.1937 21.1939 19.9998 22.6666 19.9998H24V18.6665H16H7.99998V19.9998H9.33331C10.8061 19.9998 12 21.1937 12 22.6665V27.9998C12 29.4726 10.8061 30.6665 9.33331 30.6665H3.99998C2.52722 30.6665 1.33331 29.4726 1.33331 27.9998V22.6665C1.33331 21.1937 2.52722 19.9998 3.99998 19.9998H5.33331V17.3332C5.33331 16.9795 5.47379 16.6404 5.72384 16.3904C5.97389 16.1403 7.64636 15.9998 7.99998 15.9998H14.6666V13.3332H13.3333C11.8606 13.3332 10.6666 12.1393 10.6666 10.6665V5.33317ZM3.99998 22.6665V27.9998H9.33331V22.6665H6.66665H3.99998ZM22.6666 27.9998V22.6665H25.3333H28V27.9998H22.6666Z" fill="#009345"/>
</svg>
