<svg width="32" height="32" viewBox="0 0 32 32" fill="none" xmlns="http://www.w3.org/2000/svg">
<path d="M26.6665 5.33341L5.33317 5.33341L5.33317 20.0001H13.3332C14.0696 20.0001 14.6665 20.597 14.6665 21.3334C14.6665 22.0698 14.0696 22.6667 13.3332 22.6667H5.33317C3.86041 22.6667 2.6665 21.4728 2.6665 20.0001L2.6665 5.33341C2.6665 3.86066 3.86041 2.66675 5.33317 2.66675L26.6665 2.66675C28.1393 2.66675 29.3332 3.86066 29.3332 5.33341V8.00008C29.3332 8.73646 28.7362 9.33341 27.9998 9.33341C27.2635 9.33341 26.6665 8.73646 26.6665 8.00008V5.33341Z" fill="#121212"/>
<path fill-rule="evenodd" clip-rule="evenodd" d="M19.9998 12.0001C18.5271 12.0001 17.3332 13.194 17.3332 14.6667V26.6667C17.3332 28.1395 18.5271 29.3334 19.9998 29.3334H26.6665C28.1393 29.3334 29.3332 28.1395 29.3332 26.6667V14.6667C29.3332 13.194 28.1393 12.0001 26.6665 12.0001H19.9998ZM26.6665 14.6667H19.9998V26.6667H26.6665V14.6667Z" fill="#121212"/>
<path d="M3.99984 26.6667C3.26346 26.6667 2.6665 27.2637 2.6665 28.0001C2.6665 28.7365 3.26346 29.3334 3.99984 29.3334H13.3332C14.0696 29.3334 14.6665 28.7365 14.6665 28.0001C14.6665 27.2637 14.0696 26.6667 13.3332 26.6667H3.99984Z" fill="#121212"/>
</svg>
