<svg width="32" height="32" viewBox="0 0 32 32" fill="none" xmlns="http://www.w3.org/2000/svg">
<path d="M28.8676 5.0122C29.4267 4.53297 29.4914 3.69124 29.0122 3.13214C28.533 2.57304 27.6912 2.50829 27.1321 2.98752L18.5285 10.3621L13.0919 7.10015C12.3625 6.6625 11.436 6.73413 10.7825 7.2787L3.14629 13.6422C2.58059 14.1137 2.50416 14.9544 2.97558 15.5201C3.44699 16.0858 4.28775 16.1622 4.85345 15.6908L12.1259 9.63042L17.5685 12.896C18.3067 13.3389 19.2455 13.2597 19.8991 12.6995L28.8676 5.0122Z" fill="#121212"/>
<path d="M12.0013 29.3397C11.2649 29.3397 10.6679 28.7425 10.6679 28.0059V16.0004C10.6679 15.2637 11.2649 14.6665 12.0013 14.6665C12.7376 14.6665 13.3346 15.2637 13.3346 16.0004V28.0059C13.3346 28.7425 12.7376 29.3397 12.0013 29.3397Z" fill="#121212"/>
<path d="M26.6707 28.0059C26.6707 28.7425 27.2676 29.3397 28.004 29.3397C28.7404 29.3397 29.3374 28.7425 29.3374 28.0059V17.335C29.3374 16.5984 28.7404 16.0012 28.004 16.0012C27.2676 16.0012 26.6707 16.5984 26.6707 17.335V28.0059Z" fill="#121212"/>
<path d="M18.6693 28.0059C18.6693 28.7425 19.2663 29.3397 20.0026 29.3397C20.739 29.3397 21.336 28.7425 21.336 28.0059V20.0002C21.336 19.2635 20.739 18.6663 20.0026 18.6663C19.2663 18.6663 18.6693 19.2635 18.6693 20.0002V28.0059Z" fill="#121212"/>
<path d="M2.66654 28.0059C2.66654 28.7425 3.26349 29.3397 3.99987 29.3397C4.73625 29.3397 5.3332 28.7425 5.3332 28.0059V22.6699C5.3332 21.9333 4.73625 21.3361 3.99987 21.3361C3.26349 21.3361 2.66654 21.9333 2.66654 22.6699V28.0059Z" fill="#121212"/>
</svg>
