<svg width="32" height="32" viewBox="0 0 32 32" fill="none" xmlns="http://www.w3.org/2000/svg">
<path d="M9.33317 16C9.33317 15.2636 8.73622 14.6666 7.99984 14.6666C7.26346 14.6666 6.6665 15.2636 6.6665 16V22.6666C6.6665 23.403 7.26346 24 7.99984 24C8.73622 24 9.33317 23.403 9.33317 22.6666V16Z" fill="#121212"/>
<path d="M13.3332 7.99996C14.0695 7.99996 14.6665 8.59691 14.6665 9.33329V22.6666C14.6665 23.403 14.0696 24 13.3332 24C12.5968 24 11.9998 23.403 11.9998 22.6666V9.33329C11.9998 8.59691 12.5968 7.99996 13.3332 7.99996Z" fill="#121212"/>
<path d="M23.9998 17.3333C24.7362 17.3333 25.3332 17.9302 25.3332 18.6666V22.6666C25.3332 23.403 24.7362 24 23.9998 24C23.2635 24 22.6665 23.403 22.6665 22.6666V18.6666C22.6665 17.9302 23.2635 17.3333 23.9998 17.3333Z" fill="#121212"/>
<path fill-rule="evenodd" clip-rule="evenodd" d="M2.6665 5.33329C2.6665 3.86053 3.86041 2.66663 5.33317 2.66663H26.6665C28.1393 2.66663 29.3332 3.86053 29.3332 5.33329V26.6666C29.3332 28.1394 28.1393 29.3333 26.6665 29.3333H5.33317C3.86041 29.3333 2.6665 28.1394 2.6665 26.6666V5.33329ZM5.33317 5.33329H26.6665V26.6666H5.33317V5.33329Z" fill="#121212"/>
<path d="M18.6665 10.6666C19.4029 10.6666 19.9998 11.2636 19.9998 12V22.6666C19.9998 23.403 19.4029 24 18.6665 24C17.9301 24 17.3332 23.403 17.3332 22.6666V12C17.3332 11.2636 17.9301 10.6666 18.6665 10.6666Z" fill="#121212"/>
</svg>
