<svg width="17" height="16" viewBox="0 0 17 16" fill="none" xmlns="http://www.w3.org/2000/svg">
<path d="M8.49935 10.3834C8.41046 10.3834 8.32713 10.3696 8.24935 10.3421C8.17157 10.3145 8.09935 10.2672 8.03268 10.2001L5.63268 7.80008C5.49935 7.66675 5.43535 7.51119 5.44068 7.33342C5.44602 7.15564 5.51002 7.00008 5.63268 6.86675C5.76602 6.73342 5.92446 6.66408 6.10802 6.65875C6.29157 6.65342 6.44979 6.71719 6.58268 6.85008L7.83268 8.10008V3.33342C7.83268 3.14453 7.89668 2.98631 8.02468 2.85875C8.15268 2.73119 8.3109 2.66719 8.49935 2.66675C8.68779 2.66631 8.84624 2.73031 8.97468 2.85875C9.10313 2.98719 9.1669 3.14542 9.16602 3.33342V8.10008L10.416 6.85008C10.5493 6.71675 10.7078 6.65275 10.8913 6.65808C11.0749 6.66342 11.2331 6.73297 11.366 6.86675C11.4882 7.00008 11.5522 7.15564 11.558 7.33342C11.5638 7.51119 11.4998 7.66675 11.366 7.80008L8.96602 10.2001C8.89935 10.2668 8.82713 10.3141 8.74935 10.3421C8.67157 10.3701 8.58824 10.3839 8.49935 10.3834ZM4.49935 13.3334C4.13268 13.3334 3.8189 13.203 3.55802 12.9421C3.29713 12.6812 3.16646 12.3672 3.16602 12.0001V10.6668C3.16602 10.4779 3.23002 10.3196 3.35802 10.1921C3.48602 10.0645 3.64424 10.0005 3.83268 10.0001C4.02113 9.99964 4.17957 10.0636 4.30802 10.1921C4.43646 10.3205 4.50024 10.4788 4.49935 10.6668V12.0001H12.4993V10.6668C12.4993 10.4779 12.5633 10.3196 12.6913 10.1921C12.8193 10.0645 12.9776 10.0005 13.166 10.0001C13.3545 9.99964 13.5129 10.0636 13.6413 10.1921C13.7698 10.3205 13.8336 10.4788 13.8327 10.6668V12.0001C13.8327 12.3668 13.7022 12.6808 13.4413 12.9421C13.1805 13.2034 12.8665 13.3339 12.4993 13.3334H4.49935Z" fill="black"/>
</svg>
