<svg width="24" height="25" viewBox="0 0 24 25" fill="none" xmlns="http://www.w3.org/2000/svg">
<g clip-path="url(#clip0_6066_35054)">
<path fill-rule="evenodd" clip-rule="evenodd" d="M12.152 5.07626L5.0794 13.5272H10.9759C11.6933 13.5272 12.2235 14.2032 12.0598 14.9095L10.9148 19.8518L17.9206 11.4806H12.1322C11.42 11.4806 10.8909 10.8138 11.0454 10.1108L12.152 5.07626ZM12.9925 0.903576C13.7436 0.006102 15.1814 0.72718 14.9292 1.87483L13.2677 9.43405H19.8846C20.8324 9.43405 21.3467 10.5552 20.7344 11.2867L10.0141 24.0962C9.2586 24.999 7.81354 24.2638 8.08031 23.1124L9.82696 15.5737H3.11544C2.16761 15.5737 1.65333 14.4526 2.26556 13.721L12.9925 0.903576Z" fill="white"/>
</g>
<defs>
<clipPath id="clip0_6066_35054">
<rect width="24" height="24" fill="white" transform="translate(0 0.5)"/>
</clipPath>
</defs>
</svg>
