<svg width="24" height="25" viewBox="0 0 24 25" fill="none" xmlns="http://www.w3.org/2000/svg">
<g clip-path="url(#clip0_6066_35075)">
<path d="M21.6508 4.25927C22.0701 3.89985 22.1187 3.26855 21.7593 2.84923C21.3999 2.4299 20.7686 2.38134 20.3492 2.74076L13.8965 8.2717L9.81904 5.82524C9.27197 5.497 8.57714 5.55072 8.08702 5.95915L2.35984 10.7318C1.93556 11.0854 1.87824 11.7159 2.2318 12.1402C2.58537 12.5645 3.21593 12.6218 3.64021 12.2682L9.09457 7.72294L13.1765 10.1721C13.7301 10.5043 14.4342 10.4449 14.9244 10.0247L21.6508 4.25927Z" fill="white"/>
<path d="M9.00106 22.5049C8.44878 22.5049 8.00106 22.057 8.00106 21.5045V12.5004C8.00106 11.9479 8.44878 11.5 9.00106 11.5C9.55335 11.5 10.0011 11.9479 10.0011 12.5004V21.5045C10.0011 22.057 9.55335 22.5049 9.00106 22.5049Z" fill="white"/>
<path d="M20.0031 21.5045C20.0031 22.057 20.4509 22.5049 21.0031 22.5049C21.5554 22.5049 22.0031 22.057 22.0031 21.5045V13.5014C22.0031 12.9489 21.5554 12.501 21.0031 12.501C20.4509 12.501 20.0031 12.9489 20.0031 13.5014V21.5045Z" fill="white"/>
<path d="M14.0021 21.5045C14.0021 22.057 14.4498 22.5049 15.0021 22.5049C15.5544 22.5049 16.0021 22.057 16.0021 21.5045V15.5002C16.0021 14.9477 15.5544 14.4999 15.0021 14.4999C14.4498 14.4999 14.0021 14.9477 14.0021 15.5002V21.5045Z" fill="white"/>
<path d="M2.00003 21.5045C2.00003 22.057 2.44774 22.5049 3.00003 22.5049C3.55231 22.5049 4.00003 22.057 4.00003 21.5045V17.5026C4.00003 16.9501 3.55231 16.5022 3.00003 16.5022C2.44774 16.5022 2.00003 16.9501 2.00003 17.5026V21.5045Z" fill="white"/>
</g>
<defs>
<clipPath id="clip0_6066_35075">
<rect width="24" height="24" fill="white" transform="translate(0 0.5)"/>
</clipPath>
</defs>
</svg>
