<svg width="24" height="25" viewBox="0 0 24 25" fill="none" xmlns="http://www.w3.org/2000/svg">
<g clip-path="url(#clip0_6066_35082)">
<g clip-path="url(#clip1_6066_35082)">
<path d="M7 8.5C6.44772 8.5 6 8.94771 6 9.5V15.5C6 16.0523 6.44772 16.5 7 16.5H10C10.5523 16.5 11 16.0523 11 15.5C11 14.9477 10.5523 14.5 10 14.5H8V13.5H10C10.5523 13.5 11 13.0523 11 12.5C11 11.9477 10.5523 11.5 10 11.5H8V10.5H10C10.5523 10.5 11 10.0523 11 9.5C11 8.94771 10.5523 8.5 10 8.5H7Z" fill="white"/>
<path d="M21 10.5H23C23.5523 10.5 24 10.0523 24 9.5C24 8.94771 23.5523 8.5 23 8.5H20C19.4477 8.5 19 8.94771 19 9.5V15.5C19 16.0523 19.4477 16.5 20 16.5C20.5523 16.5 21 16.0523 21 15.5V13.5H23C23.5523 13.5 24 13.0523 24 12.5C24 11.9477 23.5523 11.5 23 11.5H21V10.5Z" fill="white"/>
<path d="M12 9.5C12 8.94771 12.4477 8.5 13 8.5H17C17.5523 8.5 18 8.94771 18 9.5C18 10.0523 17.5523 10.5 17 10.5H16V15.5C16 16.0523 15.5523 16.5 15 16.5C14.4477 16.5 14 16.0523 14 15.5V10.5H13C12.4477 10.5 12 10.0523 12 9.5Z" fill="white"/>
<path fill-rule="evenodd" clip-rule="evenodd" d="M20.4439 19.222C20.0191 19.0096 19.5077 19.1227 19.1769 19.4636C17.3596 21.3363 14.8157 22.5 12 22.5C6.47715 22.5 2 18.0228 2 12.5C2 6.97715 6.47715 2.5 12 2.5C14.8157 2.5 17.3596 3.66371 19.1769 5.5364C19.5077 5.87726 20.0191 5.99045 20.4439 5.77803C21.0159 5.49206 21.1875 4.75382 20.7498 4.28765C18.5607 1.95624 15.4504 0.5 12 0.5C5.37258 0.5 0 5.87258 0 12.5C0 19.1274 5.37258 24.5 12 24.5C15.4504 24.5 18.5607 23.0438 20.7498 20.7124C21.1875 20.2462 21.0159 19.5079 20.4439 19.222Z" fill="white"/>
</g>
</g>
<defs>
<clipPath id="clip0_6066_35082">
<rect width="24" height="24" fill="white" transform="translate(0 0.5)"/>
</clipPath>
<clipPath id="clip1_6066_35082">
<rect width="24" height="24" fill="white" transform="translate(0 0.5)"/>
</clipPath>
</defs>
</svg>
