<svg width="32" height="32" viewBox="0 0 32 32" fill="none" xmlns="http://www.w3.org/2000/svg">
<path d="M15.1018 25.1883C15.1891 25.2851 15.2952 25.3335 15.4199 25.3335L16.5614 25.3335C16.6862 25.3335 16.7922 25.2851 16.8796 25.1883C16.9669 25.0915 17.0106 24.974 17.0106 24.8357V23.4046C17.8839 23.294 18.6449 23.0589 19.2936 22.6994C19.9423 22.3261 20.4414 21.8421 20.7907 21.2476C21.1525 20.6392 21.3334 19.934 21.3334 19.132C21.3334 18.3162 21.1712 17.6456 20.8468 17.1202C20.5349 16.5809 20.0421 16.1384 19.3685 15.7928C18.7073 15.4471 17.8464 15.1429 16.786 14.8802C16.025 14.6589 15.4137 14.4515 14.9521 14.2579C14.503 14.0644 14.1786 13.8431 13.979 13.5942C13.7794 13.3315 13.6796 13.0066 13.6796 12.6194C13.6796 12.0387 13.8792 11.61 14.2784 11.3335C14.6901 11.057 15.2328 10.9187 15.9065 10.9187C16.5677 10.9187 17.1041 11.0708 17.5158 11.375C17.9275 11.6792 18.1646 12.0456 18.2269 12.4742C18.2893 12.6263 18.3704 12.73 18.4702 12.7853C18.57 12.8407 18.6761 12.8683 18.7883 12.8683H20.5287C20.6534 12.8683 20.747 12.8268 20.8094 12.7439C20.8842 12.6471 20.9217 12.5434 20.9217 12.4328C20.9092 11.935 20.7533 11.4234 20.4538 10.8979C20.1544 10.3587 19.7178 9.88164 19.1439 9.46683C18.57 9.05201 17.8589 8.77547 17.0106 8.6372V7.16461C17.0106 7.02633 16.9669 6.9088 16.8796 6.81202C16.7922 6.71522 16.6862 6.66683 16.5614 6.66683H15.4199C15.2952 6.66683 15.1891 6.71522 15.1018 6.81202C15.0145 6.9088 14.9708 7.02633 14.9708 7.16461L14.9708 8.59572C13.7357 8.76164 12.7688 9.21794 12.0702 9.96461C11.3716 10.7113 11.0223 11.617 11.0223 12.6816C11.0223 13.5113 11.1782 14.1957 11.4901 14.735C11.8145 15.2742 12.2948 15.7236 12.931 16.0831C13.5673 16.4288 14.347 16.7261 15.2702 16.975C16.0811 17.1962 16.7361 17.4105 17.2351 17.6179C17.7342 17.8115 18.0959 18.0328 18.3205 18.2816C18.5575 18.5167 18.6761 18.8347 18.6761 19.2357C18.6761 19.8026 18.4577 20.252 18.0211 20.5839C17.5844 20.9157 16.917 21.0816 16.0188 21.0816C15.4573 21.0816 14.9895 20.9987 14.6152 20.8328C14.241 20.6668 13.9478 20.4594 13.7357 20.2105C13.5361 19.9478 13.3926 19.6851 13.3053 19.4224C13.2554 19.3118 13.1868 19.2219 13.0995 19.1528C13.0121 19.0698 12.8936 19.0283 12.7439 19.0283H11.0784C10.9661 19.0283 10.8663 19.0698 10.779 19.1528C10.7041 19.2357 10.6667 19.3394 10.6667 19.4639C10.6917 20.0723 10.8663 20.6599 11.1907 21.2268C11.515 21.7799 11.9954 22.257 12.6316 22.6579C13.2679 23.0451 14.0476 23.2871 14.9708 23.3839V24.8357C14.9708 24.974 15.0145 25.0915 15.1018 25.1883Z" fill="#009345"/>
<path fill-rule="evenodd" clip-rule="evenodd" d="M30.6667 16.0002C30.6667 24.1003 24.1002 30.6668 16 30.6668C7.89986 30.6668 1.33337 24.1003 1.33337 16.0002C1.33337 7.89999 7.89986 1.3335 16 1.3335C24.1002 1.3335 30.6667 7.89999 30.6667 16.0002ZM28 16.0002C28 22.6276 22.6275 28.0002 16 28.0002C9.37262 28.0002 4.00004 22.6276 4.00004 16.0002C4.00004 9.37275 9.37262 4.00016 16 4.00016C22.6275 4.00016 28 9.37275 28 16.0002Z" fill="#009345"/>
</svg>
