<svg width="25" height="24" viewBox="0 0 25 24" fill="none" xmlns="http://www.w3.org/2000/svg">
<path d="M12.2785 18.8911C12.344 18.9637 12.4235 19 12.5171 19H13.3732C13.4668 19 13.5463 18.9637 13.6118 18.8911C13.6773 18.8185 13.71 18.7304 13.71 18.6267V17.5533C14.365 17.4704 14.9358 17.2941 15.4223 17.0244C15.9089 16.7444 16.2831 16.3815 16.5451 15.9356C16.8165 15.4793 16.9521 14.9504 16.9521 14.3489C16.9521 13.737 16.8305 13.2341 16.5872 12.84C16.3533 12.4356 15.9837 12.1037 15.4785 11.8444C14.9826 11.5852 14.3369 11.357 13.5416 11.16C12.9709 10.9941 12.5124 10.8385 12.1662 10.6933C11.8293 10.5481 11.5861 10.3822 11.4364 10.1956C11.2867 9.99852 11.2118 9.75481 11.2118 9.46444C11.2118 9.02889 11.3615 8.70741 11.6609 8.5C11.9697 8.29259 12.3767 8.18889 12.882 8.18889C13.3779 8.18889 13.7802 8.30296 14.089 8.53111C14.3978 8.75926 14.5755 9.03407 14.6223 9.35555C14.6691 9.46963 14.7299 9.54741 14.8048 9.58889C14.8796 9.63037 14.9592 9.65111 15.0434 9.65111H16.3486C16.4422 9.65111 16.5124 9.62 16.5592 9.55778C16.6153 9.48518 16.6434 9.40741 16.6434 9.32444C16.634 8.95111 16.5171 8.56741 16.2925 8.17333C16.0679 7.76889 15.7405 7.41111 15.31 7.1C14.8796 6.78889 14.3463 6.58148 13.71 6.47778V5.37333C13.71 5.26963 13.6773 5.18148 13.6118 5.10889C13.5463 5.03629 13.4668 5 13.3732 5H12.5171C12.4235 5 12.344 5.03629 12.2785 5.10889C12.213 5.18148 12.1802 5.26963 12.1802 5.37333V6.44667C11.2539 6.57111 10.5288 6.91333 10.0048 7.47333C9.4808 8.03333 9.21881 8.71259 9.21881 9.51111C9.21881 10.1333 9.33577 10.6467 9.56969 11.0511C9.81297 11.4556 10.1732 11.7926 10.6504 12.0622C11.1276 12.3215 11.7124 12.5444 12.4048 12.7311C13.013 12.897 13.5042 13.0578 13.8785 13.2133C14.2527 13.3585 14.5241 13.5244 14.6925 13.7111C14.8703 13.8874 14.9592 14.1259 14.9592 14.4267C14.9592 14.8519 14.7954 15.1889 14.4679 15.4378C14.1405 15.6867 13.6399 15.8111 12.9662 15.8111C12.5451 15.8111 12.1943 15.7489 11.9136 15.6244C11.6329 15.5 11.413 15.3444 11.2539 15.1578C11.1042 14.9607 10.9966 14.7637 10.9311 14.5667C10.8937 14.4837 10.8422 14.4163 10.7767 14.3644C10.7112 14.3022 10.6223 14.2711 10.51 14.2711H9.26092C9.17671 14.2711 9.10186 14.3022 9.03636 14.3644C8.98022 14.4267 8.95215 14.5044 8.95215 14.5978C8.97086 15.0541 9.10186 15.4948 9.34513 15.92C9.5884 16.3348 9.94864 16.6926 10.4258 16.9933C10.903 17.2837 11.4878 17.4652 12.1802 17.5378V18.6267C12.1802 18.7304 12.213 18.8185 12.2785 18.8911Z" fill="#121212"/>
<path fill-rule="evenodd" clip-rule="evenodd" d="M23.9521 12C23.9521 18.0751 19.0273 23 12.9521 23C6.87702 23 1.95215 18.0751 1.95215 12C1.95215 5.92487 6.87702 1 12.9521 1C19.0273 1 23.9521 5.92487 23.9521 12ZM21.9521 12C21.9521 16.9706 17.9227 21 12.9521 21C7.98159 21 3.95215 16.9706 3.95215 12C3.95215 7.02944 7.98159 3 12.9521 3C17.9227 3 21.9521 7.02944 21.9521 12Z" fill="#121212"/>
</svg>
