<svg width="24" height="25" viewBox="0 0 24 25" fill="none" xmlns="http://www.w3.org/2000/svg">
<g clip-path="url(#clip0_6066_35026)">
<path fill-rule="evenodd" clip-rule="evenodd" d="M17 2.5C17 1.94772 17.4477 1.5 18 1.5H23C23.5523 1.5 24 1.94772 24 2.5V7.5C24 8.05228 23.5523 8.5 23 8.5C22.4477 8.5 22 8.05228 22 7.5V5.1302L15.7474 12.1644C15.5644 12.3702 15.3047 12.4915 15.0294 12.4996C14.7541 12.5077 14.4876 12.4019 14.2929 12.2071L9.58579 7.5H3V12.5H7C7.55228 12.5 8 12.9477 8 13.5C8 14.0523 7.55228 14.5 7 14.5H3V21.5C3 22.0523 2.55228 22.5 2 22.5C1.44772 22.5 1 22.0523 1 21.5V5.5H10C10.2652 5.5 10.5196 5.60536 10.7071 5.79289L14.9572 10.043L20.7732 3.5H18C17.4477 3.5 17 3.05228 17 2.5ZM8.29289 20.7929L14.2929 14.7929C14.6834 14.4024 15.3166 14.4024 15.7071 14.7929L21.7071 20.7929C22.0976 21.1834 22.0976 21.8166 21.7071 22.2071C21.3166 22.5976 20.6834 22.5976 20.2929 22.2071L15 16.9142L9.70711 22.2071C9.31658 22.5976 8.68342 22.5976 8.29289 22.2071C7.90237 21.8166 7.90237 21.1834 8.29289 20.7929Z" fill="white"/>
</g>
<defs>
<clipPath id="clip0_6066_35026">
<rect width="24" height="24" fill="white" transform="translate(0 0.5)"/>
</clipPath>
</defs>
</svg>
