<svg width="51" height="41" viewBox="0 0 51 41" fill="none" xmlns="http://www.w3.org/2000/svg">
<path fill-rule="evenodd" clip-rule="evenodd" d="M14.6381 16.6979C14.6381 17.3153 14.7055 17.8158 14.8233 18.1829C14.9581 18.55 15.1264 18.9504 15.3622 19.3842C15.4464 19.5177 15.4801 19.6512 15.4801 19.768C15.4801 19.9349 15.379 20.1017 15.1601 20.2686L14.0993 20.9693C13.9477 21.0695 13.7962 21.1195 13.6615 21.1195C13.4931 21.1195 13.3247 21.0361 13.1563 20.8859C12.9206 20.6356 12.7185 20.3687 12.5501 20.1017C12.3817 19.8181 12.2133 19.501 12.0281 19.1173C10.7147 20.6523 9.06445 21.4198 7.07746 21.4198C5.66299 21.4198 4.53479 21.0194 3.70968 20.2185C2.88458 19.4176 2.46361 18.3498 2.46361 17.0149C2.46361 15.5967 2.96877 14.4454 3.99594 13.5778C5.02312 12.7102 6.38707 12.2764 8.12147 12.2764C8.69399 12.2764 9.28335 12.3264 9.90639 12.4098C10.5294 12.4933 11.1693 12.6267 11.8429 12.7769V11.5589C11.8429 10.2908 11.5734 9.40649 11.0514 8.88925C10.5126 8.37201 9.60329 8.12173 8.3067 8.12173C7.71734 8.12173 7.11114 8.18847 6.4881 8.33864C5.86506 8.48881 5.25886 8.67235 4.6695 8.90594C4.40008 9.02273 4.19801 9.08948 4.08014 9.12285C3.96227 9.15622 3.87807 9.1729 3.81072 9.1729C3.57497 9.1729 3.4571 9.00605 3.4571 8.65566V7.83809C3.4571 7.57112 3.49078 7.3709 3.57497 7.2541C3.65917 7.13731 3.81072 7.02051 4.04646 6.90371C4.63582 6.60338 5.34305 6.3531 6.16816 6.15288C6.99327 5.93597 7.86889 5.83586 8.79503 5.83586C10.7989 5.83586 12.2638 6.28636 13.2068 7.18736C14.133 8.08836 14.6044 9.45655 14.6044 11.2919V16.6979H14.6381ZM7.80153 19.2341C8.35722 19.2341 8.92974 19.134 9.53594 18.9337C10.1421 18.7335 10.681 18.3665 11.1356 17.8659C11.4051 17.5489 11.6071 17.1985 11.7082 16.798C11.8092 16.3976 11.8765 15.9137 11.8765 15.3464V14.6456C11.3882 14.5289 10.8662 14.4287 10.3274 14.362C9.78852 14.2953 9.26652 14.2619 8.74451 14.2619C7.61631 14.2619 6.7912 14.4788 6.23552 14.9293C5.67983 15.3798 5.41041 16.0138 5.41041 16.8481C5.41041 17.6323 5.61248 18.2163 6.03345 18.6167C6.43758 19.0339 7.02694 19.2341 7.80153 19.2341ZM21.3232 21.0361C21.0201 21.0361 20.818 20.986 20.6833 20.8692C20.5486 20.7691 20.4307 20.5355 20.3297 20.2185L16.3725 7.32084C16.2715 6.98714 16.221 6.77023 16.221 6.65344C16.221 6.38647 16.3557 6.23631 16.6251 6.23631H18.2753C18.5953 6.23631 18.8142 6.28636 18.932 6.40316C19.0667 6.50327 19.1678 6.73686 19.2688 7.05388L22.0977 18.0995L24.7246 7.05388C24.8088 6.72018 24.9098 6.50327 25.0446 6.40316C25.1793 6.30305 25.415 6.23631 25.7181 6.23631H27.0652C27.3852 6.23631 27.6041 6.28636 27.7388 6.40316C27.8735 6.50327 27.9914 6.73686 28.0587 7.05388L30.7193 18.233L33.6324 7.05388C33.7334 6.72018 33.8513 6.50327 33.9692 6.40316C34.1039 6.30305 34.3228 6.23631 34.6259 6.23631H36.1919C36.4613 6.23631 36.6129 6.36979 36.6129 6.65344C36.6129 6.72469 36.6006 6.79594 36.5865 6.87759L36.5792 6.9204C36.5623 7.02051 36.5287 7.15399 36.4613 7.33753L32.4031 20.2352C32.3021 20.5689 32.1842 20.7858 32.0495 20.8859C31.9148 20.986 31.6959 21.0528 31.4097 21.0528H29.9615C29.6416 21.0528 29.4227 21.0027 29.288 20.8859C29.1532 20.7691 29.0354 20.5522 28.968 20.2185L26.358 9.45655L23.7648 20.2018C23.6806 20.5355 23.5796 20.7524 23.4449 20.8692C23.3101 20.986 23.0744 21.0361 22.7713 21.0361H21.3232ZM42.9611 21.4866C42.0855 21.4866 41.2099 21.3865 40.3679 21.1863C39.526 20.986 38.8693 20.7691 38.4315 20.5188C38.162 20.3687 37.9768 20.2018 37.9095 20.0517C37.8421 19.9015 37.8084 19.7346 37.8084 19.5845V18.7335C37.8084 18.3831 37.9431 18.2163 38.1957 18.2163C38.2968 18.2163 38.3978 18.233 38.4988 18.2663C38.5641 18.2879 38.6503 18.3233 38.7486 18.3637L38.7487 18.3637C38.8026 18.3859 38.8601 18.4095 38.9198 18.4332C39.4923 18.6835 40.1154 18.8837 40.7721 19.0172C41.4456 19.1507 42.1023 19.2174 42.7759 19.2174C43.8368 19.2174 44.6619 19.0339 45.2344 18.6668C45.8069 18.2997 46.11 17.7658 46.11 17.0817C46.11 16.6145 45.9585 16.2307 45.6553 15.9137C45.3522 15.5967 44.7797 15.3131 43.9546 15.0461L41.513 14.2953C40.2837 13.9115 39.3744 13.3442 38.8188 12.5934C38.2631 11.8592 37.9768 11.0416 37.9768 10.174C37.9768 9.47324 38.1284 8.85588 38.4315 8.32196C38.7346 7.78803 39.1387 7.32084 39.6439 6.95377C40.149 6.57001 40.7216 6.28636 41.3951 6.08614C42.0687 5.88592 42.7759 5.80249 43.5168 5.80249C43.8873 5.80249 44.2746 5.81918 44.645 5.86923C45.0323 5.91929 45.3859 5.98603 45.7395 6.05277C46.0763 6.13619 46.3963 6.21962 46.6994 6.31973C47.0025 6.41984 47.2382 6.51995 47.4066 6.62007C47.6423 6.75355 47.8107 6.88703 47.9118 7.0372C48.0128 7.17068 48.0633 7.35421 48.0633 7.58781V8.37201C48.0633 8.7224 47.9286 8.90594 47.676 8.90594C47.5413 8.90594 47.3224 8.8392 47.0361 8.70572C46.0763 8.2719 44.9986 8.05499 43.8031 8.05499C42.8433 8.05499 42.0855 8.20516 41.5635 8.52218C41.0415 8.8392 40.7721 9.32307 40.7721 10.0072C40.7721 10.4743 40.9405 10.8748 41.2772 11.1918C41.614 11.5088 42.2371 11.8259 43.1295 12.1095L45.5206 12.8603C46.733 13.2441 47.6087 13.778 48.1307 14.4621C48.6527 15.1462 48.9053 15.9304 48.9053 16.798C48.9053 17.5155 48.7537 18.1662 48.4674 18.7335C48.1643 19.3008 47.7602 19.8014 47.2382 20.2018C46.7162 20.619 46.0932 20.9193 45.3691 21.1362C44.6113 21.3698 43.8199 21.4866 42.9611 21.4866ZM46.1438 29.5961C40.6039 33.6506 32.5549 35.803 25.6341 35.803C15.9349 35.803 7.1955 32.2491 0.594658 26.3425C0.0726527 25.8753 0.544141 25.2413 1.16718 25.6084C8.30687 29.7129 17.1136 32.199 26.2234 32.199C32.3696 32.199 39.122 30.9309 45.3356 28.328C46.2617 27.9109 47.0531 28.9287 46.1438 29.5961ZM41.9677 26.7762C43.7695 26.5593 47.7434 26.0921 48.4507 26.9931C49.1579 27.8774 47.6592 31.5982 46.9857 33.25C46.7836 33.7506 47.2214 33.9508 47.6761 33.5671C50.6397 31.0976 51.4143 25.9419 50.8081 25.1911C50.2019 24.4569 44.9987 23.8229 41.833 26.0253C41.3447 26.3757 41.4289 26.8429 41.9677 26.7762Z" fill="#1F2228"/>
</svg>
