<svg width="22" height="26" viewBox="0 0 22 26" fill="none" xmlns="http://www.w3.org/2000/svg">
<path d="M20.1666 11.8711V18.871M14.3333 21.2044V24.7044M7.33332 21.2044V24.7044M1.5 11.8711V18.871M8.49998 3.70442L6.74999 1.37109M13.1666 3.70442L14.9166 1.37109M4.41666 10.7044H17.25M4.41666 10.1211C4.41666 8.41927 5.0927 6.78717 6.29605 5.58381C7.49941 4.38046 9.13151 3.70442 10.8333 3.70442C12.5351 3.70442 14.1672 4.38046 15.3706 5.58381C16.5739 6.78717 17.25 8.41927 17.25 10.1211V17.7044C17.25 19.354 17.25 20.1789 16.7366 20.691C16.2245 21.2044 15.3996 21.2044 13.75 21.2044H7.91665C6.26699 21.2044 5.44216 21.2044 4.92999 20.691C4.41666 20.1789 4.41666 19.354 4.41666 17.7044V10.1211Z" stroke="black" stroke-width="2" stroke-linecap="round" stroke-linejoin="round"/>
</svg>
