<svg width="128" height="41" viewBox="0 0 128 41" fill="none" xmlns="http://www.w3.org/2000/svg">
<path fill-rule="evenodd" clip-rule="evenodd" d="M14.4347 22.7427C13.6914 22.7421 13.0146 22.3394 11.6609 21.5339L5.95119 18.1367C5.2439 17.7158 4.37246 17.7167 3.66594 18.1389C2.86638 18.6166 2.37419 19.4972 2.37419 20.4499V21.7498L2.37424 21.801C2.38261 23.5268 3.27448 25.1198 4.71987 25.9905L4.76293 26.0162L11.6565 30.1214C13.0122 30.9287 13.6901 31.3324 14.4346 31.3328C15.179 31.3331 15.8573 30.9301 17.2137 30.124L24.5819 25.7454L24.5822 25.7453C24.9215 25.5436 25.0912 25.4428 25.1844 25.2765C25.2777 25.1101 25.2777 24.9081 25.2777 24.5041V23.0881C25.2777 22.8125 25.2777 22.6748 25.1908 22.6231C25.104 22.5714 24.9883 22.6401 24.757 22.7776L24.7566 22.7778L15.8234 28.0864L15.823 28.0866C15.1454 28.4893 14.8064 28.6907 14.4344 28.6905C14.0623 28.6905 13.7235 28.4888 13.0458 28.0856L13.0457 28.0856L5.75748 23.7491L5.75747 23.7491L5.75744 23.7491C5.50642 23.5997 5.38091 23.5251 5.27853 23.4327C5.04921 23.226 4.89215 22.9473 4.8315 22.6396C4.8044 22.5021 4.80362 22.3527 4.80207 22.0539L4.80207 22.0534C4.79996 21.6479 4.79891 21.445 4.85111 21.3131C4.97023 21.0122 5.27083 20.8317 5.58348 20.8733C5.72062 20.8915 5.89135 20.9925 6.23282 21.1946L13.0495 25.2285L13.0496 25.2286C13.7256 25.6285 14.0635 25.8285 14.4343 25.8284C14.8051 25.8283 15.143 25.6281 15.8187 25.2276L25.8904 19.2592C26.2552 19.043 26.7033 19.0399 27.071 19.2509C27.4509 19.4691 27.6864 19.8823 27.6864 20.3306V23.4525V23.4525C27.6864 25.0685 27.6864 25.8765 27.3136 26.5418C26.9407 27.2071 26.2617 27.6107 24.9036 28.4178L19.9918 31.3368C17.2795 32.9487 15.9233 33.7546 14.4346 33.7541C12.946 33.7536 11.5904 32.9467 8.87922 31.333L8.87911 31.3329L4.22616 28.5634C4.17123 28.5308 4.14374 28.5144 4.11814 28.4989C1.5853 26.9664 0.0211257 24.1734 0.000210814 21.1459C0 21.1153 0 21.0825 0 21.0171C0 20.9517 0 20.9189 0.000210814 20.8883C0.0211731 17.8573 1.58884 15.0617 4.12619 13.5305C4.14902 13.5167 4.17331 13.5022 4.21708 13.4762L4.23442 13.466L11.6625 9.05618C13.0155 8.25297 13.6919 7.85138 14.4345 7.85107C15.1771 7.85078 15.8539 8.25183 17.2074 9.05395L25.8481 14.1743C26.238 14.4054 26.4784 14.8337 26.4784 15.2974C26.4784 15.7611 26.238 16.1894 25.8481 16.4204L17.2106 21.539L17.2105 21.539C15.8555 22.3419 15.1781 22.7434 14.4347 22.7427ZM38.9406 20.8026C38.9406 24.7661 41.6301 27.5015 46.0884 27.5015C48.5434 27.5015 49.8248 26.4967 50.3122 25.864V27.3154H52.6949V22.2727C52.6949 21.1376 52.0811 20.4863 50.9798 20.4863H46.1606V22.7564H50.3122V22.9053C50.3122 23.966 48.8862 25.2313 46.251 25.2313H45.9623C43.2905 25.2313 41.4496 23.6124 41.4496 20.8026C41.4496 17.9928 43.2544 16.374 45.9623 16.374H46.251C48.8681 16.374 49.7706 17.6951 49.8971 18.7558H52.5143C52.334 16.1134 50.1496 14.1038 46.1064 14.1038C41.6481 14.1038 38.9406 16.8949 38.9406 20.8026ZM56.6909 27.3154H54.1998V14.2898H56.6909V27.3154ZM63.0339 27.3154H65.5246V16.56H70.6148V14.2898H57.9437V16.56H63.0339V27.3154ZM79.2642 27.3154H71.8636V14.2898H79.0479C81.3041 14.2898 83.0368 15.5924 83.0368 17.7323C83.0368 19.221 82.1163 20.2816 81.0331 20.691C82.3326 20.9887 83.3436 22.0866 83.3436 23.7799C83.3436 25.9384 81.5205 27.3154 79.2642 27.3154ZM74.3547 16.56V19.5745H78.7769C79.8781 19.5745 80.5277 19.0535 80.5277 18.0114C80.5277 17.1555 79.8781 16.56 78.7769 16.56H74.3547ZM74.3547 21.8447V25.0452H78.9033C80.0945 25.0452 80.8348 24.4126 80.8348 23.4263C80.8348 22.3657 80.0945 21.8447 78.9033 21.8447H74.3547ZM84.4143 20.8026C84.4143 24.9708 87.4831 27.5015 91.5805 27.5015C95.6775 27.5015 98.7282 24.9708 98.7282 20.8026C98.7282 16.6345 95.6775 14.1038 91.5805 14.1038C87.4831 14.1038 84.4143 16.6345 84.4143 20.8026ZM91.7246 25.2313H91.436C88.9991 25.2313 86.9235 23.6124 86.9235 20.8026C86.9235 17.9928 88.9991 16.374 91.436 16.374H91.7246C94.1615 16.374 96.219 17.9928 96.219 20.8026C96.219 23.6124 94.1615 25.2313 91.7246 25.2313ZM106.828 27.5015C102.731 27.5015 99.6624 24.9708 99.6624 20.8026C99.6624 16.6345 102.731 14.1038 106.828 14.1038C110.926 14.1038 113.976 16.6345 113.976 20.8026C113.976 24.9708 110.926 27.5015 106.828 27.5015ZM106.973 25.2313C109.409 25.2313 111.467 23.6124 111.467 20.8026C111.467 17.9928 109.409 16.374 106.973 16.374H106.684C104.247 16.374 102.171 17.9928 102.171 20.8026C102.171 23.6124 104.247 25.2313 106.684 25.2313H106.973ZM124.715 27.3154H128L121.393 19.835L127.711 14.2898H124.264L117.747 20.0397V14.2898H115.257V27.3154H117.747V23.017L119.552 21.4353L124.715 27.3154Z" fill="#181C1F"/>
</svg>
