<svg width="32" height="32" viewBox="0 0 32 32" fill="none" xmlns="http://www.w3.org/2000/svg">
<path fill-rule="evenodd" clip-rule="evenodd" d="M16.0002 30.6666C24.1003 30.6666 30.6668 24.1001 30.6668 15.9999C30.6668 7.89974 24.1003 1.33325 16.0002 1.33325C7.89999 1.33325 1.3335 7.89974 1.3335 15.9999C1.3335 24.1001 7.89999 30.6666 16.0002 30.6666ZM27.7028 18.6666C27.8974 17.809 28.0002 16.9164 28.0002 15.9999C28.0002 15.0834 27.8974 14.1909 27.7028 13.3333H22.4987C22.6113 14.3558 22.6669 15.3837 22.6669 16.3999C22.6669 17.1553 22.6361 17.9134 22.5735 18.6666H27.7028ZM26.7528 21.3333H22.2113C21.7938 23.5134 21.0829 25.5693 20.0525 27.2985C22.9806 26.2481 25.3819 24.0919 26.7528 21.3333ZM19.8973 18.6666C19.9655 17.9261 20.0002 17.1682 20.0002 16.3999C20.0002 15.3703 19.9377 14.3419 19.8146 13.3333H12.103C12.0349 14.0737 12.0001 14.8317 12.0001 15.5999C12.0001 16.6295 12.0626 17.658 12.1857 18.6666H19.8973ZM12.6651 21.3333H19.4905C18.9115 23.9939 17.8535 26.261 16.3908 27.7238C16.3068 27.8079 16.2363 27.9004 16.1794 27.9986C16.1197 27.9995 16.06 27.9999 16.0002 27.9999C15.9402 27.9999 15.8804 27.9995 15.8207 27.9986C15.7834 27.9342 15.7401 27.8721 15.6908 27.813C14.2953 26.1383 13.2748 23.8637 12.6651 21.3333ZM9.50166 18.6666C9.38901 17.6441 9.33343 16.6161 9.33344 15.5999C9.33346 14.8446 9.36426 14.0865 9.42683 13.3333H4.29752C4.10291 14.1909 4.00016 15.0834 4.00016 15.9999C4.00016 16.9164 4.10291 17.809 4.29752 18.6666H9.50166ZM5.24752 21.3333H9.9309C10.3949 23.5016 11.1335 25.5732 12.1618 27.3729C9.13682 26.3524 6.6517 24.1588 5.24752 21.3333ZM19.8385 4.62691C22.8635 5.64745 25.3486 7.84103 26.7528 10.6666H22.0694C21.6054 8.49828 20.8668 6.42659 19.8385 4.62691ZM16.3095 4.18683C17.705 5.8615 18.7255 8.13617 19.3353 10.6666H12.5098C13.0889 8.0059 14.1468 5.7388 15.6095 4.27602C15.6936 4.19195 15.764 4.09944 15.821 4.00123C15.8806 4.00036 15.9403 3.99992 16.0002 3.99992C16.0601 3.99992 16.1199 4.00036 16.1796 4.00123C16.217 4.06561 16.2602 4.12772 16.3095 4.18683ZM11.9478 4.70138C10.9174 6.43056 10.2065 8.4864 9.78901 10.6666H5.24752C6.61845 7.90795 9.01972 5.75171 11.9478 4.70138Z" fill="#121212"/>
</svg>
