<svg width="32" height="32" viewBox="0 0 32 32" fill="none" xmlns="http://www.w3.org/2000/svg">
<g clip-path="url(#clip0_3001_46195)">
<path fill-rule="evenodd" clip-rule="evenodd" d="M15.9998 1.33325C16.7362 1.33325 17.3331 1.93021 17.3331 2.66659V3.99992L27.9998 3.99992C28.7362 3.99992 29.3331 4.59687 29.3331 5.33325C29.3331 6.01788 28.8171 6.58199 28.1528 6.6579L31.859 14.0703C31.9592 14.2706 32.0042 14.484 31.9998 14.6934V16.6666C31.9998 19.9803 29.3135 22.6666 25.9998 22.6666C22.6861 22.6666 19.9998 19.9803 19.9998 16.6666V14.6934C19.9954 14.4841 20.0404 14.2706 20.1406 14.0703L23.8424 6.66659H17.3331L17.3331 25.3333H21.3331C22.8059 25.3333 23.9998 26.5272 23.9998 27.9999V29.3333H7.9998V27.9999C7.9998 26.5272 9.19371 25.3333 10.6665 25.3333H14.6665L14.6665 6.66659H8.15718L11.859 14.0703C11.9592 14.2706 12.0042 14.4841 11.9998 14.6934V16.6666C11.9998 19.9803 9.31351 22.6666 5.9998 22.6666C2.6861 22.6666 -0.000196217 19.9803 -0.000196217 16.6666V14.6934C-0.00458569 14.4841 0.0404173 14.2706 0.140568 14.0703L3.84677 6.6579C3.18246 6.58199 2.66647 6.01788 2.66647 5.33325C2.66647 4.59687 3.26343 3.99992 3.9998 3.99992L14.6665 3.99992V2.66659C14.6665 1.93021 15.2634 1.33325 15.9998 1.33325ZM22.7332 17.3333C23.042 18.8547 24.3872 19.9999 25.9998 19.9999C27.6124 19.9999 28.9576 18.8547 29.2665 17.3333H22.7332ZM22.8239 14.6666L25.9998 8.31467L29.1758 14.6666H22.8239ZM5.9998 19.9999C4.38717 19.9999 3.042 18.8547 2.73315 17.3333H9.26646C8.95761 18.8547 7.61244 19.9999 5.9998 19.9999ZM9.17576 14.6666L5.9998 8.31468L2.82385 14.6666H9.17576Z" fill="#121212"/>
</g>
<defs>
<clipPath id="clip0_3001_46195">
<rect width="32" height="32" fill="white"/>
</clipPath>
</defs>
</svg>
