<svg width="29" height="28" viewBox="0 0 29 28" fill="none" xmlns="http://www.w3.org/2000/svg">
<g clip-path="url(#clip0_1498_46116)">
<path d="M17.7727 5.81223C16.4866 7.11304 14.0439 6.75423 14.0439 6.75423C14.0439 6.75423 13.6901 4.28702 14.9773 2.98621C16.2634 1.6866 18.7061 2.04541 18.7061 2.04541C18.7061 2.04541 19.0599 4.51142 17.7727 5.81223ZM4.5 16.4719C4.5 20.4091 7.10775 24.9319 9.74756 25.8883C10.6619 26.2196 11.6084 25.7623 12.3945 25.1923C12.9906 24.7603 13.7126 24.3487 14.2969 24.3487C14.8788 24.3487 15.6031 24.7603 16.1981 25.1923C16.9842 25.7623 17.9306 26.2196 18.8462 25.8883C20.7212 25.2091 22.5809 22.7287 23.5 19.9363C21.7188 19.4203 20.4196 17.7931 20.4196 15.8647C20.4196 14.0983 21.5109 12.5839 23.063 11.9467C22.0631 10.1515 20.4291 9.19985 18.5826 9.19985C17.6278 9.19985 16.7491 9.58865 16.0413 10.0555C14.9084 10.7995 13.6841 10.7995 12.5524 10.0555C11.8435 9.58865 10.9659 9.19985 10.0112 9.19985C6.96644 9.19985 4.5 11.7859 4.5 16.4719Z" stroke="black" stroke-width="2" stroke-linecap="round" stroke-linejoin="round"/>
</g>
<defs>
<clipPath id="clip0_1498_46116">
<rect width="28" height="28" fill="white" transform="translate(0.5)"/>
</clipPath>
</defs>
</svg>
