<svg width="33" height="33" viewBox="0 0 33 33" fill="none" xmlns="http://www.w3.org/2000/svg">
<g clip-path="url(#clip0_2516_73364)">
<g clip-path="url(#clip1_2516_73364)">
<g clip-path="url(#clip2_2516_73364)">
<path fill-rule="evenodd" clip-rule="evenodd" d="M8.33918 7.94068C8.37136 6.87259 9.26329 5.98066 10.3314 5.94849L24.9181 5.50913C25.431 5.49368 25.9168 5.68261 26.2685 6.03437C26.6203 6.38614 26.8092 6.8719 26.7938 7.38482L26.3544 21.9715C26.3223 23.0396 25.4303 23.9316 24.3622 23.9637C23.2942 23.9959 22.4544 23.1561 22.4866 22.0881L22.7853 12.1703L7.40356 27.552C6.62556 28.33 5.40106 28.3669 4.66855 27.6344C3.93605 26.9019 3.97293 25.6774 4.75093 24.8994L20.1326 9.51765L10.2149 9.81638C9.14679 9.84855 8.30701 9.00877 8.33918 7.94068Z" fill="black"/>
</g>
</g>
</g>
<defs>
<clipPath id="clip0_2516_73364">
<rect width="32" height="32" fill="white" transform="translate(0.566406 0.332031)"/>
</clipPath>
<clipPath id="clip1_2516_73364">
<path d="M0.566406 8.33203C0.566406 3.91375 4.14813 0.332031 8.56641 0.332031H24.5664C28.9847 0.332031 32.5664 3.91375 32.5664 8.33203V24.332C32.5664 28.7503 28.9847 32.332 24.5664 32.332H8.56641C4.14813 32.332 0.566406 28.7503 0.566406 24.332V8.33203Z" fill="white"/>
</clipPath>
<clipPath id="clip2_2516_73364">
<rect width="32" height="32" fill="white" transform="translate(0.566406 0.332031)"/>
</clipPath>
</defs>
</svg>
