<svg width="56" height="56" viewBox="0 0 56 56" fill="none" xmlns="http://www.w3.org/2000/svg">
<rect width="56" height="56" fill="white"/>
<path fill-rule="evenodd" clip-rule="evenodd" d="M30.4467 37.1838L30.6602 36.0935H30.6622C30.7645 35.5671 31.3794 35.2974 31.8378 35.6044L32.7597 36.2253C33.0509 36.4212 33.413 36.4182 33.7002 36.2185C34.6811 35.5365 35.534 34.6834 36.2159 33.7023C36.7776 32.8945 35.6157 32.2302 35.4859 31.5601C35.4052 31.1449 35.6757 30.7424 36.0909 30.6617L37.182 30.4482C37.5263 30.3813 37.7801 30.1225 37.8421 29.7781C38.0526 28.6052 38.0526 27.3958 37.8421 26.2239C37.7801 25.8785 37.5253 25.6207 37.182 25.5538L36.0919 25.3403V25.3383C35.5656 25.236 35.296 24.6209 35.6029 24.1624L36.2237 23.2404C36.4195 22.9491 36.4165 22.587 36.2168 22.2996C35.535 21.3186 34.6821 20.4655 33.7012 19.7835C32.8974 19.2246 32.191 20.3907 31.5594 20.5136C31.1443 20.5943 30.7419 20.3237 30.6612 19.9085L30.4477 18.8182C30.3808 18.4738 30.1221 18.2199 29.7777 18.1579C28.605 17.9474 27.3969 17.9474 26.2243 18.1579C25.8789 18.2199 25.6212 18.4748 25.5543 18.8182L25.3408 19.9095H25.3388C25.2365 20.4359 24.6216 20.7055 24.1631 20.3975L23.2393 19.7747C22.9481 19.5788 22.5861 19.5818 22.2988 19.7815C21.3179 20.4635 20.465 21.3166 19.7832 22.2977C19.2243 23.1016 20.3902 23.8081 20.5131 24.4399C20.5938 24.8551 20.3233 25.2576 19.9081 25.3383L18.818 25.5518C18.4737 25.6187 18.2199 25.8775 18.1579 26.2219C17.9474 27.3948 17.9474 28.6032 18.1579 29.7761C18.2199 30.1215 18.4747 30.3793 18.818 30.4462L19.9081 30.6597V30.6617C20.4344 30.764 20.704 31.3791 20.3961 31.8376L19.7753 32.7596C19.5795 33.0509 19.5825 33.413 19.7822 33.7004C20.464 34.6814 21.317 35.5345 22.2978 36.2165C23.1016 36.7754 23.808 35.6093 24.4396 35.4864C24.8548 35.4057 25.2571 35.6763 25.3378 36.0915L25.5513 37.1818C25.6182 37.5262 25.877 37.7801 26.2213 37.8421C27.393 38.0526 28.6031 38.0526 29.7748 37.8421C30.1211 37.782 30.3788 37.5282 30.4467 37.1838ZM27.999 24.2657C30.061 24.2657 31.7325 25.9376 31.7325 28C31.7325 30.0624 30.061 31.7343 27.999 31.7343C25.9369 31.7343 24.2654 30.0624 24.2654 28C24.2654 25.9376 25.9369 24.2657 27.999 24.2657Z" fill="#1F2228"/>
<path d="M4 28C4 14.7452 14.7452 4 28 4C33.5224 4 38.6092 5.8652 42.6648 9" stroke="#C8CAD9" stroke-width="2"/>
<path d="M52 28C52 41.2548 41.1617 52 27.7919 52C22.2216 52 17.0907 50.1348 13 47" stroke="#C8CAD9" stroke-width="2"/>
<path d="M46.8203 12.4006L39.9565 11.4583L44.2045 5.98519L46.8203 12.4006Z" fill="#C8CAD9"/>
<path d="M9.44949 43.4495L16.1416 45.2426L11.2426 50.1416L9.44949 43.4495Z" fill="#C8CAD9"/>
<circle cx="52" cy="28" r="2" fill="#C8CAD9"/>
<circle cx="4" cy="28" r="2" fill="#C8CAD9"/>
</svg>
