<svg width="37" height="28" viewBox="0 0 37 28" fill="none" xmlns="http://www.w3.org/2000/svg">
<g clip-path="url(#clip0_1498_46106)">
<path d="M7.09282 23.9999C6.54053 23.9999 6.09282 24.4477 6.09282 24.9999C6.09282 25.5522 6.54053 25.9999 7.09282 25.9999V23.9999ZM21.6601 25.9999C22.2124 25.9999 22.6601 25.5522 22.6601 24.9999C22.6601 24.4477 22.2124 23.9999 21.6601 23.9999V25.9999ZM4.89322 5H24.1432V3H4.89322V5ZM25.1848 6.04166V19.335H27.1848V6.04166H25.1848ZM3.85156 19.335V6.04166H1.85156V19.335H3.85156ZM24.1432 20.3767H14.5182V22.3767H24.1432V20.3767ZM14.5182 20.3767H4.89323V22.3767H14.5182V20.3767ZM13.5182 21.3767V24.9999H15.5182V21.3767H13.5182ZM7.09282 25.9999H14.6323V23.9999H7.09282V25.9999ZM14.6323 25.9999H21.6601V23.9999H14.6323V25.9999ZM1.85156 19.335C1.85156 21.0149 3.21336 22.3767 4.89323 22.3767V20.3767C4.31793 20.3767 3.85156 19.9103 3.85156 19.335H1.85156ZM25.1848 19.335C25.1848 19.9103 24.7185 20.3767 24.1432 20.3767V22.3767C25.823 22.3767 27.1848 21.0149 27.1848 19.335H25.1848ZM24.1432 5C24.7185 5 25.1848 5.46637 25.1848 6.04166H27.1848C27.1848 4.3618 25.823 3 24.1432 3V5ZM4.89322 3C3.21336 3 1.85156 4.3618 1.85156 6.04166H3.85156C3.85156 5.46637 4.31793 5 4.89322 5V3Z" fill="black"/>
<path d="M6.35156 18L22.6849 18" stroke="black" stroke-width="2" stroke-linecap="round"/>
</g>
<defs>
<clipPath id="clip0_1498_46106">
<rect width="36" height="28" fill="white" transform="translate(0.5)"/>
</clipPath>
</defs>
</svg>
