<svg width="24" height="25" viewBox="0 0 24 25" fill="none" xmlns="http://www.w3.org/2000/svg">
<g clip-path="url(#clip0_7505_296335)">
<g clip-path="url(#clip1_7505_296335)">
<path d="M12 7.2998C11.4477 7.2998 11 6.85209 11 6.2998C11 5.74752 11.4477 5.2998 12 5.2998H19V12.2998C19 12.8521 18.5523 13.2998 18 13.2998C17.4477 13.2998 17 12.8521 17 12.2998V8.71402L12.7071 13.0069C12.3166 13.3974 11.6834 13.3974 11.2929 13.0069C10.9024 12.6164 10.9024 11.9832 11.2929 11.5927L15.5858 7.2998H12Z" fill="white"/>
<path d="M18 17.2998H12C11.4477 17.2998 11 17.7475 11 18.2998C11 18.8521 11.4477 19.2998 12 19.2998H18C18.5523 19.2998 19 18.8521 19 18.2998C19 17.7475 18.5523 17.2998 18 17.2998Z" fill="white"/>
<path fill-rule="evenodd" clip-rule="evenodd" d="M22 24.2998C23.1046 24.2998 24 23.4044 24 22.2998V2.2998C24 1.19523 23.1046 0.299805 22 0.299805H8C6.89543 0.299805 6 1.19524 6 2.2998V12.2998H0V21.2998C0 22.9567 1.34315 24.2998 3 24.2998H22ZM22 2.2998L8 2.2998V22.2998H22V2.2998ZM6 22.2998H3C2.44771 22.2998 2 21.8521 2 21.2998V14.2998H6V22.2998Z" fill="white"/>
</g>
</g>
<defs>
<clipPath id="clip0_7505_296335">
<rect width="24" height="24" fill="white" transform="translate(0 0.299805)"/>
</clipPath>
<clipPath id="clip1_7505_296335">
<rect width="24" height="24" fill="white" transform="translate(0 0.299805)"/>
</clipPath>
</defs>
</svg>
