<svg width="24" height="25" viewBox="0 0 24 25" fill="none" xmlns="http://www.w3.org/2000/svg">
<g clip-path="url(#clip0_6066_35047)">
<path d="M13 3.5C13 2.94772 13.4477 2.5 14 2.5H21C21.5523 2.5 22 2.94772 22 3.5V10.5C22 11.0523 21.5523 11.5 21 11.5C20.4477 11.5 20 11.0523 20 10.5V5.91421L14.0137 11.9005C13.4859 12.4283 12.6503 12.4877 12.0531 12.0398L9.09384 9.82038L3.70711 15.2071C3.31658 15.5976 2.68342 15.5976 2.29289 15.2071C1.90237 14.8166 1.90237 14.1834 2.29289 13.7929L7.98626 8.09953C8.5141 7.57169 9.34974 7.5123 9.94692 7.96019L12.9062 10.1796L18.5858 4.5L14 4.5C13.4477 4.5 13 4.05228 13 3.5Z" fill="white"/>
<path d="M21 22.5H3C2.44772 22.5 2 22.0523 2 21.5C2 20.9477 2.44772 20.5 3 20.5H21C21.5523 20.5 22 20.9477 22 21.5C22 22.0523 21.5523 22.5 21 22.5Z" fill="white"/>
</g>
<defs>
<clipPath id="clip0_6066_35047">
<rect width="24" height="24" fill="white" transform="translate(0 0.5)"/>
</clipPath>
</defs>
</svg>
