<svg width="40" height="40" viewBox="0 0 40 40" fill="none" xmlns="http://www.w3.org/2000/svg">
<rect x="0.5" y="0.5" width="39" height="39" rx="7.5" fill="#1F2228"/>
<rect x="0.5" y="0.5" width="39" height="39" rx="7.5" stroke="#1F2228"/>
<path d="M19.8897 13.5969C20.9134 13.5969 21.8115 13.1872 22.5839 12.3676C23.3563 11.5481 23.7425 10.5951 23.7425 9.50868C23.7425 9.38936 23.7333 9.2198 23.7149 9C23.5801 9.01884 23.4789 9.03454 23.4115 9.0471C22.4674 9.18526 21.6368 9.6594 20.9195 10.4695C20.2023 11.2796 19.8437 12.1463 19.8437 13.0694C19.8437 13.1762 19.859 13.352 19.8897 13.5969ZM23.5586 28C24.2881 28 25.0942 27.4882 25.977 26.4646C26.8598 25.4409 27.5341 24.2383 28 22.8567C26.2651 21.9398 25.3977 20.6242 25.3977 18.9098C25.3977 17.4779 26.0996 16.2534 27.5035 15.236C26.5287 13.9863 25.2414 13.3614 23.6414 13.3614C22.967 13.3614 22.351 13.465 21.7931 13.6723L21.4437 13.8042L20.9747 13.9926C20.6682 14.1119 20.3893 14.1716 20.1379 14.1716C19.9418 14.1716 19.6843 14.1025 19.3655 13.9643L19.0069 13.8136L18.6667 13.6723C18.1701 13.4588 17.6368 13.352 17.0667 13.352C15.5402 13.352 14.3142 13.8795 13.3885 14.9346C12.4628 15.9896 12 17.3806 12 19.1076C12 21.5379 12.7418 23.783 14.2253 25.8428C15.2552 27.2809 16.1962 28 17.0483 28C17.41 28 17.7686 27.9278 18.1241 27.7833L18.5747 27.5949L18.9333 27.4631C19.436 27.2809 19.8988 27.1899 20.3218 27.1899C20.7693 27.1899 21.2843 27.3061 21.8667 27.5384L22.1517 27.6515C22.7463 27.8838 23.2153 28 23.5586 28Z" fill="white"/>
</svg>
