<svg width="124" height="40" viewBox="0 0 124 40" fill="none" xmlns="http://www.w3.org/2000/svg">
<path fill-rule="evenodd" clip-rule="evenodd" d="M17.3779 3.24102C17.6593 3.1018 17.9658 3.0205 18.2792 3.00194C18.6702 2.98604 19.059 3.06823 19.4101 3.24102L31.594 9.04364C31.9085 9.19339 32.1851 9.41221 32.4033 9.68378C32.6214 9.95534 32.7755 10.2727 32.8539 10.612L35.8616 23.6901C35.9397 24.0288 35.9398 24.3809 35.862 24.7197C35.7841 25.0584 35.6303 25.3751 35.4122 25.6458L26.9844 36.1321C26.7649 36.4038 26.4873 36.6227 26.172 36.7729C25.8567 36.9231 25.5118 37.0007 25.1625 37H11.6398C11.292 37.0009 10.9483 36.9241 10.6339 36.7751C10.3196 36.6262 10.0424 36.409 9.82276 36.1393L1.3878 25.6577C1.34157 25.5988 1.29774 25.5374 1.2563 25.4736C1.08537 25.2138 0.969048 24.9219 0.914386 24.6157C0.859723 24.3095 0.867864 23.9954 0.938314 23.6925L3.9245 10.6288C4.00295 10.2894 4.15699 9.97208 4.37516 9.70051C4.59332 9.42895 4.86997 9.21013 5.18449 9.06038L17.3779 3.24102ZM17.8767 7.70714C18.0109 7.55555 18.1992 7.4627 18.4011 7.44856L18.4131 7.45573C18.615 7.46987 18.8033 7.56273 18.9374 7.71431C19.0716 7.8659 19.1408 8.06409 19.1303 8.26623V8.47424C19.1102 8.70709 19.0767 8.93859 19.0299 9.16759C18.9592 9.60455 18.9312 10.0473 18.9462 10.4897C18.9754 10.6375 19.0612 10.7679 19.1853 10.8531C19.186 10.8686 19.1877 10.8947 19.1898 10.9264C19.1949 11.0026 19.202 11.1107 19.202 11.1783C21.5098 11.3865 23.6636 12.4256 25.2629 14.1023L25.5402 13.9039C25.6892 13.9294 25.8424 13.9128 25.9825 13.8561C26.3295 13.5871 26.6498 13.2852 26.9389 12.9547C27.0884 12.776 27.2481 12.6059 27.417 12.4455L27.5796 12.3164C27.6772 12.2181 27.8006 12.1494 27.9356 12.1184C28.0706 12.0873 28.2116 12.095 28.3423 12.1406C28.4731 12.1863 28.5882 12.268 28.6745 12.3763C28.7608 12.4846 28.8146 12.6151 28.8299 12.7528C28.8451 12.8904 28.8212 13.0295 28.7607 13.1541C28.7002 13.2787 28.6057 13.3836 28.4882 13.4568L28.328 13.5859C28.1333 13.7154 27.9313 13.8335 27.7231 13.9397C27.3373 14.158 26.9737 14.4135 26.6376 14.7024C26.5398 14.8172 26.4909 14.9657 26.5013 15.1161L26.2431 15.3551C27.5362 17.2829 28.0765 19.6183 27.7613 21.9181L28.0554 22.0041C28.1293 22.1366 28.2386 22.2458 28.371 22.3197C28.7989 22.4338 29.2369 22.5059 29.6788 22.5349C29.9132 22.5398 30.1471 22.5581 30.3793 22.5899L30.5945 22.6377C30.7298 22.6552 30.8576 22.7103 30.9633 22.7966C31.069 22.8829 31.1485 22.9971 31.1927 23.1262C31.2368 23.255 31.244 23.3935 31.2136 23.5262C31.1833 23.6589 31.1165 23.7805 31.0208 23.8773C30.9251 23.9741 30.8043 24.0423 30.672 24.0742C30.5396 24.1061 30.401 24.1004 30.2717 24.0579H30.2574C30.2253 24.0492 30.1895 24.0425 30.155 24.0361C30.1227 24.03 30.0916 24.0242 30.0661 24.0172C29.8431 23.9454 29.6243 23.8608 29.411 23.7638C29.0002 23.5985 28.5742 23.4735 28.1391 23.3908C27.9883 23.3856 27.8416 23.4397 27.7303 23.5415L27.4194 23.4865C26.7161 25.6994 25.2258 27.5776 23.2306 28.7655C23.265 28.866 23.3057 28.9642 23.3526 29.0596C23.3117 29.1239 23.284 29.1957 23.2713 29.2708C23.2586 29.346 23.261 29.4229 23.2785 29.4971C23.4555 29.9029 23.6717 30.2904 23.924 30.6543C24.0658 30.8402 24.1967 31.0342 24.3161 31.2352L24.4117 31.4313C24.4802 31.5484 24.5148 31.6821 24.5116 31.8177C24.5084 31.9533 24.4676 32.0853 24.3938 32.199C24.32 32.3127 24.2159 32.4037 24.0934 32.4618C23.9708 32.5198 23.8346 32.5427 23.6998 32.5278C23.565 32.5129 23.437 32.4608 23.3301 32.3774C23.2232 32.2939 23.1416 32.1824 23.0944 32.0553L23.0035 31.8688C22.9198 31.65 22.8487 31.4264 22.7907 31.1994C22.6644 30.7753 22.4971 30.3645 22.291 29.9729C22.2009 29.8521 22.067 29.7714 21.9181 29.7481L21.7746 29.4684C19.6054 30.2902 17.2095 30.2843 15.0443 29.4517L14.877 29.7505C14.7596 29.7689 14.6504 29.8222 14.5638 29.9035C14.3778 30.1263 14.2693 30.4454 14.1553 30.781C14.1065 30.9243 14.0568 31.0706 13.9995 31.2137C13.9423 31.4407 13.8721 31.6643 13.7891 31.8832L13.6983 32.0697C13.6511 32.1968 13.5695 32.3083 13.4626 32.3917C13.3557 32.4751 13.2277 32.5272 13.0929 32.5421C12.9581 32.557 12.8219 32.5342 12.6993 32.4761C12.5768 32.4181 12.4727 32.3271 12.3989 32.2134C12.325 32.0996 12.2843 31.9676 12.2811 31.8321C12.2779 31.6965 12.3125 31.5627 12.3809 31.4456L12.4765 31.2496C12.5959 31.0478 12.7269 30.853 12.8686 30.6662C13.1264 30.2898 13.3473 29.8895 13.5285 29.4708C13.5481 29.3303 13.5257 29.1872 13.464 29.0596L13.5979 28.7798C11.6001 27.5997 10.104 25.7284 9.39234 23.5199L9.07435 23.5749C8.95152 23.4873 8.80655 23.436 8.65595 23.4267C8.22086 23.5094 7.79487 23.6343 7.38401 23.7997C7.17039 23.8918 6.95167 23.9716 6.72892 24.0388L6.53047 24.0627H6.51613C6.38682 24.1052 6.24821 24.1108 6.11588 24.0789C5.98355 24.047 5.86275 23.9787 5.76707 23.8819C5.67142 23.7851 5.60466 23.6635 5.57431 23.5309C5.54396 23.3982 5.55121 23.2597 5.59525 23.1309C5.63929 23.0022 5.71837 22.8882 5.82361 22.802C5.92885 22.7157 6.05607 22.6604 6.19097 22.6425H6.21488L6.40615 22.5947C6.63841 22.5629 6.8723 22.5445 7.10667 22.5397C7.54857 22.5107 7.98657 22.4386 8.41447 22.3245C8.54099 22.2438 8.64798 22.136 8.72768 22.0089L9.03371 21.9204C8.70159 19.6189 9.23118 17.2758 10.5208 15.3408L10.2817 15.1328C10.2734 14.9817 10.2228 14.8359 10.1359 14.712C9.79719 14.4251 9.43124 14.1721 9.04327 13.9565C8.835 13.8503 8.63304 13.7321 8.43838 13.6026L8.28776 13.4831C8.12152 13.364 8.00929 13.1839 7.97568 12.9822C7.94206 12.7805 7.98981 12.5737 8.10844 12.4072C8.17818 12.3215 8.26713 12.2535 8.36807 12.2087C8.46901 12.1638 8.57911 12.1434 8.68942 12.149C8.87446 12.157 9.05207 12.2241 9.19629 12.3403L9.35886 12.4694C9.52789 12.6298 9.68754 12.7998 9.83704 12.9786C10.135 13.3055 10.4641 13.6026 10.8197 13.8656C10.9528 13.936 11.1081 13.9514 11.2524 13.9087L11.5154 14.0952C12.7977 12.7331 14.4579 11.7856 16.2828 11.3744C16.7166 11.2758 17.1568 11.2079 17.6002 11.1711L17.6169 10.8603C17.731 10.7598 17.814 10.6287 17.856 10.4826C17.8752 10.0398 17.8512 9.59615 17.7843 9.15802C17.7375 8.92903 17.704 8.69753 17.6838 8.46468V8.25906C17.6733 8.05692 17.7426 7.85872 17.8767 7.70714ZM17.4878 13.1056C17.2284 13.1338 16.9707 13.1752 16.7155 13.2297C15.3498 13.5365 14.0969 14.2188 13.0982 15.1997L16.235 17.4232C16.329 17.4917 16.4399 17.5333 16.5557 17.5437C16.6715 17.5541 16.788 17.5329 16.8928 17.4824C16.9975 17.4319 17.0866 17.3539 17.1506 17.2567C17.2145 17.1596 17.2509 17.0469 17.2559 16.9307H17.2726L17.4878 13.1056ZM23.6825 15.2117C22.4967 14.0498 20.9619 13.3098 19.3144 13.1053L19.5296 16.9283C19.5314 17.0486 19.5669 17.166 19.6321 17.2671C19.6973 17.3683 19.7896 17.4491 19.8984 17.5004C20.0073 17.5517 20.1283 17.5714 20.2478 17.5574C20.3673 17.5433 20.4804 17.496 20.5744 17.4208L23.6825 15.2117ZM14.8244 19.1996L11.9553 16.6414V16.639C11.0817 18.0609 10.7065 19.7333 10.889 21.3921L14.5709 20.3329V20.321C14.6831 20.2903 14.7848 20.2297 14.8653 20.1458C14.9458 20.0619 15.002 19.9578 15.028 19.8445C15.054 19.7311 15.0488 19.6129 15.0129 19.5023C14.9771 19.3917 14.9119 19.2929 14.8244 19.2164V19.1996ZM25.9228 21.3801C26.0822 19.7232 25.6969 18.0596 24.8254 16.6414L24.8277 16.651L21.9826 19.1996C21.8951 19.2762 21.8299 19.375 21.7941 19.4856C21.7582 19.5962 21.753 19.7144 21.779 19.8277C21.805 19.941 21.8612 20.0452 21.9417 20.1291C22.0222 20.213 22.1239 20.2735 22.236 20.3042V20.3186L25.9228 21.3801ZM18.9845 19.4029H17.813L17.0814 20.309L17.33 21.4494L18.3868 21.9563L19.4387 21.4494L19.7017 20.3114L18.9845 19.4029ZM21.722 22.511C21.6728 22.5053 21.623 22.5053 21.5738 22.511L21.569 22.5229C21.4657 22.5289 21.3653 22.5596 21.2764 22.6125C21.1874 22.6654 21.1125 22.7388 21.0579 22.8267C21.0033 22.9146 20.9706 23.0143 20.9626 23.1175C20.9546 23.2207 20.9715 23.3243 21.0119 23.4195L22.4799 26.9771C23.8904 26.0758 24.9598 24.7296 25.5187 23.1517L21.722 22.511ZM15.4988 22.6082C15.4065 22.557 15.3029 22.5294 15.1973 22.5277L15.1902 22.5349C15.148 22.5308 15.1056 22.5308 15.0635 22.5349L11.3002 23.1756C11.8639 24.7333 12.9241 26.0623 14.3175 26.958L15.7783 23.4386V23.4243C15.82 23.3273 15.837 23.2215 15.8281 23.1163C15.8191 23.011 15.7844 22.9097 15.727 22.821C15.6696 22.7324 15.5912 22.6593 15.4988 22.6082ZM18.7189 24.1577C18.6151 24.0982 18.4968 24.0686 18.3772 24.0722V24.0818C18.2658 24.0836 18.1568 24.1142 18.0608 24.1708C17.9648 24.2274 17.8852 24.3079 17.8297 24.4046L15.9792 27.7518C17.3044 28.2033 18.7291 28.277 20.0938 27.9645C20.3442 27.9076 20.5916 27.8382 20.835 27.7565L18.9797 24.4093H18.9653C18.908 24.3043 18.8227 24.2172 18.7189 24.1577Z" fill="#121212"/>
<path d="M43.1541 20.6736L43.8594 19.9037C44.1016 19.636 44.3367 19.3714 44.5647 19.11L45.2102 18.364C45.411 18.1281 45.584 17.9225 45.729 17.7472H48.4737C47.9254 18.3768 47.3915 18.9769 46.8718 19.5475C46.3506 20.1181 45.78 20.7079 45.16 21.3167C45.5002 21.6295 45.8196 21.9642 46.1163 22.3185C46.4463 22.7058 46.7651 23.1043 47.0727 23.5139C47.3803 23.9236 47.664 24.338 47.9238 24.7572C48.182 25.1716 48.3988 25.5494 48.5741 25.8904H45.9203C45.7609 25.6195 45.5728 25.3214 45.356 24.9963C45.1393 24.6695 44.9161 24.3491 44.6866 24.0351C44.4475 23.7164 44.1973 23.4032 43.9359 23.0955C43.6977 22.82 43.4361 22.5656 43.1541 22.3352V25.9072H40.8445V14.2469L43.1541 13.874V20.676V20.6736ZM56.6146 25.6179C56.1154 25.7544 55.6084 25.8606 55.0964 25.9359C54.451 26.0363 53.7987 26.0858 53.1455 26.0841C52.5567 26.1015 51.9701 26.0066 51.4169 25.8044C50.9911 25.6428 50.6146 25.3734 50.3242 25.0226C50.0476 24.671 49.8517 24.2629 49.7504 23.8271C49.6326 23.3241 49.5757 22.8088 49.5807 22.2922V17.7496H51.8903V22.0053C51.8903 22.7497 51.9883 23.2868 52.1843 23.6167C52.3804 23.9467 52.747 24.1116 53.2841 24.1116C53.4435 24.1116 53.6189 24.1037 53.8101 24.0877C54.0014 24.0718 54.1664 24.0535 54.305 24.0327V17.7448H56.6146V25.6179ZM66.3645 21.8212C66.3727 22.4224 66.2756 23.0203 66.0776 23.588C65.9007 24.0917 65.6178 24.5515 65.248 24.9365C64.8727 25.3177 64.418 25.6115 63.9163 25.7972C63.3405 26.0069 62.7311 26.109 62.1184 26.0985C61.8394 26.0985 61.5478 26.0857 61.2433 26.0602C60.9405 26.0347 60.6408 26.0012 60.3444 25.9598C60.0495 25.9183 59.7682 25.8689 59.5004 25.8115C59.2326 25.7542 58.9935 25.6944 58.7831 25.6322V14.2446L61.0927 13.8716V17.936C61.352 17.8223 61.6219 17.7342 61.8984 17.6731C62.1938 17.6092 62.4952 17.578 62.7974 17.5798C63.3247 17.5691 63.8482 17.6718 64.3323 17.8811C64.7674 18.0755 65.1501 18.3705 65.4488 18.7418C65.7617 19.1399 65.9932 19.5956 66.1302 20.083C66.2915 20.6481 66.3704 21.2336 66.3645 21.8212ZM64.0095 21.759C64.0095 20.2719 63.462 19.5284 62.367 19.5284C62.1289 19.5285 61.8917 19.5598 61.6617 19.6216C61.4617 19.6717 61.2705 19.7523 61.0951 19.8607V24.0519C61.2067 24.0726 61.3501 24.0909 61.5254 24.1069C61.7008 24.1228 61.892 24.1308 62.0992 24.1308C62.3735 24.1497 62.6482 24.1002 62.8986 23.9867C63.149 23.8732 63.3672 23.6992 63.5338 23.4805C63.8733 22.9728 64.0393 22.3689 64.0072 21.759H64.0095ZM67.756 21.8834C67.7421 21.235 67.855 20.5901 68.0884 19.985C68.2865 19.4792 68.5841 19.0183 68.9634 18.6294C69.3191 18.2761 69.744 18.0002 70.2114 17.8189C70.6722 17.6344 71.164 17.5395 71.6603 17.5392C72.8175 17.5392 73.7316 17.893 74.4026 18.6007C75.0721 19.3084 75.4068 20.3492 75.4068 21.7232C75.4068 21.8571 75.402 22.0045 75.3924 22.1655C75.3829 22.3249 75.3725 22.4667 75.3614 22.5911H70.1254C70.1458 22.8172 70.2163 23.036 70.3317 23.2315C70.447 23.4271 70.6044 23.5946 70.7924 23.7219C71.2627 24.0227 71.8153 24.169 72.3728 24.1403C72.7915 24.1405 73.2094 24.1013 73.6208 24.0232C73.9635 23.9648 74.2987 23.8686 74.6202 23.7363L74.931 25.6107C74.7715 25.6864 74.6059 25.7488 74.4361 25.7972C74.2097 25.8638 73.9798 25.9181 73.7475 25.9598C73.4925 26.0076 73.2215 26.0474 72.9346 26.0793C72.6463 26.1099 72.3566 26.1251 72.0668 26.1248C71.4143 26.1389 70.7652 26.0285 70.1541 25.7996C69.6447 25.6046 69.1844 25.3002 68.8056 24.9078C68.4462 24.5249 68.1767 24.0667 68.0166 23.5665C67.8392 23.0241 67.7504 22.4565 67.7536 21.8858L67.756 21.8834ZM73.1785 20.9987C73.1685 20.8041 73.1348 20.6114 73.0781 20.4249C73.0238 20.2443 72.9344 20.0761 72.8151 19.93C72.6913 19.7817 72.5383 19.6604 72.3656 19.5738C72.1551 19.4747 71.9239 19.4272 71.6914 19.4351C71.462 19.4291 71.2342 19.474 71.0243 19.5666C70.8467 19.6488 70.6886 19.7677 70.5605 19.9157C70.4342 20.0644 70.3369 20.2355 70.2736 20.4202C70.2067 20.6089 70.157 20.8034 70.1254 21.0011H73.1785V20.9987ZM82.1012 19.7914C81.894 19.7404 81.6549 19.6862 81.3839 19.6288C81.0879 19.5701 80.7868 19.5413 80.485 19.5427C80.3114 19.5447 80.1381 19.5575 79.9662 19.581C79.812 19.598 79.6593 19.6268 79.5095 19.667V25.8833H77.1999V18.1775C77.6768 18.0158 78.162 17.8801 78.6536 17.7711C79.2715 17.6362 79.9027 17.5713 80.5352 17.5774C80.6595 17.5774 80.8093 17.5854 80.9847 17.6013C81.16 17.6173 81.3353 17.638 81.5107 17.6635C81.686 17.689 81.8613 17.7209 82.0366 17.7591C82.1903 17.7888 82.3407 17.8328 82.4861 17.8906L82.1012 19.7914ZM83.727 18.0269C84.2262 17.8906 84.7332 17.7844 85.2452 17.7089C85.8914 17.6085 86.5445 17.5589 87.1985 17.5607C87.7882 17.5433 88.376 17.6357 88.9319 17.8332C89.3567 17.9895 89.7334 18.2541 90.0245 18.6007C90.3002 18.9457 90.4962 19.3474 90.5983 19.777C90.7165 20.2743 90.7735 20.7841 90.7681 21.2952V25.9H88.4561V21.5725C88.4561 20.8282 88.3581 20.3022 88.162 19.9946C87.966 19.6854 87.5994 19.5308 87.0622 19.5308C86.9028 19.5308 86.7275 19.5387 86.5362 19.5547C86.345 19.5706 86.18 19.5889 86.0413 19.6097V25.8976H83.7318V18.0269H83.727ZM92.4656 21.8834C92.4518 21.235 92.5646 20.5901 92.7979 19.985C92.9961 19.4792 93.2936 19.0183 93.673 18.6294C94.026 18.2773 94.4475 18.0014 94.9114 17.8189C95.3722 17.6345 95.864 17.5395 96.3603 17.5392C97.5175 17.5392 98.4316 17.893 99.1026 18.6007C99.7721 19.3084 100.107 20.3492 100.107 21.7232C100.107 21.8571 100.101 22.0045 100.09 22.1655C100.079 22.3249 100.069 22.4667 100.059 22.5911H94.823C94.8434 22.8172 94.9139 23.036 95.0293 23.2315C95.1446 23.4271 95.302 23.5946 95.49 23.7219C95.9603 24.0227 96.5129 24.169 97.0704 24.1403C97.4891 24.1405 97.907 24.1013 98.3184 24.0232C98.6611 23.9648 98.9963 23.8686 99.3178 23.7363L99.6286 25.6107C99.4691 25.6864 99.3035 25.7488 99.1337 25.7972C98.9073 25.8638 98.6774 25.9181 98.4451 25.9598C98.1901 26.0076 97.9191 26.0474 97.6322 26.0793C97.344 26.1099 97.0542 26.1251 96.7644 26.1248C96.1119 26.1389 95.4628 26.0285 94.8517 25.7996C94.3423 25.6046 93.882 25.3002 93.5032 24.9078C93.1446 24.5223 92.8767 24.0616 92.719 23.5594C92.5448 23.0188 92.4584 22.4537 92.4632 21.8858L92.4656 21.8834ZM97.8881 20.9987C97.8781 20.8041 97.8444 20.6114 97.7876 20.4249C97.7334 20.2443 97.644 20.0761 97.5246 19.93C97.4009 19.7817 97.2479 19.6604 97.0752 19.5738C96.8646 19.4747 96.6335 19.4272 96.4009 19.4351C96.1716 19.429 95.9438 19.4739 95.7339 19.5666C95.5563 19.6488 95.3982 19.7677 95.2701 19.9157C95.1437 20.0644 95.0464 20.2355 94.9832 20.4202C94.9162 20.6089 94.8665 20.8034 94.8349 21.0011H97.8881V20.9987ZM101.821 15.7149L104.131 15.342V17.7328H106.904V19.6455H104.131V22.5145C104.112 22.9177 104.2 23.3186 104.386 23.6765C104.557 23.9634 104.9 24.1069 105.414 24.1069C105.672 24.1062 105.929 24.083 106.182 24.0375C106.427 23.9957 106.667 23.9308 106.899 23.8439L107.224 25.6418C106.922 25.7628 106.611 25.8611 106.294 25.9359C105.882 26.026 105.461 26.0677 105.039 26.0602C104.506 26.0766 103.975 25.9897 103.476 25.8044C103.089 25.653 102.748 25.4062 102.483 25.0871C102.226 24.7636 102.049 24.3845 101.964 23.9801C101.862 23.5089 101.813 23.0278 101.816 22.5456V15.7149H101.821ZM108.133 21.8834C108.119 21.235 108.232 20.5901 108.465 19.985C108.663 19.4792 108.961 19.0183 109.34 18.6294C109.696 18.2762 110.121 18.0003 110.588 17.8189C111.049 17.6345 111.541 17.5395 112.037 17.5392C113.194 17.5392 114.108 17.893 114.779 18.6007C115.449 19.3084 115.784 20.3468 115.784 21.716C115.784 21.8499 115.778 21.9973 115.767 22.1583C115.756 22.3177 115.745 22.4596 115.736 22.5839H110.5C110.521 22.8102 110.591 23.0291 110.707 23.2247C110.823 23.4203 110.981 23.5877 111.169 23.7148C111.64 24.0156 112.192 24.1618 112.75 24.1332C113.168 24.1334 113.586 24.0941 113.998 24.016C114.34 23.9576 114.676 23.8614 114.997 23.7291L115.308 25.6035C115.148 25.6793 114.983 25.7416 114.813 25.79C114.587 25.8567 114.357 25.9109 114.124 25.9526C113.869 26.0004 113.598 26.0403 113.312 26.0722C113.023 26.1027 112.734 26.1179 112.444 26.1176C111.791 26.1317 111.142 26.0213 110.531 25.7924C110.022 25.5975 109.561 25.293 109.182 24.9006C108.82 24.5187 108.547 24.0604 108.384 23.5594C108.211 23.0186 108.125 22.4536 108.131 21.8858L108.133 21.8834ZM113.56 20.9987C113.55 20.8041 113.516 20.6114 113.46 20.4249C113.405 20.2443 113.316 20.0761 113.197 19.93C113.073 19.7817 112.92 19.6604 112.747 19.5738C112.537 19.4747 112.306 19.4272 112.073 19.4351C111.844 19.429 111.616 19.4739 111.406 19.5666C111.224 19.6466 111.062 19.7648 110.93 19.9133C110.804 20.062 110.707 20.2331 110.643 20.4178C110.576 20.6065 110.527 20.801 110.495 20.9987H113.56ZM119.903 24.2384C120.208 24.257 120.514 24.2147 120.802 24.114C120.889 24.0707 120.961 24.0016 121.008 23.9162C121.055 23.8307 121.075 23.7329 121.065 23.6359C121.055 23.5332 121.018 23.4349 120.958 23.351C120.898 23.2671 120.817 23.2004 120.723 23.1577C120.392 22.9681 120.045 22.8081 119.686 22.6795C119.35 22.5568 119.022 22.4172 118.701 22.2611C118.424 22.129 118.171 21.9539 117.95 21.7423C117.742 21.5389 117.58 21.2947 117.472 21.025C117.351 20.7036 117.293 20.3618 117.302 20.0185C117.288 19.6704 117.359 19.3241 117.507 19.0088C117.655 18.6934 117.877 18.4182 118.153 18.2062C118.72 17.7599 119.5 17.5368 120.491 17.5368C120.973 17.5346 121.453 17.5786 121.926 17.6683C122.295 17.7332 122.658 17.8291 123.011 17.9552L122.61 19.7531C122.322 19.6579 122.03 19.5781 121.735 19.514C121.386 19.4385 121.03 19.4025 120.673 19.4064C119.949 19.4064 119.588 19.6081 119.588 20.0113C119.587 20.0932 119.602 20.1745 119.633 20.2504C119.675 20.3352 119.74 20.4071 119.819 20.4584C119.94 20.5415 120.067 20.6142 120.2 20.676C120.359 20.7557 120.563 20.8417 120.812 20.9342C121.243 21.0885 121.662 21.2739 122.067 21.4889C122.358 21.6416 122.622 21.8411 122.849 22.0794C123.033 22.2807 123.171 22.5209 123.25 22.7823C123.333 23.0739 123.372 23.3759 123.367 23.6789C123.387 24.0353 123.314 24.3908 123.155 24.7105C122.996 25.0302 122.757 25.3033 122.461 25.5031C121.856 25.9144 121.001 26.1216 119.898 26.1248C119.291 26.1372 118.685 26.0746 118.093 25.9383C117.753 25.8587 117.419 25.7549 117.094 25.6275L117.481 23.753C117.873 23.9076 118.277 24.0292 118.689 24.1164C119.088 24.1992 119.495 24.2401 119.903 24.2384Z" fill="#121212"/>
</svg>
