<svg width="25" height="24" viewBox="0 0 25 24" fill="none" xmlns="http://www.w3.org/2000/svg">
<path fill-rule="evenodd" clip-rule="evenodd" d="M13.1041 4.57626L6.03155 13.0272L11.928 13.0272C12.6455 13.0272 13.1756 13.7032 13.012 14.4095L11.8669 19.3518L18.8727 10.9806H13.0844C12.3721 10.9806 11.8431 10.3138 11.9976 9.61082L13.1041 4.57626ZM13.9447 0.403576C14.6958 -0.493898 16.1336 0.22718 15.8813 1.37483L14.2199 8.93405H20.8367C21.7845 8.93405 22.2988 10.0552 21.6866 10.7867L10.9663 23.5962C10.2108 24.499 8.76569 23.7638 9.03246 22.6124L10.7791 15.0737L4.06759 15.0737C3.11976 15.0737 2.60548 13.9526 3.21771 13.221L13.9447 0.403576Z" fill="#121212"/>
</svg>
