<svg width="32" height="32" viewBox="0 0 32 32" fill="none" xmlns="http://www.w3.org/2000/svg">
<path fill-rule="evenodd" clip-rule="evenodd" d="M19.3451 5.32904C18.8719 2.9344 16.937 1.55585 15.0516 1.35813C14.1057 1.25893 13.0963 1.44745 12.2622 2.03188C11.4013 2.63505 10.837 3.58523 10.704 4.7723C10.4608 6.94273 9.5415 8.53301 8.65769 9.98451C8.31982 10.5394 7.99866 11.0132 7.70934 11.44C7.61602 11.5776 7.526 11.7104 7.43981 11.8395C7.27274 12.0896 7.10442 12.3491 6.97629 12.5864C6.88174 12.7616 6.66671 13.1674 6.66671 13.6386V27.9994C6.66671 28.736 7.26421 29.333 8.00128 29.333H24.7112C26.467 29.333 28.0323 28.1885 28.5275 26.4822C29.1866 24.2115 30.2764 20.2906 30.5863 18.0989C31.0977 14.4813 29.0967 11.9971 26.6852 11.9971H18.3354C18.4041 11.7452 18.4951 11.4375 18.6071 11.0607L18.6184 11.0229C18.653 10.9066 18.6892 10.7869 18.7264 10.6641C19.1657 9.21285 19.7386 7.32031 19.3451 5.32904ZM13.3565 5.06907C13.4103 4.58953 13.6031 4.34985 13.7946 4.21567C14.0128 4.06275 14.3511 3.96643 14.773 4.01068C15.6232 4.09984 16.5043 4.72126 16.7265 5.84575C16.988 7.16882 16.592 8.48873 16.1501 9.96165C16.1165 10.0738 16.0826 10.1868 16.0486 10.3008L16.0012 10.4599C15.8019 11.127 15.5772 11.8794 15.5252 12.4704C15.4984 12.776 15.4848 13.3172 15.7832 13.8174C16.1639 14.4556 16.808 14.6642 17.3433 14.6642H26.6852C26.9429 14.6642 28.3091 15.1392 27.9434 17.7258C27.6653 19.6924 26.6375 23.419 25.964 25.7393C25.8058 26.2846 25.3014 26.6659 24.7112 26.6659H9.33584V13.8337C9.39988 13.7179 9.50322 13.5547 9.6599 13.3201C9.73059 13.2142 9.80995 13.0972 9.89607 12.9702C10.1898 12.537 10.5625 11.9874 10.9379 11.3708C11.9191 9.75947 13.0522 7.78499 13.3565 5.06907ZM9.28509 13.9363C9.28509 13.9363 9.28697 13.9299 9.29355 13.9156C9.28885 13.9289 9.28509 13.9363 9.28509 13.9363ZM18.182 12.768C18.182 12.768 18.1811 12.762 18.1814 12.7476C18.1826 12.7605 18.182 12.768 18.182 12.768Z" fill="#121212"/>
<path d="M4.00004 14.6663C4.00004 13.93 3.40309 13.333 2.66671 13.333C1.93033 13.333 1.33337 13.93 1.33337 14.6663V27.9997C1.33337 28.7361 1.93033 29.333 2.66671 29.333C3.40309 29.333 4.00004 28.7361 4.00004 27.9997L4.00004 14.6663Z" fill="#121212"/>
</svg>
