<svg width="14" height="15" viewBox="0 0 14 15" fill="none" xmlns="http://www.w3.org/2000/svg">
<g clip-path="url(#clip0_2898_42521)">
<path d="M2.905 1.87831C2.905 2.71892 2.2575 3.40005 1.45833 3.40005C0.659167 3.40005 0.0116667 2.71892 0.0116667 1.87831C0.0116667 1.03831 0.659167 0.356567 1.45833 0.356567C2.2575 0.356567 2.905 1.03831 2.905 1.87831ZM2.91667 4.61744H0V14.3566H2.91667V4.61744ZM7.57283 4.61744H4.67483V14.3566H7.57342V9.24413C7.57342 6.40152 11.0903 6.169 11.0903 9.24413V14.3566H14V8.18987C14 3.39335 8.7955 3.56805 7.57283 5.92918V4.61744Z" fill="#999999"/>
</g>
<defs>
<clipPath id="clip0_2898_42521">
<rect width="14" height="14" fill="white" transform="translate(0 0.356567)"/>
</clipPath>
</defs>
</svg>
