<svg width="232" height="32" viewBox="0 0 232 32" fill="none" xmlns="http://www.w3.org/2000/svg">
<circle cx="5.33333" cy="5.33333" r="5.33333" fill="#5599FF"/>
<circle cx="15.9998" cy="5.33333" r="5.33333" fill="#87B7FF"/>
<ellipse cx="26.6668" cy="5.33333" rx="5.33333" ry="5.33333" fill="#004DED"/>
<circle cx="5.33333" cy="16.0001" r="5.33333" fill="#87B7FF"/>
<ellipse cx="26.4998" cy="16.0001" rx="5.33333" ry="5.33333" fill="#1073FF"/>
<ellipse cx="5.33333" cy="26.6666" rx="5.33333" ry="5.33333" fill="#004DED"/>
<ellipse cx="15.9998" cy="26.6666" rx="5.33333" ry="5.33333" fill="#1073FF"/>
<circle cx="26.6668" cy="26.6666" r="5.33333" fill="#5599FF"/>
<circle cx="71.9998" cy="16.0001" r="5.33333" fill="#E54D57"/>
<ellipse cx="82.6668" cy="5.33333" rx="5.33333" ry="5.33333" fill="#E54D57"/>
<ellipse cx="82.6082" cy="16.0052" rx="5.33333" ry="5.33333" fill="#07D6A5"/>
<ellipse cx="82.6668" cy="5.33333" rx="5.33333" ry="5.33333" fill="#07D6A5"/>
<ellipse cx="71.9998" cy="26.6666" rx="5.33333" ry="5.33333" fill="#07D6A5"/>
<ellipse cx="71.9998" cy="26.6666" rx="5.33333" ry="5.33333" fill="#E54D57"/>
<ellipse cx="61.3333" cy="26.6666" rx="5.33333" ry="5.33333" fill="#07D6A5"/>
<circle cx="82.6668" cy="26.6666" r="5.33333" fill="#07D6A5"/>
<circle cx="117.333" cy="5.33333" r="5.33333" fill="#F9846B"/>
<circle cx="128" cy="5.33333" r="5.33333" fill="#F44429"/>
<circle cx="117.333" cy="16.0001" r="5.33333" fill="#F9846B"/>
<circle cx="128" cy="16.0001" r="5.33333" fill="#F44429"/>
<circle cx="138.667" cy="16.0001" r="5.33333" fill="#D22D14"/>
<circle cx="117.333" cy="26.6668" r="5.33333" fill="#F9846B"/>
<circle cx="128" cy="26.6668" r="5.33333" fill="#F44429"/>
<ellipse cx="184" cy="26.6667" rx="5.33324" ry="5.33342" fill="#767EFF"/>
<ellipse cx="173.333" cy="26.6667" rx="5.33324" ry="5.33342" fill="#767EFF"/>
<ellipse cx="173.333" cy="15.9999" rx="5.33324" ry="5.33342" fill="#767EFF"/>
<ellipse cx="194.667" cy="5.33317" rx="5.33324" ry="5.33342" fill="#D4D1FF"/>
<ellipse cx="194.667" cy="15.9999" rx="5.33324" ry="5.33342" fill="#D4D1FF"/>
<ellipse cx="184" cy="5.33317" rx="5.33324" ry="5.33342" fill="#D4D1FF"/>
<ellipse cx="184" cy="15.9999" rx="5.33324" ry="5.33342" fill="#D4D1FF"/>
</svg>
