<svg width="32" height="32" viewBox="0 0 32 32" fill="none" xmlns="http://www.w3.org/2000/svg">
<path d="M2.6665 5.33342C2.6665 3.86065 3.86041 2.66675 5.33317 2.66675H21.3332C22.8059 2.66675 23.9998 3.86066 23.9998 5.33342V12.0001C23.9998 12.7365 23.4029 13.3334 22.6665 13.3334C21.9301 13.3334 21.3332 12.7365 21.3332 12.0001V5.33341L5.33317 5.33342L5.33317 26.6667H9.33317C10.0696 26.6667 10.6665 27.2637 10.6665 28.0001C10.6665 28.7365 10.0695 29.3334 9.33317 29.3334H5.33317C3.86041 29.3334 2.6665 28.1395 2.6665 26.6667V5.33342Z" fill="#121212"/>
<path d="M7.99984 12.0001C7.99984 11.2637 8.59679 10.6667 9.33317 10.6667L17.3332 10.6668C18.0695 10.6668 18.6665 11.2637 18.6665 12.0001C18.6665 12.7365 18.0695 13.3334 17.3332 13.3334L9.33317 13.3334C8.59679 13.3334 7.99984 12.7365 7.99984 12.0001Z" fill="#121212"/>
<path d="M7.99984 18.6667C7.99984 17.9304 8.59679 17.3334 9.33317 17.3334L14.6665 17.3334C15.4029 17.3334 15.9998 17.9304 15.9998 18.6667C15.9998 19.4031 15.4029 20.0001 14.6665 20.0001H9.33317C8.59679 20.0001 7.99984 19.4031 7.99984 18.6667Z" fill="#121212"/>
<path fill-rule="evenodd" clip-rule="evenodd" d="M15.6478 30.6667C15.7532 30.6666 15.8579 30.6496 15.958 30.6165L21.8485 28.6469C21.9932 28.5984 22.1246 28.5168 22.2324 28.4086L29.5656 21.1027C31.0333 19.6305 31.0335 17.2435 29.566 15.7711C28.8611 15.0639 27.905 14.6666 26.908 14.6668C25.9105 14.6639 24.9534 15.0618 24.2504 15.7718L16.9172 23.0766C16.8099 23.185 16.729 23.3168 16.6806 23.4617L14.7171 29.3707C14.5457 29.8867 14.8239 30.4444 15.3383 30.6163C15.4381 30.6496 15.5426 30.6666 15.6478 30.6667ZM26.9083 17.3751C27.1891 17.375 27.4583 17.4869 27.6568 17.686C28.07 18.1006 28.0699 18.773 27.6565 19.1876L20.6096 26.2064L17.9998 27.3334L19.1139 24.7031L26.1594 17.6869L26.1659 17.6803C26.3601 17.4842 26.6245 17.3743 26.9002 17.3751H26.9083Z" fill="#121212"/>
</svg>
