<svg width="32" height="32" viewBox="0 0 32 32" fill="none" xmlns="http://www.w3.org/2000/svg">
<g clip-path="url(#clip0_791_4854)">
<g clip-path="url(#clip1_791_4854)">
<path fill-rule="evenodd" clip-rule="evenodd" d="M21.963 5.32975C26.7128 7.56907 30 12.4007 30 18C30 18.4935 29.9745 18.9811 29.9246 19.4615C31.1958 20.5616 32 22.1869 32 24C32 27.3137 29.3137 30 26 30C25.2389 30 24.511 29.8583 23.8411 29.5999C21.604 31.115 18.9054 32 16 32C13.0946 32 10.396 31.115 8.15892 29.5999C7.489 29.8583 6.76105 30 6 30C2.68629 30 0 27.3137 0 24C0 22.1869 0.804202 20.5616 2.07536 19.4615C2.02554 18.9811 2 18.4935 2 18C2 12.4007 5.28718 7.56907 10.037 5.32975C10.3703 2.33151 12.9129 0 16 0C19.0871 0 21.6297 2.33151 21.963 5.32975ZM20.7058 26.8258C19.3033 27.5752 17.7012 28 16 28C14.2988 28 12.6967 27.5752 11.2942 26.8258C11.7446 25.9838 12 25.0217 12 24C12 20.6863 9.31371 18 6 18C6 14.2946 8.01532 11.0599 11.0096 9.33225C12.0859 10.9408 13.9193 12 16 12C18.0807 12 19.9141 10.9408 20.9904 9.33226C23.9847 11.0599 26 14.2946 26 18C22.6863 18 20 20.6863 20 24C20 25.0217 20.2554 25.9838 20.7058 26.8258Z" fill="#1F2228"/>
</g>
</g>
<defs>
<clipPath id="clip0_791_4854">
<rect width="32" height="32" fill="white"/>
</clipPath>
<clipPath id="clip1_791_4854">
<rect width="32" height="32" fill="white"/>
</clipPath>
</defs>
</svg>
