<svg width="24" height="25" viewBox="0 0 24 25" fill="none" xmlns="http://www.w3.org/2000/svg">
<g clip-path="url(#clip0_6066_35068)">
<g clip-path="url(#clip1_6066_35068)">
<path fill-rule="evenodd" clip-rule="evenodd" d="M19.1769 19.4636C19.5077 19.1227 20.0191 19.0096 20.4439 19.222C21.0159 19.5079 21.1875 20.2462 20.7498 20.7124C18.5607 23.0438 15.4504 24.5 12 24.5C5.37258 24.5 0 19.1274 0 12.5C0 5.87258 5.37258 0.5 12 0.5C15.4504 0.5 18.5607 1.95624 20.7498 4.28765C21.1875 4.75382 21.0159 5.49206 20.4439 5.77803C20.0191 5.99045 19.5077 5.87726 19.1769 5.5364C17.3596 3.66371 14.8157 2.5 12 2.5C6.47715 2.5 2 6.97715 2 12.5C2 18.0228 6.47715 22.5 12 22.5C14.8157 22.5 17.3596 21.3363 19.1769 19.4636ZM23 10.5H21V11.5H23C23.5523 11.5 24 11.9477 24 12.5C24 13.0523 23.5523 13.5 23 13.5H21V15.5C21 16.0523 20.5523 16.5 20 16.5C19.4477 16.5 19 16.0523 19 15.5V9.5C19 8.94771 19.4477 8.5 20 8.5H23C23.5523 8.5 24 8.94771 24 9.5C24 10.0523 23.5523 10.5 23 10.5ZM13.3062 8.49887C13.6985 8.4966 14.1311 8.49409 14.5353 8.52104C15.0555 8.55572 15.6351 8.64291 16.1729 8.89389C16.7377 9.15747 17.2219 9.58597 17.5481 10.229C17.8619 10.8475 18 11.606 18 12.5001C18 13.3941 17.8619 14.1526 17.5481 14.7712C17.2219 15.4142 16.7377 15.8427 16.1729 16.1062C15.6351 16.3572 15.0555 16.4444 14.5353 16.4791C14.1311 16.506 13.6977 16.5035 13.3054 16.5012C13.2025 16.5006 13.1024 16.5001 13.0063 16.5L13 16.5001C12.4477 16.5001 12 16.0523 12 15.5001V9.50005C12 8.94777 12.4477 8.50005 13 8.50005L13.0073 8.50008C13.1033 8.50005 13.2035 8.49947 13.3062 8.49887ZM14 14.4998C14.1372 14.4972 14.2705 14.4923 14.4022 14.4835C14.8195 14.4557 15.1149 14.3929 15.3271 14.2939C15.5123 14.2075 15.6531 14.0859 15.7644 13.8664C15.8881 13.6225 16 13.206 16 12.5001C16 11.7941 15.8881 11.3776 15.7644 11.1337C15.6531 10.9142 15.5123 10.7927 15.3271 10.7063C15.1149 10.6072 14.8195 10.5444 14.4022 10.5166C14.2705 10.5078 14.1372 10.5029 14 10.5003V14.4998ZM5.71022 8.54291C6.13198 8.41521 6.58761 8.57864 6.83205 8.9453L9 12.1972V9.5C9 8.94771 9.44772 8.5 10 8.5C10.5523 8.5 11 8.94771 11 9.5V15.5C11 15.9407 10.7115 16.3294 10.2898 16.4571C9.86802 16.5848 9.41239 16.4214 9.16795 16.0547L7 12.8028V15.5C7 16.0523 6.55228 16.5 6 16.5C5.44772 16.5 5 16.0523 5 15.5V9.5C5 9.05933 5.28846 8.67061 5.71022 8.54291Z" fill="white"/>
</g>
</g>
<defs>
<clipPath id="clip0_6066_35068">
<rect width="24" height="24" fill="white" transform="translate(0 0.5)"/>
</clipPath>
<clipPath id="clip1_6066_35068">
<rect width="24" height="24" fill="white" transform="translate(0 0.5)"/>
</clipPath>
</defs>
</svg>
