<svg width="128" height="40" viewBox="0 0 128 40" fill="none" xmlns="http://www.w3.org/2000/svg">
<mask id="mask0_6066_34867" style="mask-type:alpha" maskUnits="userSpaceOnUse" x="0" y="5" width="29" height="30">
<path d="M0 5.68982H28.6388V34.3073H0V5.68982Z" fill="#3E3E3E"/>
</mask>
<g mask="url(#mask0_6066_34867)">
<path fill-rule="evenodd" clip-rule="evenodd" d="M14.3063 5.69929C6.39737 5.70678 -0.00747466 12.1186 6.54716e-06 20.0211C0.0065649 27.0978 5.1881 33.1066 12.191 34.1578V29.8277C5.73845 28.6503 1.462 22.4686 2.64132 16.0212C3.81971 9.57294 10.0065 5.30089 16.4591 6.47832C22.9126 7.65575 27.1881 13.8375 26.0097 20.2858C25.1215 25.1414 21.3186 28.9411 16.4591 29.8277V14.0133H15.364L10.5812 18.4275V19.5872H13.6511V34.3074H14.3157C22.2246 34.3093 28.637 27.9031 28.6388 20.0005C28.6398 12.098 22.2293 5.69088 14.3204 5.68994H14.3157L14.3063 5.69929Z" fill="#1F2228"/>
</g>
<path fill-rule="evenodd" clip-rule="evenodd" d="M72.5386 11.991V9.77563H82.5731V12.2144L75.4842 22.742V23.1702H82.5823V25.3865H72.5477V22.9654L79.6266 12.4471V11.991H72.5386ZM51.4232 25.3609H49.1055V14.4501H51.3971V15.1276C52.2817 14.5695 53.2938 14.262 54.3311 14.2361C55.7461 14.2361 56.7183 14.6453 57.2304 15.4654C57.845 16.7258 58.115 18.1343 58.0117 19.54V25.3867H55.7113V19.5757C55.7678 18.7226 55.6402 17.8668 55.3381 17.0708C55.0212 16.5342 54.424 16.2427 53.819 16.3309C53.0968 16.3122 52.378 16.4486 51.7096 16.7312L51.3971 16.856L51.4232 25.3609ZM41.8554 24.3602C41.0649 24.4625 40.2863 24.0944 39.8402 23.4041V23.3659C39.4326 22.4155 39.253 21.3753 39.3181 20.336C39.2411 19.2958 39.4308 18.2527 39.8677 17.3138C40.333 16.6713 41.0887 16.3329 41.8554 16.4247C42.6193 16.3348 43.3714 16.6733 43.834 17.3138C44.2709 18.2527 44.4605 19.2958 44.3836 20.336C44.4568 21.3877 44.2801 22.4404 43.8706 23.4041C43.4236 24.0925 42.6459 24.4606 41.8554 24.3602ZM41.8554 14.2362C40.06 14.2362 38.7776 14.742 38.0082 15.7554C37.1362 17.1159 36.7295 18.7432 36.854 20.3743C36.7469 21.9862 37.138 23.5915 37.9716 24.953C38.7227 25.9856 40.0234 26.5018 41.8554 26.5018C43.6993 26.5018 44.9918 25.9703 45.7301 24.9052C46.571 23.5466 46.9667 21.9394 46.8568 20.3255C46.9713 18.7107 46.5646 17.1025 45.7026 15.7554C44.9332 14.742 43.6508 14.2362 41.8554 14.2362ZM49.1052 29.85H45.7573V34.3102H46.5508V32.4762H48.8117V31.7925H46.5508V30.5662H49.1052V29.85ZM53.4134 34.3102H52.6099V29.85H53.4134V34.3102ZM58.0308 29.85H58.6538L60.7184 32.9312V29.85H61.3787V34.3102H60.8114L58.691 31.1428V34.3102H58.0308V29.85ZM66.9341 30.7816L67.6724 32.5464H66.2173L66.9341 30.7816ZM67.3345 29.85H66.6484L64.7334 34.3102H65.4902L65.9315 33.2406H67.9796L68.4098 34.3102H69.1973L67.3345 29.85ZM73.6955 29.85H74.3115L76.3537 32.9312V29.85H77.0066V34.3102H76.4448L74.3115 31.1428V34.3102H73.6587L73.6955 29.85ZM82.1564 29.8519C81.1346 29.8811 80.3262 30.8811 80.351 32.0858C80.3501 32.1098 80.3501 32.1348 80.3501 32.1588C80.3607 33.3593 81.1931 34.3218 82.2104 34.3092C82.7798 34.3291 83.3261 34.0462 83.698 33.5368L83.2818 33.0461C83.0171 33.4 82.6372 33.6046 82.237 33.6098C82.2246 33.6098 82.2122 33.6088 82.1998 33.6088C81.5154 33.5681 80.9894 32.8822 81.0239 32.0753C81.023 32.0576 81.023 32.0388 81.0222 32.021C81.0133 31.2204 81.557 30.5617 82.237 30.5513C82.6222 30.5648 82.9887 30.7559 83.2553 31.0836L83.6714 30.5304C83.2969 30.0732 82.7753 29.8258 82.237 29.8519C82.2104 29.8508 82.183 29.8508 82.1564 29.8519ZM88.3164 34.3102H89.1199V29.85H88.3164V34.3102ZM94.8411 30.7816L95.5612 32.5464H94.1209L94.8411 30.7816ZM95.2458 29.85H94.5469L92.6289 34.3102H93.3896L93.8166 33.2406H95.8452L96.26 34.3102H97.0928L95.2458 29.85ZM101.549 29.85H102.376V33.5884H104.897V34.3102H101.606L101.549 29.85ZM67.1739 17.043C67.6264 17.7663 67.8315 18.617 67.7587 19.4668H62.7734C62.7188 18.6218 62.9374 17.7826 63.3966 17.0718C63.8913 16.5497 64.5969 16.2814 65.314 16.3437C66.009 16.2747 66.6974 16.5324 67.1739 17.043ZM69.8199 24.0364L69.168 24.113C67.9888 24.1992 66.8479 24.2471 65.7358 24.2471C64.9161 24.3458 64.0935 24.0996 63.4646 23.5669C63.0045 22.9567 62.7801 22.2018 62.8309 21.4402H70.1458L70.3088 19.6105C70.3088 16.0276 68.6598 14.2361 65.382 14.2361C61.9873 14.2361 60.2904 16.315 60.2904 20.4726C60.1571 22.0811 60.554 23.6896 61.4216 25.0518C62.3593 26.0635 63.7072 26.5932 65.0839 26.4888C66.6763 26.4629 68.262 26.2838 69.8199 25.9523V24.0364ZM90.7255 17.0339C91.1681 17.7611 91.3625 18.6109 91.2811 19.4579H86.3287C86.2732 18.6129 86.4925 17.7735 86.9504 17.0626C87.4457 16.5404 88.1507 16.2722 88.8662 16.3344C89.5617 16.2655 90.2485 16.5232 90.7255 17.0339ZM93.3396 24.0282L92.6892 24.1048C91.511 24.1911 90.3711 24.239 89.2599 24.2486C88.4409 24.3492 87.6181 24.102 86.9897 23.5683C86.5261 22.9599 86.3019 22.2039 86.3565 21.4412H93.5705L93.7419 19.6112C93.7419 16.0278 92.0953 14.2361 88.8193 14.2361C85.4216 14.2361 83.7223 16.3153 83.7223 20.4735C83.592 22.0841 83.9934 23.6919 84.8632 25.0524C85.8201 26.0882 87.2052 26.6161 88.6086 26.481C90.1996 26.4551 91.784 26.2759 93.3396 25.9444V24.0282ZM95.9775 25.3867V14.4768H98.5777V15.7862C99.8162 15.0312 101.207 14.5044 102.673 14.2361V16.616C101.456 16.821 100.268 17.1428 99.128 17.5786L98.5964 17.7739V25.3867H95.9775ZM110.685 23.6041C109.568 24.6829 107.828 24.609 106.797 23.4399L106.742 23.4015C106.361 22.4398 106.205 21.3974 106.284 20.3598C106.207 19.3156 106.396 18.2684 106.834 17.3258L106.834 17.3256C106.861 17.2979 106.888 17.2691 106.916 17.2414C108.012 16.1404 109.754 16.1788 110.805 17.3258C111.244 18.2684 111.433 19.3156 111.356 20.3598C111.424 21.4147 111.248 22.4715 110.842 23.4399C110.791 23.4975 110.74 23.5513 110.685 23.6041ZM108.806 14.2361C107.017 14.2361 105.734 14.7439 104.963 15.7613C104.101 17.1137 103.694 18.7281 103.807 20.3493C103.695 21.9685 104.088 23.582 104.926 24.9469C105.678 25.9835 106.963 26.5018 108.806 26.5018C110.649 26.5018 111.942 25.9835 112.695 24.9469C113.529 23.5801 113.922 21.9685 113.814 20.3493C113.927 18.7281 113.521 17.1137 112.659 15.7613C111.888 14.7439 110.595 14.2361 108.806 14.2361Z" fill="#1F2228"/>
</svg>
