<svg width="32" height="32" viewBox="0 0 32 32" fill="none" xmlns="http://www.w3.org/2000/svg">
<path d="M1.3335 24C1.3335 23.2636 1.93045 22.6667 2.66683 22.6667H13.3335C14.0699 22.6667 14.6668 23.2636 14.6668 24C14.6668 24.7364 14.0699 25.3333 13.3335 25.3333L2.66683 25.3333C1.93045 25.3333 1.3335 24.7364 1.3335 24Z" fill="#121212"/>
<path d="M1.3335 5.33333C1.3335 4.59695 1.93045 4 2.66683 4L26.6668 4C27.4032 4 28.0002 4.59695 28.0002 5.33333C28.0002 6.06971 27.4032 6.66667 26.6668 6.66667L2.66683 6.66667C1.93045 6.66667 1.3335 6.06971 1.3335 5.33333Z" fill="#121212"/>
<path d="M2.66683 13.3333C1.93045 13.3333 1.3335 13.9303 1.3335 14.6667C1.3335 15.403 1.93045 16 2.66683 16H26.6668C27.4032 16 28.0002 15.403 28.0002 14.6667C28.0002 13.9303 27.4032 13.3333 26.6668 13.3333H2.66683Z" fill="#121212"/>
<path fill-rule="evenodd" clip-rule="evenodd" d="M25.5705 28.7698C24.9068 29.1322 24.1454 29.3382 23.3359 29.3382C20.7573 29.3382 18.6668 27.2478 18.6668 24.6691C18.6668 22.0904 20.7573 20 23.3359 20C25.9146 20 28.005 22.0904 28.005 24.6691C28.005 25.4811 27.7978 26.2447 27.4332 26.9099C27.4903 26.9512 27.5449 26.9975 27.5964 27.049L30.2702 29.7227C30.7909 30.2434 30.7909 31.0876 30.2702 31.6083C29.7495 32.129 28.9053 32.129 28.3846 31.6083L25.7108 28.9346C25.6588 28.8827 25.6121 28.8275 25.5705 28.7698ZM25.3384 24.6691C25.3384 25.775 24.4419 26.6716 23.3359 26.6716C22.23 26.6716 21.3335 25.775 21.3335 24.6691C21.3335 23.5632 22.23 22.6667 23.3359 22.6667C24.4419 22.6667 25.3384 23.5632 25.3384 24.6691Z" fill="#121212"/>
</svg>
