<svg width="32" height="33" viewBox="0 0 32 33" fill="none" xmlns="http://www.w3.org/2000/svg">
<path d="M23.6093 10.7762C24.13 10.2555 24.13 9.4113 23.6093 8.89061C23.0886 8.36991 22.2444 8.36991 21.7237 8.89061L17.1633 13.451L14.3456 11.5726C13.6581 11.1143 12.7427 11.2049 12.1585 11.7891L8.39036 15.5573C7.86966 16.078 7.86966 16.9222 8.39036 17.4429C8.91106 17.9636 9.75528 17.9636 10.276 17.4429L13.5031 14.2158L16.3207 16.0943C17.0082 16.5526 17.9236 16.4619 18.5079 15.8777L23.6093 10.7762Z" fill="#121212"/>
<path fill-rule="evenodd" clip-rule="evenodd" d="M2.6665 5.83341C2.6665 4.36066 3.33317 3.16675 5.33317 3.16675H26.6665C28.1393 3.16675 29.3332 4.36066 29.3332 5.83341V20.5001C29.3332 21.9728 28.1393 23.1667 26.6665 23.1667H5.33317C3.86041 23.1667 2.6665 21.9728 2.6665 20.5001V5.83341ZM5.33317 5.83341H26.6665V20.5001H5.33317L5.33317 5.83341Z" fill="#121212"/>
<path d="M2.6665 28.5001C2.6665 27.7637 3.26346 27.1667 3.99984 27.1667L27.9998 27.1667C28.7362 27.1667 29.3332 27.7637 29.3332 28.5001C29.3332 29.2365 28.7362 29.8334 27.9998 29.8334L3.99984 29.8334C3.26346 29.8334 2.6665 29.2365 2.6665 28.5001Z" fill="#121212"/>
</svg>
