<svg width="95" height="40" viewBox="0 0 95 40" fill="none" xmlns="http://www.w3.org/2000/svg">
<path d="M3.5366 25.5518H0.52124V6.76978H7.1908C8.99661 6.76978 10.4447 7.33324 11.535 8.46016C12.6423 9.58708 13.196 11.0807 13.196 12.941C13.196 14.7834 12.6423 16.286 11.535 17.4487C10.4447 18.5756 8.99661 19.1391 7.1908 19.1391H3.56215L3.5366 25.5518ZM3.56215 9.58708V16.295H7.13969C8.02556 16.295 8.73255 15.9909 9.26067 15.3827C9.78878 14.7566 10.0528 13.9427 10.0528 12.941C10.0528 11.9393 9.78878 11.1344 9.26067 10.5262C8.73255 9.90012 8.02556 9.58708 7.13969 9.58708H3.56215Z" fill="#1F2228"/>
<path d="M17.6498 25.5518H14.8645V12.5654H17.4198V14.6046H17.4965C17.8372 13.907 18.3398 13.3524 19.0042 12.941C19.6856 12.5117 20.4267 12.2971 21.2274 12.2971C21.7725 12.2971 22.3177 12.4044 22.8628 12.619V15.6242C22.1984 15.3737 21.5511 15.2485 20.9207 15.2485C19.9326 15.2485 19.1405 15.6242 18.5442 16.3754C17.948 17.1088 17.6498 18.0927 17.6498 19.3269V25.5518Z" fill="#1F2228"/>
<path d="M24.0041 8.59432C24.0041 8.12924 24.1659 7.72676 24.4896 7.3869C24.8133 7.04703 25.2051 6.8771 25.6651 6.8771C26.1251 6.8771 26.5169 7.04703 26.8406 7.3869C27.1643 7.72676 27.3261 8.12924 27.3261 8.59432C27.3261 9.09517 27.1643 9.51553 26.8406 9.8554C26.5169 10.1953 26.1251 10.3652 25.6651 10.3652C25.2051 10.3652 24.8133 10.1953 24.4896 9.8554C24.1659 9.51553 24.0041 9.09517 24.0041 8.59432ZM24.2596 25.5518V12.5654H27.045V25.5518H24.2596Z" fill="#1F2228"/>
<path d="M43.8192 12.2933C45.3327 12.2933 46.5179 12.7764 47.3749 13.7426C48.232 14.7087 48.6605 16.0417 48.6605 17.7414V25.5512H45.6791V18.0635C45.6791 16.0059 44.8586 14.9771 43.2175 14.9771C42.4151 14.9771 41.7678 15.2455 41.2755 15.7823C40.8014 16.319 40.5643 17.0526 40.5643 17.983V25.5512H37.583V18.0635C37.583 16.9363 37.4189 16.1401 37.0906 15.6749C36.7624 15.2097 36.1971 14.9771 35.3948 14.9771C34.5196 14.9771 33.8175 15.3171 33.2887 15.997C32.7599 16.6769 32.4955 17.5893 32.4955 18.7344V25.5512H29.5142V12.5617H32.2493V14.4135H32.3314C32.6779 13.7694 33.1976 13.2595 33.8905 12.8838C34.6016 12.4901 35.3583 12.2933 36.1607 12.2933C37.9659 12.2933 39.2241 13.0269 39.9352 14.494C40.2817 13.8499 40.8196 13.3221 41.549 12.9106C42.2966 12.4991 43.0533 12.2933 43.8192 12.2933Z" fill="#1F2228"/>
<path d="M57.8776 25.8285C55.554 25.8285 53.9999 25.21 52.6777 23.9731C51.3945 22.7003 50.8489 21.1582 50.8489 19.1504C50.8489 15.1567 53.3522 12.5706 57.236 12.5706C60.8428 12.5706 63.1878 15.7623 62.8518 20.0284H53.6438C53.8347 22.2462 56.0361 23.5755 58.1985 23.4797C59.4909 23.4224 60.8513 23.0144 62.3484 22.4766L62.5637 24.6991C61.5074 25.1901 59.683 25.8285 57.8776 25.8285ZM53.6438 18.0923H60.1631C60.1963 16.3163 58.9125 14.8118 57.1862 14.8118C54.7858 14.8118 53.9268 16.2004 53.6438 18.0923Z" fill="#1F2228"/>
<path d="M0.52124 31.6273H54.678L53.179 33.837H0.52124V31.6273Z" fill="#53565C"/>
<path d="M94.6118 33.838H60.969L62.4761 31.6284H94.6118V33.838Z" fill="#53565C"/>
<path d="M84.6096 10.4234L81.999 6.5047L75.5257 16.0231L78.8004 19.0172L84.6096 10.4234Z" fill="#53565C"/>
<path d="M73.2401 6.50058L54.7138 33.8607L60.0435 33.8152L75.8131 10.3829L73.2401 6.50058Z" fill="#53565C"/>
<path d="M70.4175 10.4127L73.0091 6.52255L85.8612 25.4204L80.5441 25.3934L70.4175 10.4127Z" fill="#1F2228"/>
<path d="M79.4436 10.4127L82.0352 6.52255L94.8873 25.4204L89.5702 25.3934L79.4436 10.4127Z" fill="#1F2228"/>
<path d="M60.1487 6.49341L65.3645 6.54365L78.2582 25.4431L72.9283 25.3913L60.1487 6.49341Z" fill="#1F2228"/>
<ellipse cx="25.6847" cy="8.70306" rx="2.18815" ry="2.20965" fill="#1F2228"/>
</svg>
