<svg width="33" height="32" viewBox="0 0 33 32" fill="none" xmlns="http://www.w3.org/2000/svg">
<path d="M29.7803 3L32.4448 5.35107C30.7381 6.8488 29.3449 8.29427 28.2651 9.6875C27.2202 11.0459 26.5584 12.0734 26.2798 12.77C26.0011 13.4666 25.7399 14.3026 25.4961 15.2778L25.7051 15.5913C28.0387 15.5913 29.7454 16.0964 30.8252 17.1064C31.9049 18.1165 32.4448 19.6839 32.4448 21.8086C32.4448 23.4456 31.8527 24.9259 30.6685 26.2495C29.519 27.5731 28.0736 28.2349 26.332 28.2349C24.3467 28.2349 22.6922 27.6776 21.3687 26.563C20.0451 25.4484 19.3833 23.6546 19.3833 21.1816C19.3833 17.9076 20.3934 14.529 22.4136 11.0459C24.4686 7.528 26.9242 4.84603 29.7803 3ZM10.397 3L13.0615 5.35107C11.3548 6.8488 9.979 8.27686 8.93408 9.63525C7.88916 10.9937 7.20996 12.0386 6.89648 12.77C6.61784 13.5015 6.35661 14.3374 6.11279 15.2778L6.32178 15.5913C8.65544 15.5913 10.3621 16.0964 11.4419 17.1064C12.5216 18.1165 13.0615 19.6839 13.0615 21.8086C13.0615 23.4456 12.4694 24.9259 11.2852 26.2495C10.1357 27.5731 8.69027 28.2349 6.94873 28.2349C4.96338 28.2349 3.30892 27.6776 1.98535 26.563C0.661784 25.4484 0 23.6546 0 21.1816C0 17.9076 1.01009 14.529 3.03027 11.0459C5.08529 7.528 7.54085 4.84603 10.397 3Z" fill="#E5E5E8"/>
</svg>
