<svg width="32" height="32" viewBox="0 0 32 32" fill="none" xmlns="http://www.w3.org/2000/svg">
<path d="M9.33332 18.6665C10.0697 18.6665 10.6667 18.0695 10.6667 17.3332C10.6667 16.6415 10.14 16.0729 9.46591 16.0063L3.86739 16.0063C3.19326 16.0729 2.66666 16.6415 2.66666 17.3332C2.66666 18.0696 3.26361 18.6665 3.99999 18.6665H5.33332L5.33332 27.9998C5.33332 28.7362 5.93028 29.3332 6.66666 29.3332C7.40304 29.3332 7.99999 28.7362 7.99999 27.9998L7.99999 18.6665H9.33332Z" fill="#009345"/>
<path d="M5.33332 12.0063C5.33332 12.7427 5.93028 13.3397 6.66666 13.3397C7.40304 13.3397 7.99999 12.7427 7.99999 12.0063L7.99999 3.99984C7.99999 3.26346 7.40304 2.6665 6.66666 2.6665C5.93028 2.6665 5.33332 3.26346 5.33332 3.99984L5.33332 12.0063Z" fill="#009345"/>
<path d="M28 25.3332C28.7364 25.3332 29.3333 24.7362 29.3333 23.9998C29.3333 23.2643 28.7378 22.6679 28.0026 22.6665H22.6667C21.9303 22.6665 21.3333 23.2635 21.3333 23.9998C21.3333 24.7362 21.9303 25.3332 22.6667 25.3332H24V27.9998C24 28.7362 24.5969 29.3332 25.3333 29.3332C26.0697 29.3332 26.6667 28.7362 26.6667 27.9998V25.3332L28 25.3332Z" fill="#009345"/>
<path d="M24 18.6665C24 19.4029 24.5969 19.9998 25.3333 19.9998C26.0697 19.9998 26.6667 19.4029 26.6667 18.6665L26.6667 3.99984C26.6667 3.26346 26.0697 2.6665 25.3333 2.6665C24.5969 2.6665 24 3.26346 24 3.99984L24 18.6665Z" fill="#009345"/>
<path d="M18.6678 9.33317C19.4037 9.33255 20 8.73584 20 7.99984C20 7.26346 19.403 6.6665 18.6667 6.6665L17.3333 6.6665V3.99984C17.3333 3.26346 16.7364 2.6665 16 2.6665C15.2636 2.6665 14.6667 3.26346 14.6667 3.99984V6.6665H13.3333C12.5969 6.6665 12 7.26346 12 7.99984C12 8.73622 12.5969 9.33317 13.3333 9.33317L18.6678 9.33317Z" fill="#009345"/>
<path d="M14.6667 27.9998L14.6667 13.3332C14.6667 12.5968 15.2636 11.9998 16 11.9998C16.7364 11.9998 17.3333 12.5968 17.3333 13.3332L17.3333 27.9998C17.3333 28.7362 16.7364 29.3332 16 29.3332C15.2636 29.3332 14.6667 28.7362 14.6667 27.9998Z" fill="#009345"/>
</svg>
