<svg width="32" height="32" viewBox="0 0 32 32" fill="none" xmlns="http://www.w3.org/2000/svg">
<path d="M12.0012 29.3398C11.2648 29.3398 10.6679 28.7427 10.6679 28.006V16.0005C10.6679 15.2639 11.2648 14.6667 12.0012 14.6667C12.7376 14.6667 13.3346 15.2639 13.3346 16.0005V28.006C13.3346 28.7427 12.7376 29.3398 12.0012 29.3398Z" fill="#121212"/>
<path d="M26.6707 28.006C26.6707 28.7427 27.2676 29.3398 28.004 29.3398C28.7404 29.3398 29.3373 28.7427 29.3373 28.006V5.33385C29.3373 4.59718 28.7404 4 28.004 4C27.2676 4 26.6707 4.59718 26.6707 5.33385V28.006Z" fill="#121212"/>
<path d="M18.6693 28.006C18.6693 28.7427 19.2662 29.3398 20.0026 29.3398C20.739 29.3398 21.3359 28.7427 21.3359 28.006V10.6672C21.3359 9.93052 20.739 9.33333 20.0026 9.33333C19.2662 9.33333 18.6693 9.93052 18.6693 10.6672V28.006Z" fill="#121212"/>
<path d="M2.6665 28.006C2.6665 28.7427 3.26346 29.3398 3.99984 29.3398C4.73622 29.3398 5.33317 28.7427 5.33317 28.006V20.0005C5.33317 19.2639 4.73622 18.6667 3.99984 18.6667C3.26346 18.6667 2.6665 19.2639 2.6665 20.0005V28.006Z" fill="#121212"/>
</svg>
