<svg width="128" height="96" viewBox="0 0 128 96" fill="none" xmlns="http://www.w3.org/2000/svg">
<g opacity="0.1" clip-path="url(#clip0_350_314270)">
<g clip-path="url(#clip1_350_314270)">
<path d="M0.667462 -11.3267C0.256206 -11.6953 -0.376015 -11.6607 -0.744644 -11.2495C-1.11327 -10.8382 -1.07872 -10.206 -0.667462 -9.83739L0.667462 -11.3267ZM44.4978 33.2617L43.5722 32.8831L44.4978 33.2617ZM63.878 56.4544L64.7815 56.0258L63.878 56.4544ZM80.796 41.0456L81.7857 41.1886L80.796 41.0456ZM91.2631 28.138L90.2932 28.3814L90.2964 28.3941L90.2999 28.4066L91.2631 28.138ZM101.444 86.802L100.55 87.2506L100.56 87.2701L100.571 87.2891L101.444 86.802ZM115.102 56.4544L114.396 57.163L114.415 57.1815L114.434 57.1991L115.102 56.4544ZM162.528 67.2473L163.515 67.0823L163.513 67.0734L163.511 67.0645L162.528 67.2473ZM172.709 96.5793L173.415 95.8708L173.396 95.8522L173.377 95.8347L172.709 96.5793ZM182.89 77.0246L183.877 77.182L183.879 77.1743L183.88 77.1666L182.89 77.0246ZM192.707 11.8424L192.001 12.551L192.02 12.5695L192.04 12.5871L192.707 11.8424ZM202.888 86.802L201.901 86.967L201.903 86.9759L201.905 86.9848L202.888 86.802ZM213.068 90.0611L212.401 89.3165L212.381 89.334L212.363 89.3526L213.068 90.0611ZM223.249 103.098L222.301 103.415L222.306 103.431L222.312 103.446L223.249 103.098ZM274.153 83.5429L275.101 83.2255L275.096 83.2098L275.09 83.1943L274.153 83.5429ZM284.334 73.7655L285.227 73.3169L285.218 73.2974L285.207 73.2784L284.334 73.7655ZM294.514 129.17L295.463 128.853L295.457 128.837L295.452 128.822L294.514 129.17ZM304.332 96.5793L303.344 96.4219L303.343 96.4296L303.342 96.4373L304.332 96.5793ZM314.512 34.6562L313.549 34.3875L313.546 34.4001L313.542 34.4127L314.512 34.6562ZM324.693 37.9153L323.713 38.1122L323.715 38.1227L323.717 38.1331L324.693 37.9153ZM353.417 34.6562L352.441 34.874L352.447 34.8996L352.454 34.9248L353.417 34.6562ZM-0.667462 -9.83739C-0.348567 -9.55155 0.0334609 -9.01766 0.458672 -8.1944C0.875269 -7.38782 1.29754 -6.37504 1.72456 -5.19923C2.57877 -2.84717 3.42181 0.0719728 4.26256 3.12713C5.09881 6.16595 5.93442 9.34574 6.76141 12.1575C7.58498 14.9575 8.42433 17.4802 9.28704 19.1986L11.0744 18.3013C10.301 16.7606 9.50412 14.3946 8.68014 11.5931C7.85957 8.80323 7.03627 5.6685 6.19088 2.59648C5.34999 -0.459201 4.48866 -3.4472 3.60442 -5.88195C3.16222 -7.09956 2.70674 -8.20011 2.23565 -9.1122C1.77317 -10.0076 1.25756 -10.7977 0.667462 -11.3267L-0.667462 -9.83739ZM9.28704 19.1986C10.1473 20.9121 11.155 22.0334 12.4056 22.4071C13.6919 22.7914 14.8841 22.2859 15.8488 21.6032C16.8179 20.9174 17.7493 19.9193 18.6008 18.9526C19.485 17.9488 20.2799 16.9835 21.0672 16.1994L19.6558 14.7823C18.8069 15.6278 17.9202 16.6994 17.1 17.6307C16.2471 18.5991 15.4514 19.4343 14.6935 19.9706C13.9311 20.5101 13.3962 20.6157 12.9781 20.4908C12.5243 20.3552 11.8504 19.8469 11.0744 18.3013L9.28704 19.1986ZM21.0672 16.1994C21.0265 16.2399 20.804 16.4213 20.4624 16.3504C20.1993 16.2958 20.11 16.1332 20.1569 16.1975C20.2404 16.312 20.3978 16.6511 20.591 17.3321C20.9603 18.6335 21.3369 20.7119 21.7273 23.3668C22.5059 28.6616 23.3076 36.0169 24.2269 43.5275C25.1431 51.0133 26.1752 58.6443 27.4107 64.4113C28.0269 67.2871 28.7049 69.7553 29.4666 71.5235C29.8458 72.4036 30.2706 73.1704 30.7611 73.7327C31.248 74.2909 31.9082 74.7655 32.7426 74.7655V72.7655C32.7237 72.7655 32.5661 72.7594 32.2682 72.4179C31.9737 72.0803 31.6464 71.5283 31.3034 70.7322C30.621 69.1481 29.9753 66.8344 29.3664 63.9923C28.1518 58.3235 27.1288 50.7748 26.2121 43.2845C25.2983 35.8191 24.4892 28.402 23.706 23.0759C23.3156 20.4203 22.9237 18.2261 22.5151 16.7861C22.3194 16.0965 22.0855 15.4478 21.7727 15.0189C21.6215 14.8116 21.3328 14.4884 20.8687 14.3921C20.3261 14.2796 19.901 14.5381 19.6558 14.7823L21.0672 16.1994ZM32.7426 74.7655C33.9212 74.7655 34.8489 74.1109 35.5539 73.2182C36.2498 72.337 36.8147 71.1243 37.2996 69.7315C38.2723 66.9383 39.026 63.1084 39.7543 58.9274C41.2276 50.4692 42.6171 40.4999 45.4233 33.6403L43.5722 32.8831C40.6597 40.0027 39.2295 50.2853 37.7839 58.5842C37.0527 62.7818 36.3222 66.4567 35.4109 69.0738C34.9539 70.3861 34.477 71.3548 33.9842 71.9788C33.5005 72.5913 33.0929 72.7655 32.7426 72.7655V74.7655ZM45.4233 33.6403C45.6366 33.1191 45.8205 32.9735 45.8664 32.9474C45.8749 32.9426 45.8765 32.943 45.8723 32.944C45.868 32.9451 45.8647 32.9452 45.8647 32.9452C45.8654 32.9452 45.8745 32.9454 45.8938 32.9507C45.9135 32.9561 45.9438 32.9667 45.9848 32.9874C46.1669 33.0791 46.447 33.309 46.7936 33.7643C47.1306 34.2069 47.4867 34.8048 47.8409 35.5476C49.2661 38.5364 50.4874 43.5021 50.4874 48.8294H52.4874C52.4874 43.2426 51.2151 37.977 49.6461 34.6867C49.2518 33.8597 48.828 33.1349 48.385 32.5529C47.9516 31.9836 47.4517 31.4869 46.8846 31.2012C46.2767 30.895 45.5567 30.8237 44.8797 31.2078C44.2696 31.5539 43.8596 32.1806 43.5722 32.8831L45.4233 33.6403ZM50.4874 48.8294C50.4874 50.866 51.2322 52.2305 52.5237 53.0736C53.7047 53.8446 55.2384 54.0984 56.6103 54.2797C58.0718 54.4729 59.4081 54.5902 60.5745 54.9685C61.6895 55.33 62.5026 55.8884 62.9745 56.883L64.7815 56.0258C63.9982 54.3748 62.635 53.5341 61.1914 53.066C59.7992 52.6145 58.1947 52.4717 56.8723 52.297C55.4604 52.1104 54.3671 51.8886 53.617 51.3989C52.9775 50.9815 52.4874 50.3005 52.4874 48.8294H50.4874ZM62.9745 56.883C63.6517 58.3105 64.2191 60.0784 64.7606 61.9764C65.2906 63.8346 65.8096 65.8712 66.3568 67.6624C66.9061 69.46 67.5278 71.1678 68.3251 72.4395C69.1166 73.702 70.2341 74.7655 71.8207 74.7655V72.7655C71.2627 72.7655 70.6725 72.4186 70.0195 71.3771C69.3723 70.3446 68.8124 68.8548 68.2696 67.078C67.7247 65.2949 67.2409 63.3804 66.6838 61.4277C66.1381 59.5148 65.534 57.612 64.7815 56.0258L62.9745 56.883ZM71.8207 74.7655C72.7631 74.7655 73.5257 74.2305 74.1085 73.5696C74.6957 72.9038 75.2117 71.99 75.6758 70.9371C76.6073 68.8236 77.4308 65.9111 78.1675 62.6407C79.644 56.0863 80.8211 47.8636 81.7857 41.1886L79.8062 40.9025C78.8381 47.6019 77.6721 55.7391 76.2164 62.2012C75.487 65.4389 74.6971 68.1987 73.8457 70.1305C73.4183 71.1002 73.0004 71.8023 72.6085 72.2467C72.2122 72.696 71.9505 72.7655 71.8207 72.7655V74.7655ZM81.7857 41.1886C82.2766 37.7911 82.9659 34.4964 83.7707 31.6727C84.5804 28.8316 85.4894 26.5309 86.3953 25.0798C86.853 24.3467 87.2582 23.9156 87.5759 23.7122C87.8458 23.5394 87.9753 23.567 88.0904 23.6227C88.2925 23.7206 88.6454 24.0314 89.0673 24.846C89.4774 25.6379 89.894 26.791 90.2932 28.3814L92.233 27.8945C91.8141 26.2258 91.3521 24.9086 90.8432 23.9262C90.3462 22.9666 89.7396 22.1993 88.9623 21.8228C88.0977 21.404 87.2275 21.5606 86.4976 22.0278C85.8155 22.4645 85.2208 23.1844 84.6987 24.0207C83.6451 25.7084 82.675 28.2203 81.8473 31.1245C81.0146 34.0461 80.3081 37.4296 79.8062 40.9025L81.7857 41.1886ZM90.2999 28.4066C92.0944 34.8407 93.8111 47.7821 95.4992 60.0506C96.3396 66.159 97.1713 72.0826 97.9984 76.8887C98.4119 79.2916 98.8265 81.4283 99.2433 83.1764C99.6548 84.9024 100.085 86.3244 100.55 87.2506L102.338 86.3533C101.984 85.65 101.597 84.4239 101.189 82.7126C100.786 81.0234 100.38 78.9334 99.9694 76.5495C99.1489 71.782 98.3217 65.8913 97.4805 59.778C95.8053 47.6032 94.0678 34.4717 92.2263 27.8693L90.2999 28.4066ZM100.571 87.2891C100.844 87.7787 101.261 88.299 101.909 88.4674C102.612 88.6501 103.205 88.3299 103.595 87.9915C103.986 87.6527 104.33 87.172 104.637 86.6478C104.951 86.1109 105.263 85.4654 105.571 84.745C106.795 81.8832 108.099 77.5163 109.37 73.1285C110.651 68.7025 111.904 64.2392 113.04 61.0759C113.613 59.4788 114.127 58.3025 114.562 57.6371C114.793 57.2827 114.913 57.216 114.891 57.2269C114.853 57.2455 114.747 57.2829 114.605 57.257C114.469 57.232 114.4 57.1666 114.396 57.163L115.807 55.7459C115.599 55.5386 115.319 55.3542 114.964 55.2895C114.605 55.2239 114.275 55.3008 114.007 55.4326C113.525 55.6701 113.161 56.1249 112.887 56.543C112.313 57.4226 111.734 58.7955 111.157 60.3999C109.994 63.6397 108.718 68.1892 107.449 72.5722C106.168 76.9934 104.898 81.232 103.732 83.9585C103.443 84.6351 103.168 85.1982 102.911 85.6372C102.647 86.089 102.434 86.3518 102.286 86.48C102.137 86.6086 102.209 86.4789 102.412 86.5317C102.56 86.5701 102.499 86.6401 102.317 86.3148L100.571 87.2891ZM114.434 57.1991C114.74 57.4733 115.064 57.9464 115.385 58.67C115.702 59.3839 115.989 60.2791 116.253 61.3346C116.782 63.4483 117.193 66.0913 117.6 68.9888C118.404 74.721 119.183 81.4509 120.857 86.4514L122.754 85.8166C121.155 81.0397 120.401 74.5594 119.58 68.7109C119.174 65.8181 118.751 63.0781 118.193 60.8492C117.914 59.7332 117.594 58.7171 117.214 57.8589C116.837 57.0102 116.372 56.2503 115.769 55.7098L114.434 57.1991ZM120.857 86.4514C121.281 87.7182 121.734 88.6912 122.238 89.3872C122.743 90.0849 123.366 90.5951 124.14 90.7339C124.914 90.8727 125.607 90.5975 126.156 90.2319C126.702 89.8685 127.205 89.3526 127.658 88.8176C128.117 88.2764 128.569 87.6625 128.998 87.0721C129.436 86.4703 129.848 85.8951 130.257 85.3822C130.668 84.866 131.038 84.4629 131.37 84.1948C131.714 83.918 131.909 83.8749 131.986 83.8749V81.8749C131.245 81.8749 130.61 82.2391 130.116 82.637C129.611 83.0437 129.134 83.5827 128.693 84.1358C128.249 84.6924 127.804 85.3139 127.381 85.8961C126.949 86.4896 126.538 87.047 126.133 87.5242C125.723 88.0077 125.363 88.3575 125.048 88.567C124.736 88.7743 124.571 88.7792 124.493 88.7652C124.414 88.7512 124.192 88.6758 123.858 88.215C123.524 87.7524 123.148 86.994 122.754 85.8166L120.857 86.4514ZM131.986 83.8749C132.069 83.8749 132.268 83.9226 132.624 84.1931C132.968 84.4541 133.34 84.8298 133.765 85.2872C134.168 85.7207 134.631 86.2414 135.084 86.684C135.536 87.1251 136.064 87.5767 136.65 87.8532C137.268 88.1446 138.011 88.2659 138.776 87.9265C139.49 87.6094 140.055 86.9617 140.529 86.1119C141.473 84.4199 142.334 81.4158 143.153 76.5217L141.181 76.1916C140.363 81.0748 139.543 83.7741 138.782 85.1376C138.404 85.8155 138.111 86.0335 137.965 86.0984C137.869 86.1409 137.749 86.1603 137.503 86.0443C137.226 85.9134 136.89 85.6521 136.481 85.2529C136.074 84.8554 135.679 84.4084 135.23 83.9254C134.803 83.4661 134.328 82.9761 133.834 82.6005C133.352 82.2345 132.721 81.8749 131.986 81.8749V83.8749ZM143.153 76.5217C146.435 56.9121 150.056 34.8771 153.296 25.1962L151.399 24.5615C148.095 34.4352 144.444 56.6919 141.181 76.1916L143.153 76.5217ZM153.296 25.1962C153.489 24.6202 153.657 24.279 153.782 24.1003C153.925 23.8949 153.874 24.0856 153.591 24.09C153.319 24.0943 153.261 23.9181 153.406 24.1019C153.528 24.2565 153.692 24.5442 153.884 25.0074C154.659 26.8758 155.473 30.5339 156.317 35.2402C157.155 39.9099 158.005 45.4967 158.875 51.1547C159.744 56.8046 160.633 62.5235 161.545 67.4301L163.511 67.0645C162.606 62.1938 161.722 56.5058 160.852 50.8507C159.984 45.2036 159.129 39.5872 158.286 34.8869C157.449 30.2233 156.604 26.3447 155.731 24.2411C155.511 23.7113 155.264 23.2287 154.976 22.863C154.71 22.5264 154.241 22.0797 153.56 22.0903C152.867 22.1011 152.407 22.5751 152.141 22.9568C151.856 23.3654 151.616 23.9154 151.399 24.5615L153.296 25.1962ZM161.542 67.4124C164.812 86.9499 168.117 93.806 172.042 97.324L173.377 95.8347C170.029 92.8344 166.79 86.6541 163.515 67.0823L161.542 67.4124ZM172.003 97.2878C172.832 98.1129 173.86 98.9527 175.046 99.0995C176.388 99.2654 177.535 98.5297 178.487 97.1461C179.425 95.7832 180.312 93.6154 181.189 90.4284C182.072 87.2215 182.965 82.904 183.877 77.182L181.902 76.8673C180.996 82.5522 180.117 86.7898 179.261 89.8975C178.4 93.025 177.583 94.9311 176.839 96.0125C176.109 97.0732 175.598 97.1524 175.292 97.1146C174.831 97.0576 174.223 96.6753 173.415 95.8708L172.003 97.2878ZM183.88 77.1666C185.518 65.7467 187.16 48.5837 188.791 34.7735C189.61 27.8471 190.424 21.7706 191.234 17.6363C191.642 15.5527 192.036 14.0358 192.403 13.1569C192.601 12.6818 192.725 12.5622 192.711 12.573C192.676 12.6007 192.535 12.6927 192.317 12.6744C192.109 12.6571 192.004 12.5535 192.001 12.551L193.413 11.1339C193.206 10.9277 192.895 10.7158 192.484 10.6814C192.061 10.6461 191.715 10.8121 191.476 11.0005C191.053 11.3327 190.768 11.8815 190.557 12.3867C190.106 13.4683 189.681 15.1596 189.271 17.2518C188.445 21.4689 187.623 27.6141 186.805 34.5389C185.164 48.4311 183.534 65.4888 181.9 76.8827L183.88 77.1666ZM192.04 12.5871C192.039 12.587 192.054 12.6003 192.081 12.636C192.108 12.6711 192.142 12.7212 192.182 12.7901C192.262 12.9296 192.355 13.122 192.455 13.3753C192.657 13.8831 192.867 14.5723 193.084 15.4395C193.517 17.1708 193.95 19.5159 194.383 22.3319C195.248 27.9588 196.098 35.3728 196.939 43.3166C198.617 59.1681 200.259 77.15 201.901 86.967L203.874 86.6369C202.244 76.8993 200.614 59.031 198.928 43.1061C198.087 35.1618 197.233 27.7061 196.36 22.0279C195.924 19.1914 195.479 16.7751 195.024 14.9545C194.797 14.0457 194.562 13.2614 194.314 12.6377C194.082 12.0533 193.787 11.4676 193.374 11.0978L192.04 12.5871ZM201.905 86.9848C202.813 91.8729 203.723 94.8828 204.69 96.5264C205.172 97.3452 205.767 97.9965 206.545 98.2402C207.384 98.5028 208.136 98.2072 208.702 97.7956C209.254 97.3946 209.746 96.8062 210.18 96.2009C210.622 95.5846 211.055 94.8778 211.466 94.1906C212.329 92.7513 213.068 91.4725 213.774 90.7696L212.363 89.3526C211.432 90.2793 210.536 91.8522 209.751 93.1627C209.339 93.8505 208.944 94.4932 208.555 95.0353C208.158 95.5886 207.816 95.9677 207.527 96.1778C207.252 96.3773 207.158 96.3363 207.143 96.3316C207.067 96.3079 206.801 96.1699 206.414 95.5119C205.643 94.202 204.78 91.5084 203.871 86.6192L201.905 86.9848ZM213.736 90.8057C214.441 90.1737 214.955 90.1346 215.401 90.2916C215.965 90.4898 216.666 91.0869 217.471 92.2574C219.064 94.5723 220.663 98.5213 222.301 103.415L224.198 102.78C222.563 97.8964 220.89 93.6976 219.119 91.1239C218.243 89.8501 217.239 88.8176 216.065 88.4048C214.773 87.9507 213.514 88.3189 212.401 89.3165L213.736 90.8057ZM222.312 103.446C223.187 105.799 224.126 108.589 224.979 110.836C225.837 113.1 226.741 115.196 227.705 116.363C228.17 116.927 228.863 117.538 229.775 117.496C230.713 117.453 231.37 116.75 231.828 115.986C232.762 114.427 233.601 111.394 234.416 106.522L232.444 106.192C231.623 111.097 230.826 113.767 230.112 114.958C229.746 115.569 229.577 115.503 229.683 115.498C229.765 115.494 229.623 115.545 229.247 115.09C228.529 114.22 227.728 112.446 226.849 110.127C225.963 107.791 225.13 105.285 224.187 102.749L222.312 103.446ZM234.416 106.522C236.06 96.7007 237.791 78.7303 239.516 60.825C241.245 42.88 242.968 25.0002 244.597 15.2666L242.624 14.9365C240.981 24.7575 239.25 42.7279 237.525 60.6332C235.796 78.5781 234.073 96.4579 232.444 106.192L234.416 106.522ZM244.597 15.2666C245.414 10.3834 246.235 7.68402 246.995 6.32058C247.373 5.64266 247.667 5.4247 247.813 5.35981C247.909 5.3173 248.029 5.29787 248.274 5.41382C248.552 5.54478 248.887 5.80607 249.296 6.20526C249.704 6.60282 250.099 7.04974 250.548 7.53279C250.975 7.99207 251.449 8.4821 251.944 8.85765C252.426 9.22365 253.057 9.58331 253.791 9.58331V7.58331C253.708 7.58331 253.51 7.53557 253.154 7.26503C252.81 7.00403 252.438 6.62836 252.013 6.17101C251.61 5.73744 251.147 5.21681 250.693 4.77413C250.242 4.33308 249.714 3.88144 249.128 3.60501C248.51 3.31357 247.766 3.19229 247.002 3.53171C246.287 3.84875 245.723 4.49648 245.248 5.34628C244.305 7.03825 243.443 10.0423 242.624 14.9365L244.597 15.2666ZM253.791 9.58331C254.528 9.58331 255.161 9.22214 255.647 8.84546C256.145 8.45931 256.62 7.95314 257.053 7.46193C257.527 6.92414 257.889 6.4777 258.331 5.98738C258.749 5.52308 259.121 5.15779 259.459 4.91832C259.803 4.67508 260.003 4.64 260.102 4.64736C260.169 4.65229 260.365 4.68709 260.679 5.0817C261.004 5.48963 261.382 6.19675 261.785 7.35266C262.184 8.49761 262.588 10.0283 262.992 12.0393L264.953 11.6455C264.538 9.58267 264.113 7.95607 263.674 6.69488C263.238 5.44465 262.77 4.49675 262.243 3.83529C261.705 3.16049 261.043 2.71153 260.249 2.6528C259.488 2.5965 258.824 2.91789 258.304 3.28574C257.779 3.65735 257.287 4.15776 256.845 4.64828C256.426 5.11277 255.931 5.71027 255.552 6.14003C255.133 6.61637 254.761 7.00136 254.422 7.26449C254.07 7.53708 253.873 7.58331 253.791 7.58331V9.58331ZM262.992 12.0393C264.617 20.1331 266.247 35.5489 267.933 50.2509C268.774 57.5839 269.627 64.7274 270.499 70.652C271.365 76.5399 272.264 81.3314 273.216 83.8914L275.09 83.1943C274.224 80.8656 273.35 76.2873 272.478 70.3608C271.611 64.4711 270.76 57.356 269.92 50.0231C268.242 35.3931 266.6 19.8473 264.953 11.6455L262.992 12.0393ZM273.205 83.8603C273.421 84.5081 273.652 85.0503 273.905 85.4799C274.151 85.8976 274.464 86.2888 274.882 86.5296C275.352 86.7996 275.872 86.8313 276.354 86.6463C276.783 86.482 277.118 86.1721 277.374 85.8716C277.887 85.2698 278.348 84.3779 278.767 83.4331C279.197 82.4667 279.624 81.3457 280.043 80.2277C280.905 77.931 281.715 75.7172 282.514 74.4527C282.707 74.1473 282.874 73.9408 283.009 73.8143C283.148 73.6836 283.192 73.6951 283.142 73.703C282.906 73.7403 283.036 73.4923 283.46 74.2527L285.207 73.2784C284.722 72.4092 283.955 71.5501 282.831 71.7274C282.337 71.8054 281.94 72.0747 281.64 72.3561C281.336 72.6418 281.065 73.0018 280.824 73.3839C279.885 74.8693 278.99 77.3405 278.171 79.525C277.749 80.6477 277.341 81.7164 276.94 82.6215C276.528 83.5481 276.163 84.2093 275.851 84.5751C275.695 84.7584 275.62 84.7858 275.638 84.779C275.709 84.7517 275.819 84.7611 275.879 84.7956C275.888 84.8008 275.792 84.7433 275.628 84.4656C275.472 84.1997 275.293 83.7998 275.101 83.2255L273.205 83.8603ZM283.44 74.2142C283.793 74.9177 284.181 76.144 284.589 77.8494C284.992 79.5325 285.398 81.61 285.808 83.9689C286.629 88.6865 287.456 94.4753 288.298 100.387C289.138 106.29 289.992 112.313 290.864 117.472C291.731 122.603 292.63 126.973 293.577 129.519L295.452 128.822C294.581 126.48 293.707 122.294 292.836 117.139C291.969 112.011 291.119 106.016 290.278 100.105C289.437 94.202 288.606 88.3803 287.779 83.6261C287.365 81.249 286.951 79.1253 286.534 77.3839C286.123 75.6647 285.692 74.2429 285.227 73.3169L283.44 74.2142ZM293.566 129.488C293.978 130.717 294.454 131.717 295.085 132.267C295.435 132.572 295.9 132.795 296.448 132.744C296.969 132.695 297.378 132.415 297.674 132.12C298.245 131.551 298.715 130.612 299.13 129.528C299.559 128.406 299.979 126.988 300.393 125.34C302.044 118.762 303.687 108.115 305.321 96.7213L303.342 96.4373C301.704 107.858 300.074 118.395 298.453 124.853C298.049 126.464 297.651 127.796 297.262 128.813C296.859 129.867 296.511 130.456 296.263 130.703C296.15 130.815 296.15 130.763 296.262 130.753C296.401 130.74 296.457 130.81 296.399 130.759C296.211 130.596 295.869 130.068 295.463 128.853L293.566 129.488ZM305.319 96.7367C308.967 73.8477 312.224 47.8798 315.482 34.8997L313.542 34.4127C310.256 47.5054 306.968 73.6833 303.344 96.4219L305.319 96.7367ZM315.476 34.9248C316.38 31.6836 317.241 29.3304 318.053 27.8564C318.461 27.1147 318.818 26.6684 319.103 26.435C319.365 26.2196 319.475 26.2512 319.504 26.2581C319.592 26.2795 319.831 26.3928 320.186 26.877C320.53 27.3464 320.906 28.0605 321.303 29.0652C322.094 31.0703 322.898 34.0573 323.713 38.1122L325.673 37.7184C324.852 33.6255 324.02 30.5017 323.163 28.3311C322.736 27.2478 322.286 26.3579 321.799 25.6943C321.323 25.0454 320.727 24.4967 319.974 24.3144C319.162 24.1176 318.425 24.4038 317.834 24.8887C317.265 25.3554 316.762 26.0549 316.301 26.8918C315.374 28.5751 314.463 31.1106 313.549 34.3875L315.476 34.9248ZM323.717 38.1331C325.528 46.2504 327.243 58.4003 328.934 68.2316C329.775 73.1172 330.612 77.4458 331.453 80.3576C331.866 81.7879 332.311 82.9913 332.815 83.7433C333.056 84.1026 333.423 84.5335 333.963 84.7014C334.626 84.9077 335.2 84.6294 335.579 84.2514L334.168 82.8343C334.139 82.8637 334.303 82.7127 334.557 82.7917C334.688 82.8323 334.645 82.8813 334.477 82.6295C334.161 82.1593 333.785 81.2239 333.375 79.8025C332.568 77.0109 331.747 72.7843 330.905 67.8926C329.233 58.1693 327.494 45.8758 325.669 37.6975L323.717 38.1331ZM335.579 84.2514C335.919 83.9137 336.185 83.4314 336.406 82.9311C336.637 82.4093 336.859 81.7718 337.075 81.0466C337.507 79.595 337.938 77.7132 338.366 75.5373C339.224 71.1819 340.09 65.5581 340.954 59.6516C342.688 47.789 344.404 34.8351 346.024 28.3814L344.085 27.8945C342.432 34.4773 340.695 47.5963 338.975 59.3623C338.111 65.2701 337.251 70.8494 336.404 75.151C335.98 77.3037 335.564 79.1138 335.158 80.4757C334.955 81.1573 334.76 81.7069 334.577 82.1224C334.384 82.5595 334.238 82.7646 334.168 82.8343L335.579 84.2514ZM346.024 28.3814C346.425 26.7842 346.821 25.6315 347.198 24.8353C347.587 24.0116 347.9 23.6913 348.063 23.5907C348.125 23.5526 348.141 23.5603 348.128 23.56C348.121 23.5598 348.153 23.5572 348.236 23.6076C348.43 23.7254 348.718 24.0211 349.065 24.5871C349.746 25.6963 350.409 27.4283 351.002 29.3492C351.587 31.2497 352.081 33.2587 352.441 34.874L354.393 34.4384C354.027 32.7946 353.52 30.7297 352.913 28.76C352.312 26.8107 351.589 24.8762 350.77 23.5411C350.367 22.8849 349.877 22.2639 349.274 21.898C348.959 21.7065 348.588 21.5702 348.175 21.5605C347.755 21.5507 347.362 21.6729 347.011 21.8895C346.35 22.2981 345.831 23.0472 345.39 23.9803C344.935 24.941 344.502 26.2326 344.085 27.8945L346.024 28.3814ZM352.454 34.9248L354.272 41.4431L356.199 40.9058L354.381 34.3875L352.454 34.9248Z" fill="black"/>
</g>
</g>
<defs>
<clipPath id="clip0_350_314270">
<rect width="140" height="140" fill="white" transform="translate(0 -44)"/>
</clipPath>
<clipPath id="clip1_350_314270">
<rect width="140" height="140" fill="white" transform="translate(0 -44)"/>
</clipPath>
</defs>
</svg>
