<svg width="32" height="32" viewBox="0 0 32 32" fill="none" xmlns="http://www.w3.org/2000/svg">
<path d="M19.6092 9.71846C20.1301 10.239 20.1304 11.0832 19.6099 11.6041L15.6142 15.6038C15.1575 16.0609 14.4404 16.1291 13.9057 15.7663L10.8545 15.03L8.9421 16.9373C8.42099 17.4576 7.57677 17.4569 7.05649 16.9358C6.5362 16.4147 6.53687 15.5705 7.05798 15.0502L9.74182 12.3727C10.1987 11.9165 10.915 11.8488 11.4493 12.2112L14.4994 12.9468L17.7236 9.71917C18.2441 9.19827 19.0883 9.19795 19.6092 9.71846Z" fill="#009345"/>
<path fill-rule="evenodd" clip-rule="evenodd" d="M13.3334 25.3335C16.1667 25.3335 18.7707 24.3515 20.8236 22.7094L27.0572 28.943C27.5779 29.4637 28.4221 29.4637 28.9428 28.943C29.4635 28.4223 29.4635 27.5781 28.9428 27.0574L22.7092 20.8237C24.3514 18.7709 25.3334 16.1668 25.3334 13.3335C25.3334 6.70608 19.9608 1.3335 13.3334 1.3335C6.70596 1.3335 1.33337 6.70608 1.33337 13.3335C1.33337 19.9609 6.70596 25.3335 13.3334 25.3335ZM13.3334 22.6668C18.488 22.6668 22.6667 18.4882 22.6667 13.3335C22.6667 8.17884 18.488 4.00016 13.3334 4.00016C8.17872 4.00016 4.00004 8.17884 4.00004 13.3335C4.00004 18.4882 8.17872 22.6668 13.3334 22.6668Z" fill="#009345"/>
</svg>
