<svg width="32" height="33" viewBox="0 0 32 33" fill="none" xmlns="http://www.w3.org/2000/svg">
<g clip-path="url(#clip0_197_110222)">
<path fill-rule="evenodd" clip-rule="evenodd" d="M21.3333 16.2695C21.3333 19.215 18.9455 21.6029 16 21.6029C13.0545 21.6029 10.6667 19.215 10.6667 16.2695C10.6667 13.324 13.0545 10.9362 16 10.9362C18.9455 10.9362 21.3333 13.324 21.3333 16.2695ZM18.6667 16.2695C18.6667 17.7423 17.4728 18.9362 16 18.9362C14.5272 18.9362 13.3333 17.7423 13.3333 16.2695C13.3333 14.7968 14.5272 13.6029 16 13.6029C17.4728 13.6029 18.6667 14.7968 18.6667 16.2695Z" fill="#121212"/>
<path fill-rule="evenodd" clip-rule="evenodd" d="M18.5696 1.51452C17.2587 -0.145466 14.7413 -0.145466 13.4304 1.51452L12.2411 3.02043C11.5363 3.9129 10.4189 4.37575 9.28941 4.24306L7.38364 4.01916C5.28286 3.77236 3.50282 5.55239 3.74963 7.65317L3.97353 9.55895C4.10622 10.6884 3.64337 11.8058 2.7509 12.5106L1.24499 13.6999C-0.414997 15.0109 -0.414998 17.5282 1.24499 18.8392L2.7509 20.0284C3.64337 20.7333 4.10622 21.8507 3.97353 22.9801L3.74963 24.8859C3.50282 26.9867 5.28286 28.7667 7.38364 28.5199L9.28941 28.296C10.4189 28.1633 11.5363 28.6262 12.2411 29.5186L13.4304 31.0245C14.7413 32.6845 17.2587 32.6845 18.5696 31.0245L19.7589 29.5186C20.4637 28.6262 21.5811 28.1633 22.7106 28.296L24.6164 28.5199C26.7171 28.7667 28.4972 26.9867 28.2504 24.8859L28.0265 22.9801C27.8938 21.8507 28.3566 20.7333 29.2491 20.0284L30.755 18.8392C32.415 17.5282 32.415 15.0109 30.755 13.6999L29.2491 12.5106C28.3566 11.8058 27.8938 10.6884 28.0265 9.55895L28.2504 7.65317C28.4972 5.55239 26.7171 3.77236 24.6164 4.01916L22.7106 4.24306C21.5811 4.37575 20.4637 3.9129 19.7589 3.02043L18.5696 1.51452ZM16.4769 3.16725L17.6662 4.67315C18.945 6.29247 20.9724 7.13227 23.0217 6.89151L24.9275 6.66761C25.3174 6.62181 25.6477 6.95215 25.6019 7.34202L25.378 9.2478C25.1373 11.2971 25.9771 13.3245 27.5964 14.6034L29.1023 15.7927C29.4104 16.0359 29.4104 16.5031 29.1023 16.7464L27.5964 17.9357C25.9771 19.2145 25.1373 21.242 25.378 23.2913L25.6019 25.197C25.6477 25.5869 25.3174 25.9173 24.9275 25.8715L23.0217 25.6476C20.9724 25.4068 18.945 26.2466 17.6662 27.8659L16.4769 29.3718C16.2336 29.6799 15.7664 29.6799 15.5231 29.3718L14.3338 27.8659C13.055 26.2466 11.0276 25.4068 8.97827 25.6476L7.07249 25.8715C6.68262 25.9173 6.35228 25.5869 6.39808 25.197L6.62198 23.2913C6.86274 21.242 6.02294 19.2145 4.40362 17.9357L2.89772 16.7464C2.58965 16.5031 2.58965 16.0359 2.89772 15.7927L4.40362 14.6034C6.02293 13.3246 6.86274 11.2971 6.62198 9.2478L6.39808 7.34202C6.35228 6.95215 6.68262 6.62181 7.07249 6.66761L8.97827 6.89151C11.0276 7.13227 13.055 6.29247 14.3338 4.67315L15.5231 3.16725C15.7664 2.85918 16.2336 2.85918 16.4769 3.16725Z" fill="#121212"/>
</g>
<defs>
<clipPath id="clip0_197_110222">
<rect width="32" height="32" fill="white" transform="translate(0 0.269531)"/>
</clipPath>
</defs>
</svg>
