<svg width="32" height="32" viewBox="0 0 32 32" fill="none" xmlns="http://www.w3.org/2000/svg">
<g clip-path="url(#clip0_809_28098)">
<path d="M26.7351 12.4211C26.9679 13.1197 27.723 13.4973 28.4216 13.2644C29.1202 13.0316 29.4978 12.2765 29.2649 11.5779C28.5711 9.49663 27.6378 7.54256 25.9309 6.13694C24.2006 4.71199 21.8625 3.99951 18.6667 3.99951L7.21896 3.99951L8.9428 2.27565C9.46349 1.75494 9.46349 0.910726 8.94279 0.39003C8.42208 -0.130666 7.57787 -0.130661 7.05717 0.390043L3.05718 4.39009C2.80713 4.64014 2.66666 4.97928 2.66666 5.3329C2.66666 5.68652 2.80714 6.02566 3.05719 6.27571L7.05719 10.2757C7.57789 10.7964 8.4221 10.7964 8.9428 10.2756C9.46349 9.75494 9.46349 8.91073 8.94279 8.39003L7.21892 6.66618L18.6667 6.66618C21.4708 6.66618 23.1327 7.28703 24.2357 8.19542C25.3622 9.12313 26.0955 10.5024 26.7351 12.4211Z" fill="#009345"/>
<path d="M6.59895 19.5786C6.36609 18.88 5.61099 18.5025 4.9124 18.7353C4.21381 18.9682 3.83627 19.7233 4.06913 20.4219C4.76288 22.5031 5.69627 24.4572 7.4031 25.8628C9.13339 27.2878 11.4715 28.0002 14.6674 28.0002L26.1151 28.0002L24.3912 29.7241C23.8705 30.2448 23.8705 31.089 24.3912 31.6097C24.9119 32.1304 25.7562 32.1304 26.2768 31.6097L30.2768 27.6097C30.5269 27.3596 30.6674 27.0205 30.6674 26.6668C30.6674 26.3132 30.5269 25.9741 30.2768 25.724L26.2768 21.7241C25.7561 21.2034 24.9119 21.2034 24.3912 21.7241C23.8705 22.2448 23.8705 23.089 24.3912 23.6097L26.1151 25.3336L14.6674 25.3336C11.8632 25.3336 10.2014 24.7127 9.09832 23.8043C7.97181 22.8766 7.23854 21.4974 6.59895 19.5786Z" fill="#009345"/>
<path d="M12 16.0002C12 15.2638 11.403 14.6668 10.6667 14.6668C9.93028 14.6668 9.33332 15.2638 9.33332 16.0002L9.33332 20.0002C9.33332 20.7365 9.93028 21.3335 10.6667 21.3335C11.403 21.3335 12 20.7365 12 20.0002V16.0002Z" fill="#009345"/>
<path d="M16 9.3335C16.7364 9.3335 17.3333 9.93045 17.3333 10.6668V20.0002C17.3333 20.7365 16.7364 21.3335 16 21.3335C15.2636 21.3335 14.6667 20.7365 14.6667 20.0002V10.6668C14.6667 9.93045 15.2636 9.3335 16 9.3335Z" fill="#009345"/>
<path d="M22.6667 13.3335C22.6667 12.5971 22.0697 12.0002 21.3333 12.0002C20.5969 12.0002 20 12.5971 20 13.3335L20 20.0002C20 20.7365 20.5969 21.3335 21.3333 21.3335C22.0697 21.3335 22.6667 20.7365 22.6667 20.0002L22.6667 13.3335Z" fill="#009345"/>
</g>
<defs>
<clipPath id="clip0_809_28098">
<rect width="32" height="32" fill="white"/>
</clipPath>
</defs>
</svg>
