<svg width="32" height="32" viewBox="0 0 32 32" fill="none" xmlns="http://www.w3.org/2000/svg">
<path d="M10.0002 3.99992C13.0988 3.99992 15.6488 6.34878 15.9668 9.3631C16.7795 8.97436 17.6356 8.66173 18.5258 8.43441C17.7889 4.39521 14.2521 1.33325 10.0002 1.33325C5.21369 1.33325 1.3335 5.21345 1.3335 9.99992C1.3335 14.2519 4.39546 17.7887 8.43465 18.5256C8.66197 17.6353 8.97461 16.7793 9.36334 15.9665C6.34902 15.6485 4.00016 13.0985 4.00016 9.99992C4.00016 6.68621 6.68645 3.99992 10.0002 3.99992Z" fill="#121212"/>
<path d="M21.3335 2.66659C20.5971 2.66659 20.0002 3.26354 20.0002 3.99992C20.0002 4.7363 20.5971 5.33325 21.3335 5.33325L26.6668 5.33325V10.6666C26.6668 11.403 27.2638 11.9999 28.0002 11.9999C28.7365 11.9999 29.3335 11.403 29.3335 10.6666V3.99992C29.3335 3.26354 28.7365 2.66659 28.0002 2.66659L21.3335 2.66659Z" fill="#121212"/>
<path d="M10.6668 29.3333C11.4032 29.3333 12.0002 28.7363 12.0002 27.9999C12.0002 27.2635 11.4032 26.6666 10.6668 26.6666H5.3335L5.3335 21.3333C5.3335 20.5969 4.73654 19.9999 4.00016 19.9999C3.26378 19.9999 2.66683 20.5969 2.66683 21.3333L2.66683 27.9999C2.66683 28.7363 3.26378 29.3333 4.00016 29.3333H10.6668Z" fill="#121212"/>
<path fill-rule="evenodd" clip-rule="evenodd" d="M22.0002 30.6666C26.7866 30.6666 30.6668 26.7864 30.6668 21.9999C30.6668 17.2135 26.7866 13.3333 22.0002 13.3333C17.2137 13.3333 13.3335 17.2134 13.3335 21.9999C13.3335 26.7864 17.2137 30.6666 22.0002 30.6666ZM22.0002 27.9999C25.3139 27.9999 28.0002 25.3136 28.0002 21.9999C28.0002 18.6862 25.3139 15.9999 22.0002 15.9999C18.6865 15.9999 16.0002 18.6862 16.0002 21.9999C16.0002 25.3136 18.6865 27.9999 22.0002 27.9999Z" fill="#121212"/>
</svg>
