<svg width="128" height="96" viewBox="0 0 128 96" fill="none" xmlns="http://www.w3.org/2000/svg">
<g opacity="0.1" clip-path="url(#clip0_355_314383)">
<g clip-path="url(#clip1_355_314383)">
<path d="M43.6489 54.3374C24.4705 54.4538 8.82904 39.0012 8.71229 19.8228C8.5959 0.644078 24.0489 -14.9974 43.2272 -15.1138C62.4056 -15.2305 78.0475 0.222453 78.1638 19.4008C78.2802 38.5795 62.8276 54.221 43.6489 54.3374ZM43.1848 -22.1242C20.1343 -21.9844 1.56203 -3.18522 1.7022 19.8653C1.84201 42.9154 20.6412 61.4877 43.6917 61.3478C66.7418 61.208 85.3144 42.4085 85.1743 19.3584C85.0341 -3.69175 66.2349 -22.2644 43.1848 -22.1242Z" stroke="#121212" stroke-width="2"/>
<path d="M84.8264 10.141C86.7709 9.41186 90.6002 9.00619 93.7403 8.9871C116.79 8.84693 135.59 27.4196 135.73 50.4697C135.87 73.5198 117.297 92.3194 94.2472 92.4592C74.4806 92.5791 57.8403 78.9387 53.412 60.5143" stroke="#121212" stroke-width="2"/>
<path d="M29.9983 24.2807L43.439 43.9937L56.8796 24.2807L43.7969 30.96L29.9983 24.2807Z" stroke="#121212" stroke-width="2" stroke-miterlimit="10" stroke-linecap="round" stroke-linejoin="round"/>
<path d="M43.9109 24.2803L29.9983 16.8599L43.4392 -6.18525L56.8796 16.8599L43.9109 24.2803Z" stroke="#121212" stroke-width="2" stroke-miterlimit="10" stroke-linecap="round" stroke-linejoin="round"/>
<path d="M29.9983 17.1128L43.4392 13.5286L56.8796 17.1128" stroke="#121212" stroke-width="2" stroke-miterlimit="10" stroke-linecap="round" stroke-linejoin="round"/>
<path d="M92.5114 33.6721H94.1874V29.1725C94.1874 28.6202 94.6351 28.1725 95.1874 28.1725H99.8674C100.42 28.1725 100.867 28.6202 100.867 29.1725V34.1237C103.535 34.5932 105.624 35.4496 107.089 36.7832C108.744 38.2907 109.485 40.2999 109.485 42.6854V43.9294C109.485 45.8985 108.978 47.6102 107.829 48.992C107.21 49.7362 106.431 50.3542 105.501 50.8608C106.776 51.4334 107.804 52.1691 108.586 53.074C109.871 54.5598 110.4 56.3917 110.4 58.4131V61.2497C110.4 63.7459 109.473 65.8277 107.635 67.3714C105.999 68.7453 103.707 69.6404 100.867 70.1096V74.4463C100.867 74.9986 100.42 75.4463 99.8674 75.4463H95.1874C94.6351 75.4463 94.1874 74.9986 94.1874 74.4463V70.5113H92.5114V74.4463C92.5114 74.9986 92.0637 75.4463 91.5114 75.4463H86.832C86.2798 75.4463 85.832 74.9986 85.832 74.4463V70.5113H81.1041C80.5518 70.5113 80.1041 70.0635 80.1041 69.5113V42.042C80.1041 41.9036 80.1329 41.7667 80.1885 41.64L83.4247 34.2701C83.5842 33.9068 83.9435 33.6721 84.3403 33.6721H85.832V29.1725C85.832 28.6202 86.2798 28.1725 86.832 28.1725H91.5114C92.0637 28.1725 92.5114 28.6202 92.5114 29.1725V33.6721ZM95.5019 63.5339C96.9951 63.5339 97.9286 63.3198 98.4732 62.9561C98.9257 62.6539 99.2453 62.1552 99.2453 61.1002V58.0643C99.2453 56.6292 98.8688 55.9583 98.2876 55.5616C97.6006 55.0925 96.3962 54.8335 94.3373 54.8335H91.2584V63.5339H95.5019ZM94.6699 40.6487H91.2584V47.8569H93.8373C95.4969 47.8569 96.6409 47.631 97.3461 47.2045C97.952 46.8382 98.3303 46.2682 98.3303 45.1741V43.2327C98.3303 42.183 98.0418 41.6344 97.6072 41.2996C97.1118 40.9179 96.2198 40.6487 94.6699 40.6487Z" stroke="#121212" stroke-width="2" stroke-linejoin="round"/>
</g>
</g>
<defs>
<clipPath id="clip0_355_314383">
<rect width="140" height="140" fill="white" transform="translate(0 -44)"/>
</clipPath>
<clipPath id="clip1_355_314383">
<rect width="140" height="140" fill="white" transform="translate(0 -44)"/>
</clipPath>
</defs>
</svg>
