<svg width="32" height="32" viewBox="0 0 32 32" fill="none" xmlns="http://www.w3.org/2000/svg">
<g id="support-24">
<path id="shape" fill-rule="evenodd" clip-rule="evenodd" d="M16.0002 2.66667C19.6821 2.66667 24.0002 5.43026 24.0002 9.11215V25.3333H19.7726C19.2234 23.7797 17.7418 22.6667 16.0002 22.6667C13.791 22.6667 12.0002 24.4575 12.0002 26.6667C12.0002 28.8758 13.791 30.6667 16.0002 30.6667C17.7418 30.6667 19.2234 29.5536 19.7726 28H24.0002C25.3335 28 26.6668 26.6667 26.6668 25.3333V21.3333H28.0002C29.3335 21.3333 30.6668 20 30.6668 18.6667V10.6667C30.6668 9.33333 29.3335 8.00104 28.0002 8L26.6668 8.00078C26.1203 3.6156 20.5333 0 16.0002 0C11.4669 0 5.87981 3.61679 5.3335 8.00208H4.00016C2.66683 8 1.3335 9.33333 1.3335 10.6667V18.6667C1.3335 20 2.66683 21.3333 4.00016 21.3333H5.77794C7.3335 21.3333 8.00016 20 8.00016 18.6667V9.11111C8.00016 5.42921 12.3183 2.66667 16.0002 2.66667ZM26.6386 8.0008L26.6668 8.00078C26.6668 8.00069 26.6668 8.00087 26.6668 8.00078C26.6707 8.00066 26.6596 8.00085 26.6386 8.0008ZM26.2224 8.00104L26.6386 8.0008C26.5368 8.00057 26.2034 8.00104 26.2224 8.00104ZM17.3335 26.6667C17.3335 25.9303 16.7365 25.3333 16.0002 25.3333C15.2638 25.3333 14.6668 25.9303 14.6668 26.6667C14.6668 27.403 15.2638 28 16.0002 28C16.7365 28 17.3335 27.403 17.3335 26.6667ZM26.6668 10.6667V18.6667H28.0002V10.6667H26.6668ZM4.00016 10.6667H5.3335V18.6667H4.00016V10.6667Z" fill="#121212"/>
</g>
</svg>
