<svg width="128" height="96" viewBox="0 0 128 96" fill="none" xmlns="http://www.w3.org/2000/svg">
<g opacity="0.1" clip-path="url(#clip0_402_39829)">
<g clip-path="url(#clip1_402_39829)">
<g clip-path="url(#clip2_402_39829)">
<rect x="4.83331" y="-15.1025" width="55.2901" height="55.2901" rx="27.6451" stroke="#121212" stroke-width="2"/>
<path d="M25.3689 -5.27458L30.6857 -3.63395M19.0453 16.0333L25.1868 17.8463M35.8506 -8.1001L34.1189 -2.32753M28.164 17.8461L26.3107 24.2263M41.1067 -6.581L39.3142 -0.565375M33.4505 19.3348L31.5668 25.7758M30.1346 -3.82811L40.03 -0.929662C42.8096 -0.115496 44.4029 2.79783 43.5887 5.57742C42.7746 8.35702 39.8612 9.95032 37.0816 9.13616L27.1862 6.23771L30.1346 -3.82811ZM27.1664 6.22341L37.3945 9.21931C40.5011 10.1293 42.2819 13.3853 41.3719 16.4919C40.462 19.5985 37.2059 21.3793 34.0993 20.4693L23.8712 17.4734L27.1664 6.22341Z" stroke="#121212" stroke-width="2"/>
<rect x="37.3925" y="38.71" width="55.2901" height="55.2901" rx="27.6451" stroke="#121212" stroke-width="2"/>
<path d="M52.3786 65.5349H67.1442M59.8526 52.896L69.1733 53.1541C74.8097 53.3102 79.1317 58.2128 78.5797 63.8243L78.084 68.8644C77.4965 74.8366 72.4743 79.3891 66.4733 79.3891H56.146L59.8526 52.896Z" stroke="#121212" stroke-width="2"/>
<rect x="67.4918" y="-15.1025" width="55.2901" height="55.2901" rx="27.6451" stroke="#121212" stroke-width="2"/>
<path d="M86.1107 13.1591L95.4196 -4.12891L104.728 13.1591L95.4196 28.4523L86.1107 13.1591Z" stroke="#121212" stroke-width="2" stroke-linejoin="round"/>
<rect x="99.5641" y="38.71" width="55.2901" height="55.2901" rx="27.6451" stroke="#121212" stroke-width="2"/>
<path d="M128.576 48.6426L119.765 79.2676H140.303M115.086 69.7884L132.1 64.0766" stroke="#121212" stroke-width="2" stroke-linejoin="round"/>
</g>
</g>
</g>
<defs>
<clipPath id="clip0_402_39829">
<rect width="140" height="140" fill="white" transform="translate(0 -44)"/>
</clipPath>
<clipPath id="clip1_402_39829">
<rect width="140" height="140" fill="white" transform="translate(0 -44)"/>
</clipPath>
<clipPath id="clip2_402_39829">
<rect width="140" height="140" fill="white" transform="translate(0 -44)"/>
</clipPath>
</defs>
</svg>
