<svg width="14" height="15" viewBox="0 0 14 15" fill="none" xmlns="http://www.w3.org/2000/svg">
<g clip-path="url(#clip0_2898_42513)">
<path fill-rule="evenodd" clip-rule="evenodd" d="M10.724 13.2942C10.9118 13.4272 11.1539 13.4605 11.3697 13.3788C11.5856 13.2966 11.7442 13.1122 11.792 12.8888C12.299 10.5065 13.5286 4.47676 13.99 2.30973C14.025 2.1464 13.9667 1.97665 13.8383 1.86757C13.71 1.75849 13.5321 1.72699 13.3734 1.78591C10.9276 2.69122 3.39515 5.5174 0.316392 6.65663C0.120979 6.72896 -0.00618444 6.91679 0.000232076 7.1227C0.00723192 7.3292 0.146062 7.50828 0.346141 7.56836C1.72686 7.98135 3.53923 8.55592 3.53923 8.55592C3.53923 8.55592 4.38622 11.1138 4.82779 12.4146C4.8832 12.5779 5.01095 12.7062 5.17953 12.7506C5.34753 12.7943 5.52719 12.7482 5.6526 12.6298C6.36192 11.9602 7.45856 10.9248 7.45856 10.9248C7.45856 10.9248 9.54218 12.4525 10.724 13.2942ZM4.30163 8.23276L5.28103 11.4632L5.49861 9.41748C5.49861 9.41748 9.28261 6.00448 11.4397 4.0591C11.5027 4.00194 11.5115 3.90627 11.459 3.83919C11.4071 3.77211 11.3114 3.75636 11.2396 3.80186C8.73953 5.39841 4.30163 8.23276 4.30163 8.23276Z" fill="#999999"/>
</g>
<defs>
<clipPath id="clip0_2898_42513">
<rect width="14" height="14" fill="white" transform="translate(0 0.356567)"/>
</clipPath>
</defs>
</svg>
