<svg width="32" height="32" viewBox="0 0 32 32" fill="none" xmlns="http://www.w3.org/2000/svg">
<path fill-rule="evenodd" clip-rule="evenodd" d="M2.06695 7.54685C1.08901 8.03313 1.08901 9.42066 2.06695 9.90694L7.25399 12.2223L2.06695 14.82C1.08901 15.3063 1.08901 16.6938 2.06695 17.1801L15.4063 22.5274C15.7799 22.7131 16.2196 22.7132 16.5933 22.5275L29.9344 17.1803C30.9127 16.6941 30.9127 15.3061 29.9344 14.8199L24.7467 12.2221L21.6228 13.6163L26.3729 16.0001L16.0002 20.0001L5.62732 16.0001L10.3773 13.6164L15.405 15.8606C15.7785 16.0463 16.2183 16.0464 16.5919 15.8607L29.9331 9.90684C30.9114 9.42065 30.9114 8.03265 29.9331 7.54647L16.5919 1.47248C16.2183 1.2868 15.7785 1.28685 15.405 1.47261L2.06695 7.54685ZM5.62732 8.7269L16.0002 13.3333L26.3716 8.72665L16.0002 3.99992L5.62732 8.7269Z" fill="#121212"/>
<path d="M2.06695 22.2131L7.94458 19.5364L11.2955 20.8796L5.62732 23.3931L15.9988 28.0001L26.3716 23.3929L20.7039 20.8801L24.0555 19.5367L29.9331 22.2127C30.9114 22.6989 30.9114 24.0869 29.9331 24.5731L16.5919 30.5269C16.2183 30.7126 15.7785 30.7126 15.405 30.5268L2.06695 24.5732C1.08901 24.0869 1.08901 22.6994 2.06695 22.2131Z" fill="#121212"/>
</svg>
