<svg width="56" height="57" viewBox="0 0 56 57" fill="none" xmlns="http://www.w3.org/2000/svg">
<path d="M14.6154 30.3797L10 32.3027L10 18.8027L20 18.8027L20 32.3027L15.3846 30.3797L15 30.2194L14.6154 30.3797Z" fill="white" stroke="#1F2228" stroke-width="2" stroke-linecap="square"/>
<path d="M14.6173 3.96125C14.8623 3.85975 15.1377 3.85975 15.3827 3.96125L23.1026 7.15894C23.3476 7.26043 23.5423 7.45511 23.6438 7.70014L26.8415 15.4201C26.943 15.6651 26.943 15.9404 26.8415 16.1854L23.6438 23.9053C23.5423 24.1504 23.3476 24.345 23.1026 24.4465L15.3827 27.6442C15.1377 27.7457 14.8623 27.7457 14.6173 27.6442L6.8974 24.4465C6.65237 24.345 6.4577 24.1504 6.35621 23.9053L3.15851 16.1854C3.05702 15.9404 3.05702 15.6651 3.15851 15.4201L6.35621 7.70014C6.4577 7.45511 6.65237 7.26043 6.8974 7.15894L14.6173 3.96125Z" fill="#1F2228"/>
<circle cx="15" cy="15.8027" r="3" fill="white"/>
<rect x="34" y="28.8027" width="2" height="20" fill="#C8CAD9"/>
<rect x="34" y="32.8027" width="2" height="3" fill="white"/>
<rect x="44" y="21.8027" width="2" height="27" fill="#C8CAD9"/>
<rect x="44" y="14.8027" width="2" height="4" fill="#1F2228"/>
<path d="M24 38.8027H26V48.8027H24V38.8027Z" fill="#C8CAD9"/>
<rect x="24" y="42.8027" width="4" height="3" fill="white"/>
<path d="M14 38.8027H16V48.8027H14V38.8027Z" fill="#C8CAD9"/>
<rect x="14" y="42.8027" width="4" height="3" fill="white"/>
</svg>
