<svg width="32" height="32" viewBox="0 0 32 32" fill="none" xmlns="http://www.w3.org/2000/svg">
<path d="M17.3332 4.00008C17.3332 3.2637 17.9301 2.66675 18.6665 2.66675H27.9998C28.7362 2.66675 29.3332 3.2637 29.3332 4.00008V13.3334C29.3332 14.0698 28.7362 14.6667 27.9998 14.6667C27.2635 14.6667 26.6665 14.0698 26.6665 13.3334V7.21903L18.6848 15.2007C17.981 15.9045 16.8669 15.9837 16.0706 15.3865L12.125 12.4273L4.94265 19.6096C4.42195 20.1303 3.57773 20.1303 3.05703 19.6096C2.53633 19.0889 2.53633 18.2446 3.05703 17.7239L10.6482 10.1328C11.352 9.429 12.4662 9.34982 13.2624 9.947L17.2081 12.9062L24.7809 5.33342L18.6665 5.33341C17.9301 5.33341 17.3332 4.73646 17.3332 4.00008Z" fill="#121212"/>
<path d="M27.9998 29.3334H3.99984C3.26346 29.3334 2.6665 28.7365 2.6665 28.0001C2.6665 27.2637 3.26346 26.6667 3.99984 26.6667H27.9998C28.7362 26.6667 29.3332 27.2637 29.3332 28.0001C29.3332 28.7365 28.7362 29.3334 27.9998 29.3334Z" fill="#121212"/>
</svg>
