<svg width="44" height="48" viewBox="0 0 44 48" fill="none" xmlns="http://www.w3.org/2000/svg">
<path fill-rule="evenodd" clip-rule="evenodd" d="M18.5985 8.70591L17.1241 3.5712C18.6707 3.12749 20.3069 2.88946 22.0011 2.88946C31.6607 2.88946 39.4378 10.6275 39.4378 20.107L39.4375 20.197H34.1364C34.1364 26.7692 28.7397 32.1636 22 32.1636C15.2603 32.1636 9.86366 26.7692 9.86366 20.197C9.86366 14.7799 13.5258 10.1626 18.5985 8.70591ZM31.468 37.9045C37.9254 34.5365 42.3272 27.8302 42.3272 20.107C42.3272 9.0022 33.2269 0 22.0011 0C10.7753 0 1.67498 9.0022 1.67498 20.107C1.67498 27.8302 6.07686 34.5365 12.5342 37.9045H4.71375L1.34915 45.1105L0 48H3.18892H40.8111H44L42.6509 45.1105L39.2862 37.9045H31.468ZM4.53807 45.1105L6.55352 40.794H37.4465L39.4619 45.1105H4.53807Z" fill="#53565C"/>
</svg>
