<svg width="48" height="48" viewBox="0 0 48 48" fill="none" xmlns="http://www.w3.org/2000/svg">
<mask id="path-1-inside-1_1286_9709" fill="white">
<path d="M38.3043 21.968C37.8855 21.968 37.5768 22.5876 37.8796 22.8769C38.0271 23.0178 38.1408 23.1276 38.2134 23.198C38.2645 23.2476 38.2647 23.3269 38.214 23.3769C37.6782 23.9049 34.8828 26.6342 32.8088 28.1628C30.7545 29.6769 27.118 31.5845 26.3438 31.9853C26.2686 32.0243 26.1803 31.9821 26.1619 31.8993C25.9042 30.7371 24.8326 26.6368 24.1081 24.3808C23.3835 26.6368 22.3119 30.7372 22.0542 31.8994C22.0359 31.9821 21.9475 32.0243 21.8723 31.9853C21.0981 31.5845 17.4616 29.6769 15.4073 28.1628C13.3333 26.6342 10.5379 23.9049 10.0021 23.3769C9.95138 23.327 9.95162 23.2477 10.0027 23.1981C10.0349 23.1669 10.0751 23.128 10.1227 23.0821C10.4497 22.7668 10.0262 21.968 9.57201 21.968C6.28487 21.968 3.62012 19.3033 3.62012 16.0161C3.62012 12.729 6.28487 10.0642 9.57201 10.0642C10.0262 10.0642 10.4623 9.2451 10.1352 8.92999C10.0822 8.87896 10.0379 8.83609 10.0031 8.80229C9.952 8.75269 9.95176 8.67341 10.0025 8.62341C10.5383 8.09542 13.3337 5.36613 15.4077 3.83751C17.462 2.32343 21.0985 0.415825 21.8727 0.0150155C21.9479 -0.0239588 22.0362 0.018244 22.0546 0.101C22.3124 1.26363 23.3847 5.36666 24.1093 7.62211C24.8339 5.36674 25.9063 1.26333 26.1641 0.100639C26.1824 0.0178823 26.2707 -0.0243205 26.346 0.0146538C27.1201 0.415463 30.7567 2.32306 32.811 3.83715C34.885 5.36577 37.6804 8.09506 38.2162 8.62305C38.2669 8.67305 38.2667 8.75233 38.2156 8.80193C38.1409 8.87441 38.0226 8.98866 37.8687 9.13557C37.5614 9.42898 37.8794 10.0643 38.3043 10.0643C41.6593 10.0643 44.379 12.729 44.379 16.0161C44.379 19.3033 41.6593 21.968 38.3043 21.968Z"/>
</mask>
<path d="M38.2134 23.198L35.4276 26.0685L35.4277 26.0685L38.2134 23.198ZM38.214 23.3769L35.4064 20.5278L35.4063 20.5279L38.214 23.3769ZM32.8088 28.1628L35.182 31.3827L32.8088 28.1628ZM26.3438 31.9853L24.5047 28.4332L24.5047 28.4332L26.3438 31.9853ZM26.1619 31.8993L22.2567 32.7652L22.2568 32.7652L26.1619 31.8993ZM24.1081 24.3808L27.9165 23.1577L24.1081 11.2999L20.2997 23.1577L24.1081 24.3808ZM22.0542 31.8994L25.9594 32.7653L25.9594 32.7652L22.0542 31.8994ZM21.8723 31.9853L23.7114 28.4332L23.7114 28.4332L21.8723 31.9853ZM15.4073 28.1628L17.7805 24.9429L17.7805 24.9429L15.4073 28.1628ZM10.0021 23.3769L12.8098 20.5279L12.8098 20.5279L10.0021 23.3769ZM10.0027 23.1981L7.21698 20.3276L7.21697 20.3276L10.0027 23.1981ZM10.0031 8.80229L12.7889 5.93184V5.93184L10.0031 8.80229ZM10.0025 8.62341L12.8102 11.4724L12.8102 11.4724L10.0025 8.62341ZM15.4077 3.83751L17.7809 7.05743V7.05743L15.4077 3.83751ZM21.8727 0.0150155L23.7118 3.56714V3.56714L21.8727 0.0150155ZM22.0546 0.101L18.1494 0.966822L18.1494 0.966874L22.0546 0.101ZM24.1093 7.62211L20.301 8.84555L24.1092 20.6997L27.9176 8.84559L24.1093 7.62211ZM26.1641 0.100639L22.2589 -0.765273L22.2589 -0.765229L26.1641 0.100639ZM26.346 0.0146538L24.5069 3.56677L24.5069 3.56677L26.346 0.0146538ZM32.811 3.83715L35.1842 0.617232V0.617232L32.811 3.83715ZM38.2162 8.62305L35.4085 11.472L35.4086 11.4721L38.2162 8.62305ZM38.2156 8.80193L35.4299 5.93141L35.4298 5.93147L38.2156 8.80193ZM37.8687 9.13557L35.1066 6.24234L37.8687 9.13557ZM10.1227 23.0821L12.8988 25.9618L10.1227 23.0821ZM37.8796 22.8769L40.6425 19.9844L37.8796 22.8769ZM40.9991 20.3276C40.9197 20.2505 40.7984 20.1332 40.6425 19.9844L35.1168 25.7694C35.2559 25.9023 35.3619 26.0047 35.4276 26.0685L40.9991 20.3276ZM41.0216 26.226C42.668 24.6035 42.6634 21.9426 40.9991 20.3275L35.4277 26.0685C33.8656 24.5526 33.8614 22.0503 35.4064 20.5278L41.0216 26.226ZM35.182 31.3827C37.5237 29.6568 40.517 26.7233 41.0217 26.2259L35.4063 20.5279C34.8395 21.0865 32.2419 23.6115 30.4356 24.9429L35.182 31.3827ZM28.183 35.5374C28.9021 35.1651 32.8292 33.1168 35.182 31.3827L30.4356 24.9429C28.6798 26.2369 25.3338 28.0039 24.5047 28.4332L28.183 35.5374ZM22.2568 32.7652C22.8332 35.3651 25.7329 36.806 28.183 35.5374L24.5047 28.4332C26.8043 27.2425 29.5273 28.599 30.0671 31.0334L22.2568 32.7652ZM20.2997 25.604C20.9838 27.734 22.0238 31.7145 22.2567 32.7652L30.0671 31.0334C29.7847 29.7598 28.6815 25.5397 27.9165 23.1577L20.2997 25.604ZM20.2997 23.1577C19.5346 25.5397 18.4315 29.7598 18.149 31.0335L25.9594 32.7652C26.1923 31.7145 27.2324 27.734 27.9165 25.604L20.2997 23.1577ZM18.1491 31.0334C18.6888 28.5991 21.4118 27.2426 23.7114 28.4332L20.0331 35.5375C22.4832 36.8061 25.3829 35.3652 25.9594 32.7653L18.1491 31.0334ZM23.7114 28.4332C22.8823 28.0039 19.5363 26.237 17.7805 24.9429L13.0341 31.3828C15.3869 33.1169 19.314 35.1651 20.0331 35.5375L23.7114 28.4332ZM17.7805 24.9429C15.9742 23.6116 13.3767 21.0866 12.8098 20.5279L7.19441 26.226C7.69909 26.7233 10.6924 29.6569 13.0341 31.3828L17.7805 24.9429ZM12.8098 20.5279C14.3547 22.0504 14.3505 24.5526 12.7885 26.0685L7.21697 20.3276C5.55276 21.9427 5.54812 24.6035 7.19443 26.226L12.8098 20.5279ZM12.7885 26.0685C12.8176 26.0403 12.8545 26.0045 12.8988 25.9618L7.34652 20.2023C7.29556 20.2514 7.25217 20.2935 7.21698 20.3276L12.7885 26.0685ZM-0.379883 16.0161C-0.379883 21.5124 4.07573 25.968 9.57201 25.968V17.968C8.49401 17.968 7.62012 17.0941 7.62012 16.0161H-0.379883ZM9.57201 6.06424C4.07573 6.06424 -0.379883 10.5199 -0.379883 16.0161H7.62012C7.62012 14.9381 8.49401 14.0642 9.57201 14.0642V6.06424ZM7.21735 11.6728C7.25549 11.7098 7.30327 11.756 7.35987 11.8105L12.9105 6.04943C12.8612 6.00191 12.8204 5.96241 12.7889 5.93184L7.21735 11.6728ZM7.19481 5.7744C5.5485 7.39682 5.55314 10.0577 7.21735 11.6728L12.7889 5.93184C14.3509 7.44773 14.355 9.94999 12.8102 11.4724L7.19481 5.7744ZM13.0345 0.617593C10.6928 2.3435 7.69947 5.27705 7.19479 5.77441L12.8102 11.4724C13.377 10.9138 15.9746 8.38875 17.7809 7.05743L13.0345 0.617593ZM20.0335 -3.53711C19.3144 -3.16478 15.3873 -1.11653 13.0345 0.617594L17.7809 7.05743C19.5366 5.76338 22.8826 3.99643 23.7118 3.56714L20.0335 -3.53711ZM25.9598 -0.764822C25.3833 -3.36484 22.4836 -4.80566 20.0335 -3.5371L23.7118 3.56714C21.4123 4.75774 18.6892 3.40133 18.1494 0.966822L25.9598 -0.764822ZM27.9176 6.39867C27.2336 4.26948 26.1928 0.286314 25.9597 -0.764873L18.1494 0.966874C18.4319 2.24094 19.5358 6.46385 20.301 8.84555L27.9176 6.39867ZM22.2589 -0.765229C22.0258 0.286021 20.985 4.26955 20.301 6.39863L27.9176 8.84559C28.6827 6.46394 29.7867 2.24063 30.0692 0.966506L22.2589 -0.765229ZM28.1852 -3.53747C25.735 -4.80603 22.8354 -3.36517 22.2589 -0.765273L30.0692 0.96655C29.5294 3.40093 26.8064 4.75739 24.5069 3.56677L28.1852 -3.53747ZM35.1842 0.617232C32.8314 -1.11689 28.9043 -3.16514 28.1852 -3.53747L24.5069 3.56677C25.336 3.99607 28.682 5.76302 30.4378 7.05707L35.1842 0.617232ZM41.0239 5.77405C40.5192 5.27668 37.5259 2.34314 35.1842 0.617232L30.4378 7.05707C32.2441 8.38839 34.8416 10.9134 35.4085 11.472L41.0239 5.77405ZM41.0012 11.6725C42.6656 10.0573 42.6702 7.39641 41.0238 5.77397L35.4086 11.4721C33.8636 9.94968 33.8678 7.44732 35.4299 5.93141L41.0012 11.6725ZM40.6308 12.0288C40.7934 11.8736 40.9196 11.7517 41.0013 11.6724L35.4298 5.93147C35.3622 5.99709 35.2518 6.1037 35.1066 6.24234L40.6308 12.0288ZM48.379 16.0161C48.379 10.4433 43.791 6.06426 38.3043 6.06426V14.0643C39.5275 14.0643 40.379 15.0148 40.379 16.0161H48.379ZM38.3043 25.968C43.791 25.968 48.379 21.589 48.379 16.0161H40.379C40.379 17.0175 39.5275 17.968 38.3043 17.968V25.968ZM35.1066 6.24234C33.2033 8.05941 33.7086 10.409 34.2085 11.4464C34.7159 12.4992 36.047 14.0643 38.3043 14.0643V6.06426C40.1368 6.06426 41.0964 7.31164 41.4154 7.97347C41.7269 8.61988 42.2268 10.5051 40.6308 12.0288L35.1066 6.24234ZM9.57201 14.0642C10.8954 14.0642 11.8759 13.482 12.4342 13.0242C13.0137 12.5489 13.429 11.9817 13.7077 11.437C13.9808 10.903 14.2343 10.171 14.2485 9.30573C14.2631 8.41856 14.0088 7.10759 12.9105 6.04943L7.35987 11.8105C6.42512 10.9099 6.239 9.81953 6.24958 9.17458C6.25979 8.55151 6.43722 8.08339 6.58546 7.79359C6.73921 7.49304 6.98081 7.15029 7.36102 6.83847C7.72 6.54405 8.4757 6.06424 9.57201 6.06424V14.0642ZM12.8988 25.9618C13.9702 24.929 14.2445 23.6484 14.2384 22.7477C14.2324 21.8754 13.9813 21.1349 13.7047 20.5916C13.4228 20.0381 13.0016 19.4663 12.4145 18.9904C11.8432 18.5273 10.8698 17.968 9.57201 17.968V25.968C8.50132 25.968 7.75119 25.5086 7.3768 25.2051C6.98664 24.8888 6.73598 24.5364 6.57587 24.222C6.421 23.9179 6.24288 23.4362 6.23855 22.8023C6.23403 22.14 6.43862 21.0776 7.34652 20.2023L12.8988 25.9618ZM38.3043 17.968C36.0635 17.968 34.7286 19.5132 34.2151 20.5835C33.7066 21.643 33.2351 23.9721 35.1168 25.7694L40.6425 19.9844C42.2213 21.4924 41.7527 23.3671 41.4276 24.0445C41.0974 24.7326 40.1263 25.968 38.3043 25.968V17.968Z" fill="#4A4D53" mask="url(#path-1-inside-1_1286_9709)"/>
<rect x="8" y="40" width="32" height="8" fill="#4A4D53"/>
<path d="M16.9282 32H31.0718L34.5 40H13.5L16.9282 32Z" fill="#4A4D53"/>
</svg>
