<svg width="48" height="48" viewBox="0 0 48 48" fill="none" xmlns="http://www.w3.org/2000/svg">
<path d="M11.4282 40H36.5718L40 48H8L11.4282 40Z" fill="#4A4D53"/>
<path d="M13.4353 35.4671L21.4657 22.4197C21.665 22.0958 22.1525 22.1552 22.2683 22.5174L27.669 39.4198C27.7607 39.7068 27.5465 40 27.2453 40L15.988 40C15.8275 40 15.6794 39.9135 15.6006 39.7736L13.4266 35.9187C13.3472 35.7778 13.3505 35.6049 13.4353 35.4671Z" fill="#F4F4F4"/>
<path d="M13.4353 35.4671L21.4657 22.4197C21.665 22.0958 22.1525 22.1552 22.2683 22.5174L27.669 39.4198C27.7607 39.7068 27.5465 40 27.2453 40L15.988 40C15.8275 40 15.6794 39.9135 15.6006 39.7736L13.4266 35.9187C13.3472 35.7778 13.3505 35.6049 13.4353 35.4671Z" fill="#4A4D53"/>
<mask id="path-3-inside-1_1285_9522" fill="white">
<path d="M18.7027 24.8559L23.4244 0.731955C23.4891 0.401381 23.8835 0.259876 24.1436 0.473909L42.5873 15.6505C42.7603 15.7929 42.8004 16.0416 42.6809 16.2312L27.8321 39.7923C27.7507 39.9215 27.6086 39.9999 27.4558 39.9999H15.4431C15.2826 39.9999 15.1345 39.9134 15.0556 39.7736L12.8748 35.9064C12.799 35.7721 12.7983 35.6081 12.8727 35.4731L18.6557 24.9853C18.678 24.9448 18.6939 24.9012 18.7027 24.8559Z"/>
</mask>
<path d="M23.4244 0.731955L27.3499 1.50028L27.3499 1.50027L23.4244 0.731955ZM18.7027 24.8559L14.7772 24.0876L14.7772 24.0876L18.7027 24.8559ZM18.6557 24.9853L15.1529 23.0538L15.1529 23.0538L18.6557 24.9853ZM12.8727 35.4731L9.36992 33.5417L9.36991 33.5417L12.8727 35.4731ZM12.8748 35.9064L16.3589 33.9416L16.3589 33.9415L12.8748 35.9064ZM15.0556 39.7736L11.5715 41.7384L11.5715 41.7385L15.0556 39.7736ZM27.8321 39.7923L24.4481 37.6596L24.4481 37.6596L27.8321 39.7923ZM42.6809 16.2312L46.065 18.3639L46.065 18.3639L42.6809 16.2312ZM42.5873 15.6505L40.0457 18.7392L40.0457 18.7392L42.5873 15.6505ZM24.1436 0.473909L21.602 3.56264L21.602 3.56264L24.1436 0.473909ZM19.4989 -0.0363679L14.7772 24.0876L22.6282 25.6242L27.3499 1.50028L19.4989 -0.0363679ZM15.1529 23.0538L9.36992 33.5417L16.3755 37.4045L22.1585 26.9167L15.1529 23.0538ZM9.39061 37.8712L11.5715 41.7384L18.5398 37.8088L16.3589 33.9416L9.39061 37.8712ZM15.4431 43.9999H27.4558V35.9999H15.4431V43.9999ZM31.2161 41.925L46.065 18.3639L39.2969 14.0985L24.4481 37.6596L31.2161 41.925ZM45.1289 12.5618L26.6852 -2.61482L21.602 3.56264L40.0457 18.7392L45.1289 12.5618ZM46.065 18.3639C47.2585 16.4701 46.8575 13.9842 45.1289 12.5618L40.0457 18.7392C38.663 17.6015 38.3423 15.6132 39.2969 14.0985L46.065 18.3639ZM27.4558 43.9999C28.9824 43.9999 30.4022 43.2165 31.2162 41.925L24.4481 37.6596C25.0991 36.6265 26.2348 35.9999 27.4558 35.9999V43.9999ZM11.5715 41.7385C12.3594 43.1357 13.839 43.9999 15.4431 43.9999V35.9999C16.7261 35.9999 17.9096 36.6912 18.5398 37.8088L11.5715 41.7385ZM9.36991 33.5417C8.62596 34.8909 8.63377 36.5292 9.39063 37.8713L16.3589 33.9415C16.9643 35.015 16.9705 36.3254 16.3755 37.4045L9.36991 33.5417ZM14.7772 24.0876C14.8481 23.7256 14.9748 23.3768 15.1529 23.0538L22.1585 26.9168C22.3812 26.5129 22.5397 26.0768 22.6282 25.6242L14.7772 24.0876ZM27.3499 1.50027C26.8328 4.1423 23.6808 5.27324 21.602 3.56264L26.6852 -2.61482C24.0861 -4.75349 20.1454 -3.33954 19.4989 -0.0363615L27.3499 1.50027Z" fill="#F4F4F4" mask="url(#path-3-inside-1_1285_9522)"/>
<path d="M23.4244 0.731955L27.3499 1.50028L27.3499 1.50027L23.4244 0.731955ZM18.7027 24.8559L14.7772 24.0876L14.7772 24.0876L18.7027 24.8559ZM18.6557 24.9853L15.1529 23.0538L15.1529 23.0538L18.6557 24.9853ZM12.8727 35.4731L9.36992 33.5417L9.36991 33.5417L12.8727 35.4731ZM12.8748 35.9064L16.3589 33.9416L16.3589 33.9415L12.8748 35.9064ZM15.0556 39.7736L11.5715 41.7384L11.5715 41.7385L15.0556 39.7736ZM27.8321 39.7923L24.4481 37.6596L24.4481 37.6596L27.8321 39.7923ZM42.6809 16.2312L46.065 18.3639L46.065 18.3639L42.6809 16.2312ZM42.5873 15.6505L40.0457 18.7392L40.0457 18.7392L42.5873 15.6505ZM24.1436 0.473909L21.602 3.56264L21.602 3.56264L24.1436 0.473909ZM19.4989 -0.0363679L14.7772 24.0876L22.6282 25.6242L27.3499 1.50028L19.4989 -0.0363679ZM15.1529 23.0538L9.36992 33.5417L16.3755 37.4045L22.1585 26.9167L15.1529 23.0538ZM9.39061 37.8712L11.5715 41.7384L18.5398 37.8088L16.3589 33.9416L9.39061 37.8712ZM15.4431 43.9999H27.4558V35.9999H15.4431V43.9999ZM31.2161 41.925L46.065 18.3639L39.2969 14.0985L24.4481 37.6596L31.2161 41.925ZM45.1289 12.5618L26.6852 -2.61482L21.602 3.56264L40.0457 18.7392L45.1289 12.5618ZM46.065 18.3639C47.2585 16.4701 46.8575 13.9842 45.1289 12.5618L40.0457 18.7392C38.663 17.6015 38.3423 15.6132 39.2969 14.0985L46.065 18.3639ZM27.4558 43.9999C28.9824 43.9999 30.4022 43.2165 31.2162 41.925L24.4481 37.6596C25.0991 36.6265 26.2348 35.9999 27.4558 35.9999V43.9999ZM11.5715 41.7385C12.3594 43.1357 13.839 43.9999 15.4431 43.9999V35.9999C16.7261 35.9999 17.9096 36.6912 18.5398 37.8088L11.5715 41.7385ZM9.36991 33.5417C8.62596 34.8909 8.63377 36.5292 9.39063 37.8713L16.3589 33.9415C16.9643 35.015 16.9705 36.3254 16.3755 37.4045L9.36991 33.5417ZM14.7772 24.0876C14.8481 23.7256 14.9748 23.3768 15.1529 23.0538L22.1585 26.9168C22.3812 26.5129 22.5397 26.0768 22.6282 25.6242L14.7772 24.0876ZM27.3499 1.50027C26.8328 4.1423 23.6808 5.27324 21.602 3.56264L26.6852 -2.61482C24.0861 -4.75349 20.1454 -3.33954 19.4989 -0.0363615L27.3499 1.50027Z" fill="#4A4D53" mask="url(#path-3-inside-1_1285_9522)"/>
</svg>
