<svg width="48" height="48" viewBox="0 0 48 48" fill="none" xmlns="http://www.w3.org/2000/svg">
<path d="M11.4282 40H36.5718L40 48H8L11.4282 40Z" fill="#4A4D53"/>
<path d="M42.604 20.4382C42.604 30.5697 34.2953 38.8198 24.0002 38.8198C13.7052 38.8198 5.39648 30.5697 5.39648 20.4382C5.39648 10.3067 13.7052 2.05664 24.0002 2.05664C34.2953 2.05664 42.604 10.3067 42.604 20.4382Z" stroke="#4A4D53" stroke-width="4"/>
<ellipse cx="23.9996" cy="32.4099" rx="8.50158" ry="8.40991" fill="#4A4D53"/>
<path d="M16.7117 6.76123C11.8186 9.34251 8.48828 14.4417 8.48828 20.3103C8.48828 26.1789 11.8186 31.2781 16.7117 33.8594M31.2898 6.76123C36.1829 9.34251 39.5132 14.4417 39.5132 20.3103C39.5132 26.1789 36.1829 31.2781 31.2898 33.8594" stroke="#4A4D53" stroke-width="4"/>
</svg>
