<?xml version="1.0" encoding="UTF-8"?>
<svg xmlns="http://www.w3.org/2000/svg" width="278" height="80" viewBox="0 0 278 80" fill="none">
  <g clip-path="url(#clip0_10569_16253)">
    <mask id="mask0_10569_16253" style="mask-type:luminance" maskUnits="userSpaceOnUse" x="0" y="0" width="278" height="80">
      <path d="M277.029 0H0V80H277.029V0Z" fill="white"></path>
    </mask>
    <g mask="url(#mask0_10569_16253)">
      <path d="M0 36.4641C0.452171 35.553 0.346494 34.5398 0.505879 33.5785C2.03275 24.5628 6.1387 16.938 12.8236 10.7038C18.2064 5.68099 24.5229 2.35899 31.7473 0.904096C43.5817 -1.47743 54.4631 0.824422 64.1842 8.00533C71.424 13.359 76.2802 20.4308 78.7643 29.0944C81.1396 37.408 80.8919 45.6801 77.8464 53.7477C73.6261 64.9193 65.8921 72.7827 54.7543 77.2512C51.2553 78.656 47.5639 79.5228 43.8052 79.8231C43.6666 79.8336 43.5124 79.8231 43.4587 79.9964H36.7021C36.6842 79.9429 36.6489 79.8967 36.6018 79.8656C36.5548 79.8341 36.4986 79.8195 36.4422 79.8231C34.8382 79.6997 33.245 79.4624 31.6745 79.1132C24.4727 77.5543 18.1406 74.288 12.7665 69.2563C6.11845 63.0336 2.0316 55.4286 0.505879 46.4403C0.343029 45.4792 0.452171 44.4643 0 43.5532V36.4641ZM33.9267 45.1882C33.9267 51.5223 33.9354 57.856 33.9111 64.1902C33.9111 64.7827 34.0376 65.0163 34.6613 65.1219C38.3039 65.7413 42.025 65.7413 45.6676 65.1219C46.3607 65.0057 46.4384 64.7063 46.4384 64.1139C46.4224 51.6435 46.4183 39.177 46.4265 26.7146C46.4265 25.4035 46.4265 25.4035 47.7344 25.4035C51.0226 25.4035 54.3141 25.4035 57.6096 25.4035C57.9177 25.4035 58.2779 25.5489 58.3717 24.986C58.9262 21.6432 59.0368 18.3108 58.3977 14.9611C58.2971 14.4294 58.0878 14.393 57.6718 14.393C46.0183 14.393 34.3627 14.393 22.7056 14.393C22.1858 14.393 22.0317 14.5662 21.9364 15.0512C21.3064 18.2536 21.3064 21.5481 21.9364 24.7505C22.0386 25.2805 22.2205 25.4433 22.7627 25.4433C26.1965 25.4173 29.6302 25.4433 33.0622 25.4121C33.7725 25.4035 33.9631 25.5645 33.9596 26.2937C33.9129 32.5844 33.9267 38.8837 33.9267 45.1882Z" fill="#303030"></path>
      <path d="M175.226 35.0681C175.226 32.7074 175.243 30.3484 175.214 27.9877C175.214 27.449 175.365 27.3105 175.895 27.3174C178.171 27.3451 180.451 27.3035 182.727 27.3347C188.538 27.4179 192.18 33.8384 189.273 38.8665C189.039 39.2718 188.996 39.4831 189.404 39.8503C191.854 42.0482 192.752 45.4377 191.637 48.4028C190.409 51.6728 188.018 53.4949 184.51 53.772C182.135 53.9626 182.132 53.9452 182.135 51.5882C182.135 50.8691 181.891 49.974 182.229 49.4803C182.597 48.94 183.559 49.3331 184.259 49.2636C185.905 49.1027 187.152 47.8158 187.169 46.2035C187.189 44.4903 186.024 43.0753 184.323 43.0147C181.586 42.9159 178.845 42.9332 176.108 42.9644C175.38 42.9644 175.195 42.7704 175.209 42.0586C175.262 39.7307 175.226 37.3977 175.226 35.0681ZM180.013 34.746C180.013 35.5808 180.032 36.4139 180.013 37.247C180 37.6523 180.12 37.8117 180.546 37.7857C181.293 37.7406 182.05 37.8047 182.788 37.7129C183.389 37.6281 183.95 37.3603 184.394 36.946C184.837 36.5318 185.143 35.9911 185.269 35.3972C185.51 34.0601 185.001 32.8876 183.883 32.2329C182.74 31.5625 181.475 31.8206 180.245 31.7912C179.926 31.7912 180.018 32.0666 180.016 32.2467C180.009 33.0798 180.013 33.9129 180.013 34.746Z" fill="#303030"></path>
      <path d="M153.26 39.8242C153.26 35.3919 153.277 30.9614 153.242 26.5309C153.242 25.8693 153.416 25.7065 154.055 25.736C155.236 25.7966 156.419 25.7966 157.6 25.736C158.293 25.6978 158.386 25.9455 158.383 26.5586C158.353 30.2686 158.373 33.9804 158.362 37.692C158.362 38.2636 158.322 38.558 159.064 38.1389C164.629 35.03 171.581 38.8923 171.846 45.2575C171.957 47.9282 171.866 50.6075 171.898 53.2836C171.898 53.8034 171.697 53.9003 171.236 53.8916C170.023 53.8656 168.81 53.85 167.598 53.8916C167.009 53.914 166.813 53.7687 166.823 53.1451C166.862 50.7584 166.849 48.3698 166.836 45.9817C166.821 43.8147 165.718 42.1589 163.925 41.5596C161.286 40.6763 158.487 42.5469 158.399 45.3354C158.32 47.8935 158.35 50.4571 158.376 53.0171C158.376 53.6562 158.276 53.9401 157.543 53.8967C156.362 53.8363 155.179 53.8363 153.998 53.8967C153.367 53.9245 153.239 53.7047 153.242 53.1172C153.26 48.6921 153.26 44.2546 153.26 39.8242Z" fill="#303030"></path>
      <path d="M102.243 43.2916C102.243 40.0112 102.225 36.7308 102.256 33.4503C102.256 32.8302 102.151 32.6137 101.47 32.6311C99.5104 32.6848 97.5479 32.6311 95.5881 32.6622C95.0459 32.6709 94.8311 32.5566 94.8521 31.9694C94.8987 30.6185 94.8832 29.264 94.8521 27.9113C94.8521 27.4593 94.9819 27.3259 95.4377 27.3259C101.754 27.3398 108.07 27.3398 114.385 27.3259C114.859 27.3259 114.96 27.4887 114.954 27.9235C114.931 29.3091 114.923 30.686 114.954 32.0665C114.968 32.586 114.758 32.6709 114.301 32.6675C112.369 32.6467 110.436 32.7073 108.506 32.6345C107.696 32.6034 107.593 32.8787 107.594 33.5889C107.622 40.0354 107.594 46.4818 107.632 52.9284C107.632 53.7462 107.397 53.9437 106.626 53.9035C105.413 53.8395 104.2 53.855 102.988 53.9035C102.386 53.9263 102.208 53.7563 102.213 53.1451C102.258 49.8541 102.241 46.5723 102.243 43.2916Z" fill="#303030"></path>
      <path d="M120.619 47.1817C121.582 49.9529 124.43 50.8763 126.705 49.2411C127.098 48.9586 127.351 48.938 127.744 49.2187C128.559 49.8075 129.392 50.3758 130.251 50.8951C130.756 51.2 130.703 51.4062 130.319 51.7714C127.795 54.1668 124.815 54.8891 121.546 53.85C118.342 52.837 116.31 50.5591 115.674 47.237C115.016 43.794 116.154 40.9015 118.909 38.7815C121.762 36.5871 124.957 36.3099 128.164 37.9432C131.311 39.5488 132.812 42.2732 132.916 45.7769C132.916 45.9191 132.916 46.0631 132.906 46.2066C132.906 46.8996 132.675 47.2146 131.849 47.2009C128.127 47.1488 124.411 47.1817 120.619 47.1817ZM124.359 44.2911C125.425 44.2911 126.492 44.2529 127.556 44.3049C128.288 44.3396 128.233 44.0451 127.985 43.5671C127.22 42.0966 126.045 41.2306 124.347 41.2427C122.649 41.2548 121.482 42.0966 120.751 43.6069C120.517 44.0884 120.506 44.324 121.157 44.2997C122.229 44.265 123.289 44.2911 124.359 44.2911Z" fill="#303030"></path>
      <path d="M248.152 54.2607C242.235 54.2607 238.145 49.5841 239.096 44.0695C239.8 39.9941 243.974 36.7951 248.291 37.0289C252.317 37.2437 255.721 39.7845 256.709 43.3092C258.006 47.9526 255.323 52.6465 250.645 53.9279C249.837 54.1702 248.995 54.2827 248.152 54.2607ZM252.24 45.6664C252.26 43.2641 250.406 41.2966 248.098 41.2688C245.791 41.2411 243.729 43.3317 243.75 45.6993C243.771 48.0669 245.773 50.135 248.039 50.1195C250.384 50.1021 252.223 48.1537 252.24 45.6664Z" fill="#303030"></path>
      <path d="M259.68 45.6923C259.68 43.1895 259.695 40.6867 259.666 38.184C259.666 37.6453 259.811 37.4773 260.345 37.5206C260.922 37.5668 261.501 37.5668 262.077 37.5206C263.013 37.4479 263.829 37.4704 264.167 38.6048C264.34 39.2093 264.657 38.6897 264.86 38.5477C267.01 36.9889 269.335 36.6027 271.79 37.647C274.969 38.998 276.68 41.5371 276.932 44.8921C277.141 47.696 276.978 50.528 277.011 53.3458C277.011 53.8537 276.789 53.8917 276.389 53.8848C275.265 53.8656 274.137 53.8482 273.016 53.8848C272.474 53.9054 272.337 53.7307 272.342 53.2041C272.368 50.7877 272.342 48.3717 272.354 45.9557C272.354 44.7656 272.06 43.6675 271.294 42.7478C270.357 41.622 269.136 41.1492 267.68 41.454C266.074 41.79 265.185 42.8968 264.714 44.3846C264.54 44.9965 264.463 45.6316 264.484 46.2674C264.484 48.5691 264.466 50.8709 264.499 53.1712C264.499 53.7408 264.345 53.9141 263.773 53.8917C262.651 53.8501 261.521 53.8395 260.402 53.8917C259.761 53.9227 259.655 53.6837 259.662 53.1104C259.695 50.6405 259.68 48.1723 259.68 45.6923Z" fill="#303030"></path>
      <path d="M195.373 42.526C195.373 40.8616 195.39 39.5071 195.364 38.1561C195.354 37.6798 195.478 37.5032 195.988 37.5188C197.2 37.5551 198.413 37.5621 199.626 37.5188C200.191 37.498 200.288 37.7093 200.284 38.2116C200.261 40.6866 200.255 43.1634 200.284 45.6384C200.298 47.999 201.942 49.7311 204.071 49.6653C205.977 49.6063 207.559 47.9162 207.594 45.7928C207.633 43.2881 207.627 40.7836 207.594 38.2809C207.594 37.6677 207.767 37.4928 208.366 37.5171C209.547 37.5638 210.731 37.5309 211.914 37.5309C212.231 37.5309 212.564 37.4686 212.548 37.976C212.456 40.9637 212.791 43.9671 212.387 46.9393C211.867 50.7217 208.369 53.9642 204.818 54.2568C200.101 54.6449 196.632 51.29 195.705 47.9661C195.163 46.0698 195.468 44.1316 195.373 42.526Z" fill="#303030"></path>
      <path d="M215.58 39.7376C215.58 35.3383 215.596 30.939 215.564 26.5397C215.564 25.8953 215.708 25.7014 216.365 25.736C217.515 25.7949 218.671 25.7845 219.83 25.736C220.41 25.7118 220.537 25.9006 220.535 26.4548C220.512 31.4014 220.521 36.3463 220.521 41.293C220.521 45.2316 220.511 49.1717 220.535 53.1104C220.535 53.6942 220.416 53.9228 219.781 53.8935C218.631 53.8414 217.475 53.8414 216.325 53.8935C215.687 53.9228 215.573 53.6837 215.575 53.1054C215.59 48.6524 215.58 44.1889 215.58 39.7376Z" fill="#303030"></path>
      <path d="M223.489 39.8347C223.489 35.4007 223.503 30.9668 223.472 26.5328C223.472 25.885 223.621 25.7049 224.27 25.7378C225.42 25.795 226.578 25.7742 227.735 25.7378C228.198 25.7257 228.371 25.8209 228.369 26.3371C228.354 35.2893 228.354 44.2433 228.369 53.1987C228.369 53.7062 228.274 53.9091 227.712 53.8918C226.56 53.8465 225.402 53.8278 224.248 53.8918C223.529 53.9352 223.473 53.6284 223.477 53.0428C223.498 48.6438 223.489 44.2392 223.489 39.8347Z" fill="#303030"></path>
      <path d="M144.721 54.2605C140.43 54.2468 136.892 51.5309 135.92 47.5058C134.88 43.1843 137.699 38.5685 142.136 37.3733C144.792 36.658 147.314 36.9611 149.7 38.3883C150.22 38.6966 150.22 38.9079 149.922 39.36C149.369 40.226 148.858 41.1318 148.389 42.0515C148.139 42.5382 147.997 42.5833 147.54 42.2247C145.353 40.5118 141.769 41.454 140.658 43.9931C139.352 46.9792 141.907 50.32 145.28 50.0553C146.147 49.9876 146.928 49.7485 147.586 49.1977C147.933 48.9069 148.106 48.879 148.341 49.3261C148.844 50.2948 149.378 51.2466 149.942 52.1819C150.168 52.5581 150.064 52.7017 149.733 52.9097C148.33 53.791 146.639 54.2656 144.721 54.2605Z" fill="#303030"></path>
      <path d="M236.319 45.796C236.319 48.2399 236.3 50.6856 236.333 53.1295C236.333 53.732 236.179 53.9194 235.569 53.8952C234.389 53.8463 233.206 53.8655 232.025 53.8952C231.576 53.9052 231.352 53.8344 231.354 53.2991C231.371 48.238 231.371 43.1761 231.354 38.1128C231.354 37.6625 231.493 37.517 231.946 37.5274C233.185 37.5551 234.426 37.5655 235.664 37.5274C236.217 37.5084 236.333 37.7006 236.33 38.2202C236.305 40.7334 236.319 43.2656 236.319 45.796Z" fill="#303030"></path>
      <path d="M236.319 29.9984C236.319 30.6912 236.299 31.384 236.328 32.0768C236.347 32.5115 236.233 32.683 235.76 32.6709C234.493 32.6415 233.225 32.6449 231.959 32.6709C231.524 32.6795 231.345 32.5756 231.354 32.1045C231.38 30.6964 231.373 29.2883 231.354 27.8801C231.354 27.4869 231.453 27.3189 231.886 27.3276C233.18 27.3536 234.485 27.3588 235.772 27.3276C236.269 27.3155 236.338 27.532 236.323 27.9425C236.302 28.6197 236.319 29.309 236.319 29.9984Z" fill="#303030"></path>
    </g>
  </g>
  <defs>
    <clipPath id="clip0_10569_16253">
      <rect width="277.029" height="80" fill="white"></rect>
    </clipPath>
  </defs>
</svg>
