<svg width="7" height="13" viewBox="0 0 7 13" fill="none" xmlns="http://www.w3.org/2000/svg">
<path d="M-4.13073e-07 3.34981L-3.0292e-07 5.86981L1.4 5.86981L1.4 3.34981C1.4 2.31031 2.345 1.45981 3.5 1.45981C4.655 1.45981 5.6 2.31031 5.6 3.34981L5.6 5.86981L7 5.86981L7 3.34981C7 1.61101 5.432 0.199806 3.5 0.199806C1.568 0.199806 -4.89078e-07 1.61101 -4.13073e-07 3.34981ZM5.6 7.1298L5.6 9.6498C5.6 10.6893 4.655 11.5398 3.5 11.5398C2.345 11.5398 1.4 10.6893 1.4 9.64981L1.4 7.12981L-2.47844e-07 7.12981L-1.37691e-07 9.64981C-6.16855e-08 11.3886 1.568 12.7998 3.5 12.7998C5.432 12.7998 7 11.3886 7 9.6498L7 7.1298L5.6 7.1298ZM2.8 9.0198L2.8 3.97981L4.2 3.97981L4.2 9.0198L2.8 9.0198ZM-4.13073e-07 3.34981L-3.0292e-07 5.86981L1.4 5.86981L1.4 3.34981C1.4 2.31031 2.345 1.45981 3.5 1.45981C4.655 1.45981 5.6 2.31031 5.6 3.34981L5.6 5.86981L7 5.86981L7 3.34981C7 1.61101 5.432 0.199806 3.5 0.199806C1.568 0.199806 -4.89078e-07 1.61101 -4.13073e-07 3.34981ZM5.6 7.1298L5.6 9.6498C5.6 10.6893 4.655 11.5398 3.5 11.5398C2.345 11.5398 1.4 10.6893 1.4 9.64981L1.4 7.12981L-2.47844e-07 7.12981L-1.37691e-07 9.64981C-6.16855e-08 11.3886 1.568 12.7998 3.5 12.7998C5.432 12.7998 7 11.3886 7 9.6498L7 7.1298L5.6 7.1298ZM2.8 9.0198L2.8 3.97981L4.2 3.97981L4.2 9.0198L2.8 9.0198Z" fill="white"/>
</svg>
